<svg xmlns="http://www.w3.org/2000/svg" viewBox="15 0 145 140" xml:space="preserve">
  <path fill="#DA4536" d="M77.6,67.1l-54.1,56.2c0,0,0,0,0,0c1.7,6.1,7.4,10.6,14.1,10.6c2.7,0,5.2-0.7,7.4-2l0.2-0.1l60.9-34.4 L77.6,67.1z"/>
  <path fill="#F2B41C" d="M132.4,57.6L132.4,57.6l-26.4-15L76.4,68.4l29.7,29.1l26.2-14.8c4.6-2.4,7.7-7.2,7.7-12.6 C140,64.7,136.9,60,132.4,57.6z"/>
  <path fill="#547DBF" d="M23.5,16.6C23.2,17.8,23,19,23,20.3v99.4c0.1,1.4,0.2,2.5,0.5,3.7l56-54.8L23.5,16.6z"/>
  <path fill="#109E58" d="M78,70l28-27.4L45.2,8c-2.2-1.3-4.8-2-7.6-2c-6.8,0-12.5,4.5-14.1,10.6c0,0,0,0,0,0L78,70z"/>
</svg>
