<svg width="500" height="500" viewBox="0 0 500 500" fill="none" xmlns="http://www.w3.org/2000/svg">
<path d="M166.668 254.172H312.501" stroke="white" stroke-width="45" stroke-miterlimit="10" stroke-linecap="round" stroke-linejoin="round"/>
<path d="M166.668 337.504H257.918" stroke="white" stroke-width="45" stroke-miterlimit="10" stroke-linecap="round" stroke-linejoin="round"/>
<path d="M208.335 125.001H291.668C333.335 125.001 333.335 104.168 333.335 83.3346C333.335 41.668 312.501 41.668 291.668 41.668H208.335C187.501 41.668 166.668 41.668 166.668 83.3346C166.668 125.001 187.501 125.001 208.335 125.001Z" stroke="white" stroke-width="45" stroke-miterlimit="10" stroke-linecap="round" stroke-linejoin="round"/>
<path d="M333.333 83.7422C402.708 87.4922 437.5 113.117 437.5 208.326V333.326C437.5 416.659 416.667 458.326 312.5 458.326H187.5C83.3333 458.326 62.5 416.659 62.5 333.326V208.326C62.5 113.326 97.2917 87.4922 166.667 83.7422" stroke="white" stroke-width="45" stroke-miterlimit="10" stroke-linecap="round" stroke-linejoin="round"/>
</svg>
