<svg width="500" height="500" viewBox="0 0 500 500" fill="none" xmlns="http://www.w3.org/2000/svg">
<path d="M218.527 46.4375L114.569 85.6042C90.6107 94.5625 71.0273 122.896 71.0273 148.313V303.104C71.0273 327.688 87.2773 359.979 107.069 374.771L196.652 441.646C226.027 463.729 274.361 463.729 303.736 441.646L393.319 374.771C413.111 359.979 429.361 327.688 429.361 303.104V148.313C429.361 122.688 409.777 94.3542 385.819 85.3958L281.861 46.4375C264.152 39.9792 235.819 39.9792 218.527 46.4375Z" stroke="white" stroke-width="45" stroke-linecap="round" stroke-linejoin="round"/>
<path d="M250.003 260.415C273.014 260.415 291.669 241.761 291.669 218.749C291.669 195.737 273.014 177.082 250.003 177.082C226.991 177.082 208.336 195.737 208.336 218.749C208.336 241.761 226.991 260.415 250.003 260.415Z" stroke="white" stroke-width="45" stroke-miterlimit="10" stroke-linecap="round" stroke-linejoin="round"/>
<path d="M250.004 260.414V322.914" stroke="white" stroke-width="45" stroke-miterlimit="10" stroke-linecap="round" stroke-linejoin="round"/>
</svg>
