<svg width="500" height="500" viewBox="0 0 500 500" fill="none" xmlns="http://www.w3.org/2000/svg">
<path d="M270.832 232.301H145.832" stroke="white" stroke-width="45" stroke-linecap="round" stroke-linejoin="round"/>
<path d="M41.668 232.289V136.039C41.668 93.5391 76.043 59.1641 118.543 59.1641H235.626C278.126 59.1641 312.501 85.6223 312.501 128.122" stroke="white" stroke-width="45" stroke-linecap="round" stroke-linejoin="round"/>
<path d="M364.168 254.174C353.751 264.174 348.751 279.59 352.918 295.424C358.126 314.799 377.293 327.091 397.293 327.091H416.668V357.299C416.668 403.341 379.376 440.633 333.335 440.633H125.001C78.9596 440.633 41.668 403.341 41.668 357.299V211.466C41.668 165.424 78.9596 128.133 125.001 128.133H333.335C379.168 128.133 416.668 165.633 416.668 211.466V241.673H394.168C382.501 241.673 371.876 246.258 364.168 254.174Z" stroke="white" stroke-width="45" stroke-linecap="round" stroke-linejoin="round"/>
<path d="M458.337 262.911V305.827C458.337 317.494 448.753 327.078 436.878 327.078H396.67C374.17 327.078 353.546 310.619 351.671 288.119C350.421 274.994 355.42 262.703 364.17 254.161C371.878 246.244 382.503 241.66 394.17 241.66H436.878C448.753 241.66 458.337 251.244 458.337 262.911Z" stroke="white" stroke-width="45" stroke-linecap="round" stroke-linejoin="round"/>
</svg>
