<svg width="186" height="49" viewBox="0 0 186 49" fill="none" xmlns="http://www.w3.org/2000/svg">
<g clip-path="url(#clip0_5236_1031)">
<path d="M116.683 11.1553C114.798 11.1553 113.27 12.6862 113.27 14.5757C113.243 16.3743 114.68 17.857 116.475 17.8838H116.683C118.478 17.9748 120.006 16.5884 120.092 14.7899V14.5811C120.092 12.6915 118.564 11.1606 116.678 11.1606L116.683 11.1553Z" fill="#122959"/>
<path d="M82.1479 19.7466C81.5283 19.6074 80.8766 19.5271 80.1928 19.5271C80.102 19.5271 80.0165 19.5325 79.9311 19.5378C79.3488 19.5378 78.7719 19.6127 78.211 19.7466C78.1789 19.7519 78.1522 19.7573 78.1201 19.768C78.04 19.7894 77.9652 19.8108 77.8904 19.8322C75.2195 20.5602 73.275 22.5675 72.6714 25.4152V20.0303H66.3038V48.9945L72.6714 48.941V34.028C73.275 36.881 75.2195 38.8884 77.8904 39.611C77.9652 39.6324 78.0454 39.6538 78.1201 39.6752C78.1522 39.6752 78.1789 39.6859 78.211 39.6966C78.7719 39.8305 79.3488 39.9001 79.9311 39.9054C80.0219 39.9054 80.1073 39.9161 80.1928 39.9161C80.8766 39.9161 81.5283 39.8358 82.1479 39.6966C86.1437 38.8081 88.7879 35.1467 88.7879 29.7403V29.6975C88.7879 24.2911 86.1437 20.6298 82.1479 19.7412V19.7466ZM72.666 29.8367V29.6065C72.666 26.7909 73.5314 24.5267 74.8883 23.3009V23.333C75.556 22.7013 76.4321 22.3481 77.3509 22.3373C78.2056 22.3373 78.9748 22.6425 79.6266 23.1938C81.0368 24.4143 81.9343 26.7909 81.9503 29.6226V29.826C81.9289 32.663 81.0368 35.0343 79.6266 36.2548C78.9748 36.8008 78.2056 37.1112 77.3509 37.1112C76.4321 37.1005 75.556 36.7472 74.8883 36.1156V36.1477C73.5314 34.9219 72.666 32.6576 72.666 29.842V29.8367Z" fill="#122959"/>
<path d="M54.7653 19.7145C54.183 19.5914 53.5741 19.5325 52.9384 19.5325C52.8476 19.5325 52.7568 19.5325 52.6659 19.5432C52.0997 19.5485 51.5335 19.6181 50.9886 19.7466C50.9458 19.7573 50.8978 19.7626 50.855 19.7733C50.7909 19.7894 50.7215 19.8108 50.6574 19.8269C47.9757 20.5495 46.0206 22.5568 45.4116 25.4206V20.0356H39.0441V48.9999L45.4116 48.9464V34.0333C46.0153 36.8811 47.9544 38.883 50.62 39.6164C50.7001 39.6378 50.7856 39.6645 50.8657 39.686C50.8924 39.6913 50.9138 39.6967 50.9405 39.702C51.5067 39.8358 52.0837 39.9108 52.6766 39.9161C52.7621 39.9161 52.8529 39.9268 52.9384 39.9268C53.7236 39.9268 54.4662 39.8198 55.1713 39.6324C59.0068 38.6368 61.5335 35.029 61.5335 29.7511V29.7082C61.5335 24.243 58.8305 20.5549 54.76 19.7198L54.7653 19.7145ZM45.417 29.8367V29.6065C45.417 26.7909 46.2824 24.5267 47.6392 23.3009V23.333C48.3069 22.7014 49.183 22.3481 50.1018 22.3374C50.9565 22.3374 51.7258 22.6425 52.3775 23.1938C53.7877 24.4143 54.6852 26.7909 54.7012 29.6226V29.826C54.6798 32.663 53.7877 35.0343 52.3775 36.2548C51.7258 36.8008 50.9565 37.1112 50.1018 37.1112C49.183 37.1005 48.3069 36.7472 47.6392 36.1156V36.1477C46.2824 34.9219 45.417 32.6577 45.417 29.8421V29.8367Z" fill="#122959"/>
<path d="M156.064 19.5271C150.113 19.5271 145.241 23.6434 145.241 29.6975C145.241 35.7516 150.118 39.9268 156.181 39.9268C160.743 39.9268 164.087 37.427 165.621 32.9681L165.044 32.7379C163.473 35.4518 161.438 36.4903 158.981 36.4903C154.91 36.4903 152.341 33.2358 152.111 29.7403H165.946C165.946 23.4293 162.015 19.5271 156.064 19.5271ZM152.111 28.5199C152.148 22.5622 153.452 20.1427 156.064 20.1427C158.676 20.1427 159.67 21.9091 159.75 28.5199H152.111Z" fill="#122959"/>
<path d="M184.819 19.6824C183.489 19.6717 182.175 19.934 180.947 20.4425C179.777 20.9297 178.714 21.6362 177.822 22.5355C177.741 22.6105 177.667 22.6907 177.592 22.771V20.025H171.182V39.3702H177.592V29.1088C177.592 28.1881 177.768 27.2781 178.126 26.4324C178.479 25.5759 178.991 24.7998 179.632 24.1307C180.295 23.4562 181.08 22.9156 181.94 22.5248C182.848 22.118 183.826 21.9146 184.819 21.9253H186V19.6824H184.819Z" fill="#122959"/>
<path d="M110.091 20.0303L104.092 33.3107L103.948 33.027L97.3349 20.0303H89.7548L100.033 39.3755H102.752L104.135 36.3029L111.48 20.0303H110.091Z" fill="#122959"/>
<path d="M138.478 27.9579L142.704 21.2401V20.0518H124.824V21.2294H135.193L124.552 38.2033V39.3916H142.741V38.1765H131.993L138.478 27.9579Z" fill="#122959"/>
<path d="M119.91 20.0303H113.5V39.3701H119.91V20.0303Z" fill="#122959"/>
<path d="M25.8548 11.1553H18.3334L17.9916 12.167C18.8676 17.3539 23.2533 21.3364 28.6273 21.5452C22.7619 21.7753 18.061 26.4912 17.8313 32.3633C17.7031 29.1141 16.2074 26.2235 13.905 24.2483L8.80347 39.3273H15.0642L17.1101 32.9039H27.0675L29.1134 39.3273H35.3688L25.8548 11.1553Z" fill="#122959"/>
<path d="M7.74577 4.28223C7.58551 8.50027 4.20943 11.8779 0 12.0492C4.20408 12.2098 7.58551 15.5982 7.74577 19.8055C7.90603 15.5928 11.2875 12.2098 15.4915 12.0492C11.2821 11.8886 7.90603 8.50027 7.74577 4.28223Z" fill="#122959"/>
<path d="M14.4232 0C14.3324 2.32849 12.4734 4.19128 10.1497 4.28228C12.468 4.37328 14.3324 6.24142 14.4232 8.56456C14.514 6.24142 16.3783 4.37328 18.6967 4.28228C16.373 4.19128 14.514 2.32314 14.4232 0Z" fill="#122959"/>
</g>
<defs>
<clipPath id="clip0_5236_1031">
<rect width="186" height="49" fill="white"/>
</clipPath>
</defs>
</svg>
