<svg width="407" height="237" viewBox="0 0 407 237" fill="none" xmlns="http://www.w3.org/2000/svg">
<g clip-path="url(#clip0_381_347)">
<g opacity="0.15">
<rect x="68.996" y="202.221" width="267.263" height="33.5961" rx="6.2775" fill="white"/>
<rect x="68.996" y="202.221" width="267.263" height="33.5961" rx="6.2775" stroke="#EBEBEB" stroke-width="0.734103"/>
<path d="M85.793 212.928V226.217" stroke="#9FA2AB" stroke-width="2.21485" stroke-linecap="round"/>
<path d="M92.4414 219.566L79.1523 219.566" stroke="#9FA2AB" stroke-width="2.21485" stroke-linecap="round"/>
<path d="M104.621 219.574H148.918" stroke="#9FA2AB" stroke-width="3.32228" stroke-linecap="round"/>
<path d="M168.297 219.574H212.594" stroke="#9FA2AB" stroke-width="3.32228" stroke-linecap="round"/>
<path d="M248.035 219.574H260.217" stroke="#9FA2AB" stroke-width="3.32228" stroke-linecap="round"/>
<path d="M266.855 219.574H279.037" stroke="#9FA2AB" stroke-width="3.32228" stroke-linecap="round"/>
<path d="M285.688 219.574H297.869" stroke="#9FA2AB" stroke-width="3.32228" stroke-linecap="round"/>
<circle cx="311.16" cy="219.572" r="2.21485" fill="#9FA2AB"/>
<circle cx="317.797" cy="219.572" r="2.21485" fill="#9FA2AB"/>
<circle cx="324.445" cy="219.572" r="2.21485" fill="#9FA2AB"/>
</g>
<g opacity="0.4" filter="url(#filter0_dddd_381_347)">
<rect x="60.6289" y="157.691" width="284.001" height="36.3802" rx="7.04134" fill="white"/>
<rect x="61.0799" y="158.142" width="283.099" height="35.4782" rx="6.5903" stroke="#EBEBEB" stroke-width="0.90208"/>
<path d="M78.8164 169.426V183.508" stroke="#9FA2AB" stroke-width="2.34711" stroke-linecap="round"/>
<path d="M85.8672 176.463L71.7845 176.463" stroke="#9FA2AB" stroke-width="2.34711" stroke-linecap="round"/>
<path d="M98.7734 176.467H145.716" stroke="#9FA2AB" stroke-width="3.52067" stroke-linecap="round"/>
<path d="M166.25 176.467H213.192" stroke="#9FA2AB" stroke-width="3.52067" stroke-linecap="round"/>
<path d="M250.742 176.467H263.651" stroke="#9FA2AB" stroke-width="3.52067" stroke-linecap="round"/>
<path d="M270.691 176.467H283.601" stroke="#9FA2AB" stroke-width="3.52067" stroke-linecap="round"/>
<path d="M290.648 176.467H303.558" stroke="#9FA2AB" stroke-width="3.52067" stroke-linecap="round"/>
<circle cx="317.636" cy="176.468" r="2.34711" fill="#9FA2AB"/>
<circle cx="324.679" cy="176.468" r="2.34711" fill="#9FA2AB"/>
<circle cx="331.726" cy="176.468" r="2.34711" fill="#9FA2AB"/>
</g>
<g opacity="0.52" filter="url(#filter1_dddd_381_347)">
<rect x="45.6289" y="112.6" width="314.001" height="40.2232" rx="7.78514" fill="white"/>
<rect x="46.1276" y="113.098" width="313.003" height="39.2258" rx="7.28645" stroke="#EBEBEB" stroke-width="0.99737"/>
<path d="M65.7422 125.574V141.144" stroke="#9FA2AB" stroke-width="2.59505" stroke-linecap="round"/>
<path d="M73.5312 133.355L57.961 133.355" stroke="#9FA2AB" stroke-width="2.59505" stroke-linecap="round"/>
<path d="M87.8047 133.361H139.706" stroke="#9FA2AB" stroke-width="3.89257" stroke-linecap="round"/>
<path d="M162.406 133.361H214.307" stroke="#9FA2AB" stroke-width="3.89257" stroke-linecap="round"/>
<path d="M255.824 133.361H270.097" stroke="#9FA2AB" stroke-width="3.89257" stroke-linecap="round"/>
<path d="M277.879 133.361H292.152" stroke="#9FA2AB" stroke-width="3.89257" stroke-linecap="round"/>
<path d="M299.945 133.361H314.218" stroke="#9FA2AB" stroke-width="3.89257" stroke-linecap="round"/>
<circle cx="329.786" cy="133.361" r="2.59505" fill="#9FA2AB"/>
<circle cx="337.572" cy="133.361" r="2.59505" fill="#9FA2AB"/>
<circle cx="345.361" cy="133.361" r="2.59505" fill="#9FA2AB"/>
</g>
<g opacity="0.6" filter="url(#filter2_dddd_381_347)">
<rect x="20.0938" y="60.2871" width="365.067" height="46.7648" rx="9.05126" fill="white"/>
<rect x="20.5938" y="60.7871" width="364.067" height="45.7648" rx="8.55126" stroke="#EBEBEB"/>
<path d="M43.4727 75.3711V93.4736" stroke="#9FA2AB" stroke-width="3.01709" stroke-linecap="round"/>
<path d="M52.5312 84.4141L34.4287 84.4141" stroke="#9FA2AB" stroke-width="3.01709" stroke-linecap="round"/>
<path d="M69.125 84.4238H129.467" stroke="#9FA2AB" stroke-width="4.52563" stroke-linecap="round"/>
<path d="M155.863 84.4238H216.205" stroke="#9FA2AB" stroke-width="4.52563" stroke-linecap="round"/>
<path d="M264.48 84.4238H281.074" stroke="#9FA2AB" stroke-width="4.52563" stroke-linecap="round"/>
<path d="M290.121 84.4238H306.715" stroke="#9FA2AB" stroke-width="4.52563" stroke-linecap="round"/>
<path d="M315.773 84.4238H332.367" stroke="#9FA2AB" stroke-width="4.52563" stroke-linecap="round"/>
<circle cx="350.47" cy="84.4214" r="3.01709" fill="#9FA2AB"/>
<circle cx="359.513" cy="84.4214" r="3.01709" fill="#9FA2AB"/>
<circle cx="368.568" cy="84.4214" r="3.01709" fill="#9FA2AB"/>
</g>
<g filter="url(#filter3_dddd_381_347)">
<g clip-path="url(#clip1_381_347)">
<rect width="405.258" height="51.9132" rx="10.0477" fill="white"/>
<path d="M25.9609 16.7461V36.8415" stroke="#9FA2AB" stroke-width="3.34924" stroke-linecap="round"/>
<path d="M36.0117 26.7852L15.9163 26.7852" stroke="#9FA2AB" stroke-width="3.34924" stroke-linecap="round"/>
<path d="M284.629 25.7168L298.629 25.7168" stroke="#2CAD84" stroke-width="5.02386" stroke-linecap="round"/>
<path d="M310.629 25.7168L323.629 25.7168" stroke="#2CAD84" stroke-width="5.02386" stroke-linecap="round"/>
<path d="M335.629 25.7168L349.629 25.7168" stroke="#2CAD84" stroke-width="5.02386" stroke-linecap="round"/>
<circle cx="366.744" cy="26.066" r="3.34924" fill="#9FA2AB"/>
<circle cx="376.787" cy="26.066" r="3.34924" fill="#9FA2AB"/>
<circle cx="386.838" cy="26.066" r="3.34924" fill="#9FA2AB"/>
<g filter="url(#filter4_dddd_381_347)">
<rect x="48.6289" y="8.7168" width="66" height="34" rx="3" fill="white"/>
<rect x="48.8789" y="8.9668" width="65.5" height="33.5" rx="2.75" stroke="#DDDDDD" stroke-width="0.5"/>
<path d="M68.5156 20.8718C69.468 20.8718 70.3003 21.0562 71.0124 21.4252C71.7331 21.7855 72.2866 22.3089 72.6727 22.9953C73.0673 23.6731 73.2647 24.4668 73.2647 25.3763C73.2647 26.2857 73.0673 27.0751 72.6727 27.7443C72.2866 28.4136 71.7331 28.9284 71.0124 29.2887C70.3003 29.6405 69.468 29.8164 68.5156 29.8164H65.5942V20.8718H68.5156ZM68.5156 28.6195C69.5624 28.6195 70.3646 28.3364 70.9223 27.7701C71.48 27.2038 71.7589 26.4059 71.7589 25.3763C71.7589 24.3381 71.48 23.5273 70.9223 22.9438C70.3646 22.3604 69.5624 22.0687 68.5156 22.0687H67.0613V28.6195H68.5156ZM81.2181 26.097C81.2181 26.363 81.201 26.6032 81.1667 26.8177H75.7484C75.7913 27.384 76.0015 27.8387 76.379 28.1819C76.7565 28.5251 77.2199 28.6967 77.769 28.6967C78.5583 28.6967 79.116 28.3664 79.4421 27.7057H81.0251C80.8106 28.3578 80.4202 28.8941 79.8539 29.3145C79.2962 29.7263 78.6012 29.9322 77.769 29.9322C77.0912 29.9322 76.482 29.7821 75.9414 29.4818C75.4095 29.1729 74.9891 28.7439 74.6802 28.1948C74.3799 27.6371 74.2297 26.9936 74.2297 26.2643C74.2297 25.535 74.3756 24.8958 74.6673 24.3467C74.9676 23.789 75.3837 23.36 75.9157 23.0597C76.4562 22.7594 77.074 22.6092 77.769 22.6092C78.4382 22.6092 79.0345 22.7551 79.5579 23.0468C80.0813 23.3385 80.4888 23.7503 80.7806 24.2823C81.0723 24.8057 81.2181 25.4106 81.2181 26.097ZM79.6866 25.6337C79.678 25.0931 79.485 24.6598 79.1075 24.3338C78.7299 24.0077 78.2623 23.8447 77.7046 23.8447C77.1984 23.8447 76.7651 24.0077 76.4048 24.3338C76.0444 24.6512 75.8299 25.0845 75.7613 25.6337H79.6866ZM85.4033 28.5037L87.411 22.725H88.9683L86.2656 29.8164H84.5153L81.8254 22.725H83.3956L85.4033 28.5037ZM90.8238 21.7855C90.5578 21.7855 90.3347 21.6954 90.1545 21.5153C89.9744 21.3351 89.8843 21.112 89.8843 20.846C89.8843 20.58 89.9744 20.357 90.1545 20.1768C90.3347 19.9966 90.5578 19.9065 90.8238 19.9065C91.0812 19.9065 91.3 19.9966 91.4802 20.1768C91.6603 20.357 91.7504 20.58 91.7504 20.846C91.7504 21.112 91.6603 21.3351 91.4802 21.5153C91.3 21.6954 91.0812 21.7855 90.8238 21.7855ZM91.5445 22.725V29.8164H90.0773V22.725H91.5445ZM96.0448 29.9322C95.4871 29.9322 94.9851 29.8336 94.539 29.6362C94.1014 29.4303 93.7539 29.1557 93.4965 28.8125C93.2391 28.4608 93.1018 28.0704 93.0847 27.6414H94.6033C94.6291 27.9417 94.7706 28.1948 95.028 28.4007C95.294 28.598 95.6244 28.6967 96.019 28.6967C96.4309 28.6967 96.7483 28.6195 96.9714 28.4651C97.2031 28.302 97.3189 28.0961 97.3189 27.8473C97.3189 27.5813 97.1902 27.384 96.9328 27.2553C96.684 27.1266 96.285 26.985 95.7359 26.8306C95.2039 26.6847 94.7706 26.5431 94.436 26.4059C94.1014 26.2686 93.8097 26.0584 93.5609 25.7752C93.3206 25.4921 93.2005 25.1189 93.2005 24.6555C93.2005 24.278 93.312 23.9348 93.5351 23.6259C93.7582 23.3085 94.0757 23.0597 94.4875 22.8795C94.9079 22.6993 95.3884 22.6092 95.9289 22.6092C96.7355 22.6092 97.3833 22.8151 97.8723 23.227C98.37 23.6302 98.6359 24.1836 98.6703 24.8872H97.2031C97.1773 24.5697 97.0486 24.3166 96.817 24.1279C96.5853 23.9391 96.2721 23.8447 95.8775 23.8447C95.4914 23.8447 95.1954 23.9177 94.9894 24.0635C94.7835 24.2094 94.6806 24.4024 94.6806 24.6427C94.6806 24.8314 94.7492 24.9902 94.8865 25.1189C95.0238 25.2476 95.1911 25.3505 95.3884 25.4277C95.5857 25.4964 95.8775 25.5865 96.2636 25.698C96.7784 25.8353 97.1988 25.9769 97.5248 26.1227C97.8594 26.26 98.1469 26.4659 98.3871 26.7405C98.6274 27.015 98.7518 27.3797 98.7604 27.8344C98.7604 28.2377 98.6488 28.598 98.4257 28.9155C98.2026 29.233 97.8852 29.4818 97.4733 29.662C97.0701 29.8421 96.5939 29.9322 96.0448 29.9322Z" fill="#141414"/>
</g>
<g filter="url(#filter5_dddd_381_347)">
<rect x="127.629" y="8.7168" width="66" height="34" rx="3" fill="white"/>
<rect x="127.879" y="8.9668" width="65.5" height="33.5" rx="2.75" stroke="#DDDDDD" stroke-width="0.5"/>
<path d="M146.629 25.7168H174.629" stroke="#9FA2AB" stroke-width="4" stroke-linecap="round"/>
</g>
<g filter="url(#filter6_dddd_381_347)">
<rect x="205.629" y="8.7168" width="66" height="34" rx="3" fill="white"/>
<rect x="205.879" y="8.9668" width="65.5" height="33.5" rx="2.75" stroke="#DDDDDD" stroke-width="0.5"/>
<path d="M224.629 25.7168H252.629" stroke="#9FA2AB" stroke-width="4" stroke-linecap="round"/>
</g>
</g>
<rect x="0.5" y="0.5" width="404.258" height="50.9132" rx="9.54772" stroke="#EBEBEB"/>
</g>
<g filter="url(#filter7_dddd_381_347)">
<rect x="317.629" y="53.7168" width="87.0101" height="87.8388" rx="5" fill="white"/>
<rect x="317.976" y="54.0637" width="86.3163" height="87.1449" rx="4.65307" stroke="#EBEBEB" stroke-width="0.693852"/>
<path d="M329.898 86.1035H392.345" stroke="#9FA2AB" stroke-width="3.23415" stroke-linecap="round"/>
<path d="M329.898 103.104H368.754" stroke="#FEC783" stroke-width="3.23415" stroke-linecap="round"/>
<path d="M329.898 69.1035H375.693" stroke="#9FA2AB" stroke-width="3.23415" stroke-linecap="round"/>
<rect x="325.629" y="116.717" width="71" height="18" rx="2" fill="#141414"/>
<path d="M350.09 123.816V125.842H352.299V126.495H350.09V128.582H352.56V129.234H349.299V123.164H352.56V123.816H350.09ZM353.462 126.834C353.462 126.347 353.56 125.921 353.758 125.555C353.955 125.184 354.224 124.897 354.566 124.694C354.914 124.492 355.303 124.39 355.732 124.39C356.103 124.39 356.448 124.477 356.767 124.651C357.086 124.819 357.329 125.042 357.497 125.321V122.798H358.298V129.234H357.497V128.339C357.341 128.623 357.109 128.857 356.802 129.043C356.494 129.223 356.135 129.313 355.723 129.313C355.3 129.313 354.914 129.208 354.566 129C354.224 128.791 353.955 128.498 353.758 128.121C353.56 127.744 353.462 127.315 353.462 126.834ZM357.497 126.843C357.497 126.483 357.425 126.17 357.28 125.903C357.135 125.637 356.938 125.434 356.689 125.295C356.445 125.15 356.175 125.077 355.88 125.077C355.584 125.077 355.314 125.147 355.071 125.286C354.827 125.425 354.633 125.628 354.488 125.895C354.343 126.161 354.271 126.474 354.271 126.834C354.271 127.199 354.343 127.518 354.488 127.791C354.633 128.057 354.827 128.263 355.071 128.408C355.314 128.547 355.584 128.617 355.88 128.617C356.175 128.617 356.445 128.547 356.689 128.408C356.938 128.263 357.135 128.057 357.28 127.791C357.425 127.518 357.497 127.202 357.497 126.843ZM360.044 123.694C359.893 123.694 359.765 123.642 359.661 123.538C359.557 123.433 359.505 123.306 359.505 123.155C359.505 123.004 359.557 122.877 359.661 122.772C359.765 122.668 359.893 122.616 360.044 122.616C360.189 122.616 360.31 122.668 360.409 122.772C360.513 122.877 360.566 123.004 360.566 123.155C360.566 123.306 360.513 123.433 360.409 123.538C360.31 123.642 360.189 123.694 360.044 123.694ZM360.426 124.468V129.234H359.635V124.468H360.426ZM362.741 125.121V127.93C362.741 128.162 362.79 128.327 362.889 128.426C362.987 128.518 363.158 128.565 363.402 128.565H363.984V129.234H363.271C362.831 129.234 362.5 129.133 362.28 128.93C362.059 128.727 361.949 128.394 361.949 127.93V125.121H361.332V124.468H361.949V123.268H362.741V124.468H363.984V125.121H362.741ZM369.292 126.669C369.292 126.819 369.283 126.979 369.266 127.147H365.456C365.485 127.617 365.645 127.985 365.935 128.252C366.231 128.513 366.587 128.643 367.005 128.643C367.347 128.643 367.631 128.565 367.857 128.408C368.089 128.246 368.251 128.031 368.344 127.765H369.196C369.069 128.223 368.814 128.597 368.431 128.886C368.048 129.171 367.573 129.313 367.005 129.313C366.552 129.313 366.146 129.211 365.787 129.008C365.433 128.805 365.155 128.518 364.952 128.147C364.749 127.77 364.648 127.335 364.648 126.843C364.648 126.35 364.746 125.918 364.943 125.547C365.14 125.176 365.416 124.892 365.77 124.694C366.129 124.492 366.541 124.39 367.005 124.39C367.457 124.39 367.857 124.489 368.205 124.686C368.553 124.883 368.819 125.155 369.005 125.503C369.196 125.845 369.292 126.234 369.292 126.669ZM368.474 126.503C368.474 126.202 368.408 125.944 368.274 125.729C368.141 125.509 367.958 125.344 367.726 125.234C367.5 125.118 367.248 125.06 366.97 125.06C366.57 125.06 366.228 125.187 365.944 125.442C365.665 125.698 365.506 126.051 365.465 126.503H368.474ZM371.128 125.242C371.267 124.97 371.464 124.758 371.719 124.607C371.98 124.457 372.296 124.381 372.667 124.381V125.199H372.459C371.572 125.199 371.128 125.68 371.128 126.643V129.234H370.337V124.468H371.128V125.242Z" fill="white"/>
</g>
<g filter="url(#filter8_dddd_381_347)">
<path d="M389.423 130.109C389.094 129.972 388.767 130.308 388.913 130.632L395.883 146.172C396.028 146.495 396.492 146.477 396.611 146.144L398.816 139.994C398.854 139.887 398.937 139.802 399.043 139.76L405.133 137.394C405.462 137.266 405.468 136.801 405.141 136.665L389.423 130.109Z" fill="#141414"/>
<path d="M389.339 130.31C389.192 130.249 389.046 130.398 389.111 130.543L396.081 146.083C396.146 146.227 396.354 146.219 396.407 146.07L398.611 139.921C398.671 139.755 398.8 139.622 398.964 139.558L405.054 137.191C405.201 137.134 405.204 136.926 405.058 136.865L389.339 130.31Z" stroke="white" stroke-width="0.434107"/>
</g>
</g>
<defs>
<filter id="filter0_dddd_381_347" x="40.6289" y="153.691" width="324" height="111.381" filterUnits="userSpaceOnUse" color-interpolation-filters="sRGB">
<feFlood flood-opacity="0" result="BackgroundImageFix"/>
<feColorMatrix in="SourceAlpha" type="matrix" values="0 0 0 0 0 0 0 0 0 0 0 0 0 0 0 0 0 0 127 0" result="hardAlpha"/>
<feOffset dy="3"/>
<feGaussianBlur stdDeviation="3.5"/>
<feColorMatrix type="matrix" values="0 0 0 0 0.286275 0 0 0 0 0.317647 0 0 0 0 0.454902 0 0 0 0.1 0"/>
<feBlend mode="normal" in2="BackgroundImageFix" result="effect1_dropShadow_381_347"/>
<feColorMatrix in="SourceAlpha" type="matrix" values="0 0 0 0 0 0 0 0 0 0 0 0 0 0 0 0 0 0 127 0" result="hardAlpha"/>
<feOffset dy="13"/>
<feGaussianBlur stdDeviation="6.5"/>
<feColorMatrix type="matrix" values="0 0 0 0 0.286275 0 0 0 0 0.317647 0 0 0 0 0.454902 0 0 0 0.09 0"/>
<feBlend mode="normal" in2="effect1_dropShadow_381_347" result="effect2_dropShadow_381_347"/>
<feColorMatrix in="SourceAlpha" type="matrix" values="0 0 0 0 0 0 0 0 0 0 0 0 0 0 0 0 0 0 127 0" result="hardAlpha"/>
<feOffset dy="29"/>
<feGaussianBlur stdDeviation="8.5"/>
<feColorMatrix type="matrix" values="0 0 0 0 0.286275 0 0 0 0 0.317647 0 0 0 0 0.454902 0 0 0 0.05 0"/>
<feBlend mode="normal" in2="effect2_dropShadow_381_347" result="effect3_dropShadow_381_347"/>
<feColorMatrix in="SourceAlpha" type="matrix" values="0 0 0 0 0 0 0 0 0 0 0 0 0 0 0 0 0 0 127 0" result="hardAlpha"/>
<feOffset dy="51"/>
<feGaussianBlur stdDeviation="10"/>
<feColorMatrix type="matrix" values="0 0 0 0 0.286275 0 0 0 0 0.317647 0 0 0 0 0.454902 0 0 0 0.01 0"/>
<feBlend mode="normal" in2="effect3_dropShadow_381_347" result="effect4_dropShadow_381_347"/>
<feBlend mode="normal" in="SourceGraphic" in2="effect4_dropShadow_381_347" result="shape"/>
</filter>
<filter id="filter1_dddd_381_347" x="22.6289" y="108.6" width="360" height="124.223" filterUnits="userSpaceOnUse" color-interpolation-filters="sRGB">
<feFlood flood-opacity="0" result="BackgroundImageFix"/>
<feColorMatrix in="SourceAlpha" type="matrix" values="0 0 0 0 0 0 0 0 0 0 0 0 0 0 0 0 0 0 127 0" result="hardAlpha"/>
<feOffset dy="4"/>
<feGaussianBlur stdDeviation="4"/>
<feColorMatrix type="matrix" values="0 0 0 0 0.286275 0 0 0 0 0.317647 0 0 0 0 0.454902 0 0 0 0.1 0"/>
<feBlend mode="normal" in2="BackgroundImageFix" result="effect1_dropShadow_381_347"/>
<feColorMatrix in="SourceAlpha" type="matrix" values="0 0 0 0 0 0 0 0 0 0 0 0 0 0 0 0 0 0 127 0" result="hardAlpha"/>
<feOffset dy="14"/>
<feGaussianBlur stdDeviation="7"/>
<feColorMatrix type="matrix" values="0 0 0 0 0.286275 0 0 0 0 0.317647 0 0 0 0 0.454902 0 0 0 0.09 0"/>
<feBlend mode="normal" in2="effect1_dropShadow_381_347" result="effect2_dropShadow_381_347"/>
<feColorMatrix in="SourceAlpha" type="matrix" values="0 0 0 0 0 0 0 0 0 0 0 0 0 0 0 0 0 0 127 0" result="hardAlpha"/>
<feOffset dy="32"/>
<feGaussianBlur stdDeviation="9.5"/>
<feColorMatrix type="matrix" values="0 0 0 0 0.286275 0 0 0 0 0.317647 0 0 0 0 0.454902 0 0 0 0.05 0"/>
<feBlend mode="normal" in2="effect2_dropShadow_381_347" result="effect3_dropShadow_381_347"/>
<feColorMatrix in="SourceAlpha" type="matrix" values="0 0 0 0 0 0 0 0 0 0 0 0 0 0 0 0 0 0 127 0" result="hardAlpha"/>
<feOffset dy="57"/>
<feGaussianBlur stdDeviation="11.5"/>
<feColorMatrix type="matrix" values="0 0 0 0 0.286275 0 0 0 0 0.317647 0 0 0 0 0.454902 0 0 0 0.01 0"/>
<feBlend mode="normal" in2="effect3_dropShadow_381_347" result="effect4_dropShadow_381_347"/>
<feBlend mode="normal" in="SourceGraphic" in2="effect4_dropShadow_381_347" result="shape"/>
</filter>
<filter id="filter2_dddd_381_347" x="-5.90625" y="55.2871" width="417.066" height="143.766" filterUnits="userSpaceOnUse" color-interpolation-filters="sRGB">
<feFlood flood-opacity="0" result="BackgroundImageFix"/>
<feColorMatrix in="SourceAlpha" type="matrix" values="0 0 0 0 0 0 0 0 0 0 0 0 0 0 0 0 0 0 127 0" result="hardAlpha"/>
<feOffset dy="4"/>
<feGaussianBlur stdDeviation="4.5"/>
<feColorMatrix type="matrix" values="0 0 0 0 0.286275 0 0 0 0 0.317647 0 0 0 0 0.454902 0 0 0 0.1 0"/>
<feBlend mode="normal" in2="BackgroundImageFix" result="effect1_dropShadow_381_347"/>
<feColorMatrix in="SourceAlpha" type="matrix" values="0 0 0 0 0 0 0 0 0 0 0 0 0 0 0 0 0 0 127 0" result="hardAlpha"/>
<feOffset dy="16"/>
<feGaussianBlur stdDeviation="8"/>
<feColorMatrix type="matrix" values="0 0 0 0 0.286275 0 0 0 0 0.317647 0 0 0 0 0.454902 0 0 0 0.09 0"/>
<feBlend mode="normal" in2="effect1_dropShadow_381_347" result="effect2_dropShadow_381_347"/>
<feColorMatrix in="SourceAlpha" type="matrix" values="0 0 0 0 0 0 0 0 0 0 0 0 0 0 0 0 0 0 127 0" result="hardAlpha"/>
<feOffset dy="37"/>
<feGaussianBlur stdDeviation="11"/>
<feColorMatrix type="matrix" values="0 0 0 0 0.286275 0 0 0 0 0.317647 0 0 0 0 0.454902 0 0 0 0.05 0"/>
<feBlend mode="normal" in2="effect2_dropShadow_381_347" result="effect3_dropShadow_381_347"/>
<feColorMatrix in="SourceAlpha" type="matrix" values="0 0 0 0 0 0 0 0 0 0 0 0 0 0 0 0 0 0 127 0" result="hardAlpha"/>
<feOffset dy="66"/>
<feGaussianBlur stdDeviation="13"/>
<feColorMatrix type="matrix" values="0 0 0 0 0.286275 0 0 0 0 0.317647 0 0 0 0 0.454902 0 0 0 0.01 0"/>
<feBlend mode="normal" in2="effect3_dropShadow_381_347" result="effect4_dropShadow_381_347"/>
<feBlend mode="normal" in="SourceGraphic" in2="effect4_dropShadow_381_347" result="shape"/>
</filter>
<filter id="filter3_dddd_381_347" x="-29" y="-5" width="463.258" height="158.914" filterUnits="userSpaceOnUse" color-interpolation-filters="sRGB">
<feFlood flood-opacity="0" result="BackgroundImageFix"/>
<feColorMatrix in="SourceAlpha" type="matrix" values="0 0 0 0 0 0 0 0 0 0 0 0 0 0 0 0 0 0 127 0" result="hardAlpha"/>
<feOffset dy="5"/>
<feGaussianBlur stdDeviation="5"/>
<feColorMatrix type="matrix" values="0 0 0 0 0.286275 0 0 0 0 0.317647 0 0 0 0 0.454902 0 0 0 0.1 0"/>
<feBlend mode="normal" in2="BackgroundImageFix" result="effect1_dropShadow_381_347"/>
<feColorMatrix in="SourceAlpha" type="matrix" values="0 0 0 0 0 0 0 0 0 0 0 0 0 0 0 0 0 0 127 0" result="hardAlpha"/>
<feOffset dy="18"/>
<feGaussianBlur stdDeviation="9"/>
<feColorMatrix type="matrix" values="0 0 0 0 0.286275 0 0 0 0 0.317647 0 0 0 0 0.454902 0 0 0 0.09 0"/>
<feBlend mode="normal" in2="effect1_dropShadow_381_347" result="effect2_dropShadow_381_347"/>
<feColorMatrix in="SourceAlpha" type="matrix" values="0 0 0 0 0 0 0 0 0 0 0 0 0 0 0 0 0 0 127 0" result="hardAlpha"/>
<feOffset dy="41"/>
<feGaussianBlur stdDeviation="12.5"/>
<feColorMatrix type="matrix" values="0 0 0 0 0.286275 0 0 0 0 0.317647 0 0 0 0 0.454902 0 0 0 0.05 0"/>
<feBlend mode="normal" in2="effect2_dropShadow_381_347" result="effect3_dropShadow_381_347"/>
<feColorMatrix in="SourceAlpha" type="matrix" values="0 0 0 0 0 0 0 0 0 0 0 0 0 0 0 0 0 0 127 0" result="hardAlpha"/>
<feOffset dy="73"/>
<feGaussianBlur stdDeviation="14.5"/>
<feColorMatrix type="matrix" values="0 0 0 0 0.286275 0 0 0 0 0.317647 0 0 0 0 0.454902 0 0 0 0.01 0"/>
<feBlend mode="normal" in2="effect3_dropShadow_381_347" result="effect4_dropShadow_381_347"/>
<feBlend mode="normal" in="SourceGraphic" in2="effect4_dropShadow_381_347" result="shape"/>
</filter>
<filter id="filter4_dddd_381_347" x="43.6289" y="7.7168" width="76" height="52" filterUnits="userSpaceOnUse" color-interpolation-filters="sRGB">
<feFlood flood-opacity="0" result="BackgroundImageFix"/>
<feColorMatrix in="SourceAlpha" type="matrix" values="0 0 0 0 0 0 0 0 0 0 0 0 0 0 0 0 0 0 127 0" result="hardAlpha"/>
<feOffset dy="1"/>
<feGaussianBlur stdDeviation="1"/>
<feColorMatrix type="matrix" values="0 0 0 0 0.286275 0 0 0 0 0.317647 0 0 0 0 0.454902 0 0 0 0.1 0"/>
<feBlend mode="normal" in2="BackgroundImageFix" result="effect1_dropShadow_381_347"/>
<feColorMatrix in="SourceAlpha" type="matrix" values="0 0 0 0 0 0 0 0 0 0 0 0 0 0 0 0 0 0 127 0" result="hardAlpha"/>
<feOffset dy="3"/>
<feGaussianBlur stdDeviation="1.5"/>
<feColorMatrix type="matrix" values="0 0 0 0 0.286275 0 0 0 0 0.317647 0 0 0 0 0.454902 0 0 0 0.09 0"/>
<feBlend mode="normal" in2="effect1_dropShadow_381_347" result="effect2_dropShadow_381_347"/>
<feColorMatrix in="SourceAlpha" type="matrix" values="0 0 0 0 0 0 0 0 0 0 0 0 0 0 0 0 0 0 127 0" result="hardAlpha"/>
<feOffset dy="7"/>
<feGaussianBlur stdDeviation="2"/>
<feColorMatrix type="matrix" values="0 0 0 0 0.286275 0 0 0 0 0.317647 0 0 0 0 0.454902 0 0 0 0.05 0"/>
<feBlend mode="normal" in2="effect2_dropShadow_381_347" result="effect3_dropShadow_381_347"/>
<feColorMatrix in="SourceAlpha" type="matrix" values="0 0 0 0 0 0 0 0 0 0 0 0 0 0 0 0 0 0 127 0" result="hardAlpha"/>
<feOffset dy="12"/>
<feGaussianBlur stdDeviation="2.5"/>
<feColorMatrix type="matrix" values="0 0 0 0 0.286275 0 0 0 0 0.317647 0 0 0 0 0.454902 0 0 0 0.01 0"/>
<feBlend mode="normal" in2="effect3_dropShadow_381_347" result="effect4_dropShadow_381_347"/>
<feBlend mode="normal" in="SourceGraphic" in2="effect4_dropShadow_381_347" result="shape"/>
</filter>
<filter id="filter5_dddd_381_347" x="122.629" y="7.7168" width="76" height="52" filterUnits="userSpaceOnUse" color-interpolation-filters="sRGB">
<feFlood flood-opacity="0" result="BackgroundImageFix"/>
<feColorMatrix in="SourceAlpha" type="matrix" values="0 0 0 0 0 0 0 0 0 0 0 0 0 0 0 0 0 0 127 0" result="hardAlpha"/>
<feOffset dy="1"/>
<feGaussianBlur stdDeviation="1"/>
<feColorMatrix type="matrix" values="0 0 0 0 0.286275 0 0 0 0 0.317647 0 0 0 0 0.454902 0 0 0 0.1 0"/>
<feBlend mode="normal" in2="BackgroundImageFix" result="effect1_dropShadow_381_347"/>
<feColorMatrix in="SourceAlpha" type="matrix" values="0 0 0 0 0 0 0 0 0 0 0 0 0 0 0 0 0 0 127 0" result="hardAlpha"/>
<feOffset dy="3"/>
<feGaussianBlur stdDeviation="1.5"/>
<feColorMatrix type="matrix" values="0 0 0 0 0.286275 0 0 0 0 0.317647 0 0 0 0 0.454902 0 0 0 0.09 0"/>
<feBlend mode="normal" in2="effect1_dropShadow_381_347" result="effect2_dropShadow_381_347"/>
<feColorMatrix in="SourceAlpha" type="matrix" values="0 0 0 0 0 0 0 0 0 0 0 0 0 0 0 0 0 0 127 0" result="hardAlpha"/>
<feOffset dy="7"/>
<feGaussianBlur stdDeviation="2"/>
<feColorMatrix type="matrix" values="0 0 0 0 0.286275 0 0 0 0 0.317647 0 0 0 0 0.454902 0 0 0 0.05 0"/>
<feBlend mode="normal" in2="effect2_dropShadow_381_347" result="effect3_dropShadow_381_347"/>
<feColorMatrix in="SourceAlpha" type="matrix" values="0 0 0 0 0 0 0 0 0 0 0 0 0 0 0 0 0 0 127 0" result="hardAlpha"/>
<feOffset dy="12"/>
<feGaussianBlur stdDeviation="2.5"/>
<feColorMatrix type="matrix" values="0 0 0 0 0.286275 0 0 0 0 0.317647 0 0 0 0 0.454902 0 0 0 0.01 0"/>
<feBlend mode="normal" in2="effect3_dropShadow_381_347" result="effect4_dropShadow_381_347"/>
<feBlend mode="normal" in="SourceGraphic" in2="effect4_dropShadow_381_347" result="shape"/>
</filter>
<filter id="filter6_dddd_381_347" x="200.629" y="7.7168" width="76" height="52" filterUnits="userSpaceOnUse" color-interpolation-filters="sRGB">
<feFlood flood-opacity="0" result="BackgroundImageFix"/>
<feColorMatrix in="SourceAlpha" type="matrix" values="0 0 0 0 0 0 0 0 0 0 0 0 0 0 0 0 0 0 127 0" result="hardAlpha"/>
<feOffset dy="1"/>
<feGaussianBlur stdDeviation="1"/>
<feColorMatrix type="matrix" values="0 0 0 0 0.286275 0 0 0 0 0.317647 0 0 0 0 0.454902 0 0 0 0.1 0"/>
<feBlend mode="normal" in2="BackgroundImageFix" result="effect1_dropShadow_381_347"/>
<feColorMatrix in="SourceAlpha" type="matrix" values="0 0 0 0 0 0 0 0 0 0 0 0 0 0 0 0 0 0 127 0" result="hardAlpha"/>
<feOffset dy="3"/>
<feGaussianBlur stdDeviation="1.5"/>
<feColorMatrix type="matrix" values="0 0 0 0 0.286275 0 0 0 0 0.317647 0 0 0 0 0.454902 0 0 0 0.09 0"/>
<feBlend mode="normal" in2="effect1_dropShadow_381_347" result="effect2_dropShadow_381_347"/>
<feColorMatrix in="SourceAlpha" type="matrix" values="0 0 0 0 0 0 0 0 0 0 0 0 0 0 0 0 0 0 127 0" result="hardAlpha"/>
<feOffset dy="7"/>
<feGaussianBlur stdDeviation="2"/>
<feColorMatrix type="matrix" values="0 0 0 0 0.286275 0 0 0 0 0.317647 0 0 0 0 0.454902 0 0 0 0.05 0"/>
<feBlend mode="normal" in2="effect2_dropShadow_381_347" result="effect3_dropShadow_381_347"/>
<feColorMatrix in="SourceAlpha" type="matrix" values="0 0 0 0 0 0 0 0 0 0 0 0 0 0 0 0 0 0 127 0" result="hardAlpha"/>
<feOffset dy="12"/>
<feGaussianBlur stdDeviation="2.5"/>
<feColorMatrix type="matrix" values="0 0 0 0 0.286275 0 0 0 0 0.317647 0 0 0 0 0.454902 0 0 0 0.01 0"/>
<feBlend mode="normal" in2="effect3_dropShadow_381_347" result="effect4_dropShadow_381_347"/>
<feBlend mode="normal" in="SourceGraphic" in2="effect4_dropShadow_381_347" result="shape"/>
</filter>
<filter id="filter7_dddd_381_347" x="311" y="52.0595" width="100.27" height="112.698" filterUnits="userSpaceOnUse" color-interpolation-filters="sRGB">
<feFlood flood-opacity="0" result="BackgroundImageFix"/>
<feColorMatrix in="SourceAlpha" type="matrix" values="0 0 0 0 0 0 0 0 0 0 0 0 0 0 0 0 0 0 127 0" result="hardAlpha"/>
<feOffset dy="0.828668"/>
<feGaussianBlur stdDeviation="1.243"/>
<feColorMatrix type="matrix" values="0 0 0 0 0.286275 0 0 0 0 0.317647 0 0 0 0 0.454902 0 0 0 0.1 0"/>
<feBlend mode="normal" in2="BackgroundImageFix" result="effect1_dropShadow_381_347"/>
<feColorMatrix in="SourceAlpha" type="matrix" values="0 0 0 0 0 0 0 0 0 0 0 0 0 0 0 0 0 0 127 0" result="hardAlpha"/>
<feOffset dy="4.14334"/>
<feGaussianBlur stdDeviation="2.07167"/>
<feColorMatrix type="matrix" values="0 0 0 0 0.286275 0 0 0 0 0.317647 0 0 0 0 0.454902 0 0 0 0.09 0"/>
<feBlend mode="normal" in2="effect1_dropShadow_381_347" result="effect2_dropShadow_381_347"/>
<feColorMatrix in="SourceAlpha" type="matrix" values="0 0 0 0 0 0 0 0 0 0 0 0 0 0 0 0 0 0 127 0" result="hardAlpha"/>
<feOffset dy="9.11535"/>
<feGaussianBlur stdDeviation="2.90034"/>
<feColorMatrix type="matrix" values="0 0 0 0 0.286275 0 0 0 0 0.317647 0 0 0 0 0.454902 0 0 0 0.05 0"/>
<feBlend mode="normal" in2="effect2_dropShadow_381_347" result="effect3_dropShadow_381_347"/>
<feColorMatrix in="SourceAlpha" type="matrix" values="0 0 0 0 0 0 0 0 0 0 0 0 0 0 0 0 0 0 127 0" result="hardAlpha"/>
<feOffset dy="16.5734"/>
<feGaussianBlur stdDeviation="3.31467"/>
<feColorMatrix type="matrix" values="0 0 0 0 0.286275 0 0 0 0 0.317647 0 0 0 0 0.454902 0 0 0 0.01 0"/>
<feBlend mode="normal" in2="effect3_dropShadow_381_347" result="effect4_dropShadow_381_347"/>
<feBlend mode="normal" in="SourceGraphic" in2="effect4_dropShadow_381_347" result="shape"/>
</filter>
<filter id="filter8_dddd_381_347" x="385.245" y="129.715" width="21.5912" height="25.4107" filterUnits="userSpaceOnUse" color-interpolation-filters="sRGB">
<feFlood flood-opacity="0" result="BackgroundImageFix"/>
<feColorMatrix in="SourceAlpha" type="matrix" values="0 0 0 0 0 0 0 0 0 0 0 0 0 0 0 0 0 0 127 0" result="hardAlpha"/>
<feOffset dy="0.363381"/>
<feGaussianBlur stdDeviation="0.363381"/>
<feColorMatrix type="matrix" values="0 0 0 0 0 0 0 0 0 0 0 0 0 0 0 0 0 0 0.15 0"/>
<feBlend mode="normal" in2="BackgroundImageFix" result="effect1_dropShadow_381_347"/>
<feColorMatrix in="SourceAlpha" type="matrix" values="0 0 0 0 0 0 0 0 0 0 0 0 0 0 0 0 0 0 127 0" result="hardAlpha"/>
<feOffset dx="-0.363381" dy="1.45352"/>
<feGaussianBlur stdDeviation="0.726762"/>
<feColorMatrix type="matrix" values="0 0 0 0 0 0 0 0 0 0 0 0 0 0 0 0 0 0 0.13 0"/>
<feBlend mode="normal" in2="effect1_dropShadow_381_347" result="effect2_dropShadow_381_347"/>
<feColorMatrix in="SourceAlpha" type="matrix" values="0 0 0 0 0 0 0 0 0 0 0 0 0 0 0 0 0 0 127 0" result="hardAlpha"/>
<feOffset dx="-0.726762" dy="3.27043"/>
<feGaussianBlur stdDeviation="1.09014"/>
<feColorMatrix type="matrix" values="0 0 0 0 0 0 0 0 0 0 0 0 0 0 0 0 0 0 0.08 0"/>
<feBlend mode="normal" in2="effect2_dropShadow_381_347" result="effect3_dropShadow_381_347"/>
<feColorMatrix in="SourceAlpha" type="matrix" values="0 0 0 0 0 0 0 0 0 0 0 0 0 0 0 0 0 0 127 0" result="hardAlpha"/>
<feOffset dx="-1.09014" dy="6.17748"/>
<feGaussianBlur stdDeviation="1.27183"/>
<feColorMatrix type="matrix" values="0 0 0 0 0 0 0 0 0 0 0 0 0 0 0 0 0 0 0.02 0"/>
<feBlend mode="normal" in2="effect3_dropShadow_381_347" result="effect4_dropShadow_381_347"/>
<feBlend mode="normal" in="SourceGraphic" in2="effect4_dropShadow_381_347" result="shape"/>
</filter>
<clipPath id="clip0_381_347">
<rect width="406.041" height="236.184" fill="white"/>
</clipPath>
<clipPath id="clip1_381_347">
<rect width="405.258" height="51.9132" rx="10.0477" fill="white"/>
</clipPath>
</defs>
</svg>
