<svg width="379" height="347" viewBox="0 0 379 347" fill="none" xmlns="http://www.w3.org/2000/svg">
<g filter="url(#filter0_dddd_362_203)">
<g clip-path="url(#clip0_362_203)">
<rect x="25" y="5" width="329" height="258" rx="38" fill="white"/>
<ellipse cx="313" cy="34.5" rx="98" ry="112.5" fill="#FFC782"/>
<g clip-path="url(#clip1_362_203)">
<rect x="87" y="16" width="257" height="238" rx="25" fill="white"/>
<g clip-path="url(#clip2_362_203)">
<g filter="url(#filter1_dddd_362_203)">
<rect x="108" y="39" width="31" height="31" rx="15.5" fill="url(#paint0_linear_362_203)"/>
<rect x="108.75" y="39.75" width="29.5" height="29.5" rx="14.75" stroke="url(#paint1_linear_362_203)" stroke-width="1.5"/>
<path d="M121.896 59C121.806 59.0001 121.716 58.9819 121.633 58.9464C121.549 58.911 121.473 58.8589 121.41 58.7932L118.201 55.4993C118.072 55.3669 118 55.1874 118 55.0002C118 54.8129 118.072 54.6334 118.201 54.501C118.33 54.3686 118.505 54.2942 118.688 54.2942C118.87 54.2942 119.045 54.3686 119.174 54.5009L121.896 57.2958L127.826 51.2068C127.955 51.0744 128.13 51 128.312 51C128.495 51 128.67 51.0744 128.799 51.2068C128.928 51.3391 129 51.5187 129 51.7059C129 51.8931 128.928 52.0727 128.799 52.2051L122.382 58.7932C122.318 58.8589 122.242 58.911 122.159 58.9464C122.076 58.9819 121.986 59.0001 121.896 59Z" fill="#17A25F"/>
</g>
</g>
<rect x="102" y="33" width="43" height="43" rx="21.5" stroke="#DDDDDD" stroke-width="2"/>
<g clip-path="url(#clip3_362_203)">
<g filter="url(#filter2_dddd_362_203)">
<rect x="108" y="89" width="31" height="31" rx="15.5" fill="url(#paint2_linear_362_203)"/>
<rect x="108.75" y="89.75" width="29.5" height="29.5" rx="14.75" stroke="url(#paint3_linear_362_203)" stroke-width="1.5"/>
<path d="M121.896 109C121.806 109 121.716 108.982 121.633 108.946C121.549 108.911 121.473 108.859 121.41 108.793L118.201 105.499C118.072 105.367 118 105.187 118 105C118 104.813 118.072 104.633 118.201 104.501C118.33 104.369 118.505 104.294 118.688 104.294C118.87 104.294 119.045 104.369 119.174 104.501L121.896 107.296L127.826 101.207C127.955 101.074 128.13 101 128.312 101C128.495 101 128.67 101.074 128.799 101.207C128.928 101.339 129 101.519 129 101.706C129 101.893 128.928 102.073 128.799 102.205L122.382 108.793C122.318 108.859 122.242 108.911 122.159 108.946C122.076 108.982 121.986 109 121.896 109Z" fill="#17A25F"/>
</g>
</g>
<rect x="102" y="83" width="43" height="43" rx="21.5" stroke="#DDDDDD" stroke-width="2"/>
<g clip-path="url(#clip4_362_203)">
<g filter="url(#filter3_dddd_362_203)">
<rect x="108" y="139" width="31" height="31" rx="15.5" stroke="#FFC782" stroke-width="4"/>
</g>
<g filter="url(#filter4_dddd_362_203)">
<rect x="118" y="149" width="11" height="11" rx="5.5" fill="#FFC782"/>
</g>
</g>
<rect x="102" y="133" width="43" height="43" rx="21.5" stroke="#DDDDDD" stroke-width="2"/>
<path d="M89 194L344 194" stroke="#DDDDDD" stroke-linecap="round"/>
<path d="M158.5 148H200" stroke="#DDDDDD" stroke-width="6" stroke-linecap="round"/>
<path d="M159 99H200.5" stroke="#DDDDDD" stroke-width="6" stroke-linecap="round"/>
<path d="M159 159H253" stroke="#DDDDDD" stroke-width="6" stroke-linecap="round"/>
<path d="M160 110H319" stroke="#DDDDDD" stroke-width="6" stroke-linecap="round"/>
<rect x="100" y="204" width="231" height="38" rx="19" fill="#141414"/>
<path d="M202.099 228H199.039V218.545H202.196C203.123 218.545 203.918 218.735 204.583 219.113C205.248 219.489 205.757 220.029 206.111 220.734C206.468 221.435 206.647 222.277 206.647 223.259C206.647 224.244 206.467 225.09 206.107 225.798C205.75 226.506 205.232 227.051 204.555 227.432C203.878 227.811 203.06 228 202.099 228ZM200.465 226.754H202.021C202.741 226.754 203.34 226.618 203.817 226.347C204.294 226.073 204.651 225.678 204.888 225.161C205.125 224.641 205.243 224.007 205.243 223.259C205.243 222.517 205.125 221.888 204.888 221.371C204.654 220.854 204.305 220.461 203.84 220.194C203.375 219.926 202.798 219.792 202.109 219.792H200.465V226.754ZM211.366 228.143C210.667 228.143 210.066 227.994 209.561 227.695C209.059 227.394 208.671 226.971 208.397 226.426C208.127 225.878 207.991 225.236 207.991 224.501C207.991 223.774 208.127 223.134 208.397 222.58C208.671 222.026 209.053 221.594 209.542 221.283C210.035 220.972 210.61 220.817 211.269 220.817C211.669 220.817 212.057 220.883 212.432 221.015C212.808 221.148 213.145 221.355 213.443 221.638C213.742 221.922 213.977 222.289 214.15 222.742C214.322 223.191 214.408 223.737 214.408 224.381V224.87H208.771V223.836H213.055C213.055 223.473 212.982 223.151 212.834 222.871C212.686 222.588 212.478 222.365 212.211 222.202C211.946 222.039 211.635 221.957 211.278 221.957C210.89 221.957 210.552 222.052 210.263 222.243C209.976 222.431 209.755 222.677 209.598 222.982C209.444 223.283 209.367 223.611 209.367 223.965V224.773C209.367 225.247 209.45 225.65 209.616 225.983C209.785 226.315 210.021 226.569 210.323 226.744C210.624 226.917 210.977 227.003 211.38 227.003C211.641 227.003 211.88 226.966 212.095 226.892C212.311 226.815 212.497 226.701 212.654 226.55C212.811 226.4 212.931 226.213 213.014 225.992L214.32 226.227C214.216 226.612 214.028 226.949 213.757 227.238C213.489 227.525 213.152 227.748 212.746 227.908C212.343 228.065 211.883 228.143 211.366 228.143ZM221.803 220.909L219.231 228H217.754L215.178 220.909H216.66L218.456 226.366H218.529L220.321 220.909H221.803ZM223.1 228V220.909H224.48V228H223.1ZM223.797 219.815C223.557 219.815 223.351 219.735 223.178 219.575C223.009 219.412 222.924 219.218 222.924 218.993C222.924 218.766 223.009 218.572 223.178 218.412C223.351 218.248 223.557 218.167 223.797 218.167C224.037 218.167 224.242 218.248 224.411 218.412C224.583 218.572 224.669 218.766 224.669 218.993C224.669 219.218 224.583 219.412 224.411 219.575C224.242 219.735 224.037 219.815 223.797 219.815ZM231.651 222.64L230.4 222.862C230.347 222.702 230.264 222.549 230.15 222.405C230.04 222.26 229.889 222.142 229.698 222.049C229.507 221.957 229.269 221.911 228.982 221.911C228.591 221.911 228.265 221.999 228.004 222.174C227.742 222.346 227.611 222.569 227.611 222.843C227.611 223.08 227.699 223.271 227.874 223.416C228.05 223.56 228.333 223.679 228.724 223.771L229.85 224.03C230.503 224.181 230.989 224.413 231.309 224.727C231.629 225.041 231.789 225.449 231.789 225.95C231.789 226.375 231.666 226.754 231.42 227.086C231.177 227.415 230.837 227.674 230.4 227.862C229.966 228.049 229.462 228.143 228.89 228.143C228.096 228.143 227.448 227.974 226.946 227.635C226.445 227.294 226.137 226.809 226.023 226.181L227.357 225.978C227.44 226.326 227.611 226.589 227.87 226.767C228.128 226.943 228.465 227.031 228.881 227.031C229.333 227.031 229.695 226.937 229.966 226.749C230.236 226.558 230.372 226.326 230.372 226.052C230.372 225.83 230.289 225.644 230.123 225.493C229.959 225.342 229.709 225.229 229.37 225.152L228.17 224.888C227.508 224.738 227.019 224.498 226.702 224.168C226.388 223.839 226.231 223.422 226.231 222.917C226.231 222.499 226.348 222.132 226.582 221.819C226.816 221.505 227.139 221.26 227.551 221.085C227.964 220.906 228.436 220.817 228.968 220.817C229.735 220.817 230.338 220.983 230.778 221.315C231.218 221.645 231.509 222.086 231.651 222.64Z" fill="white"/>
<path d="M163.062 48H160.145V38.5455H163.192C164.109 38.5455 164.894 38.7347 165.546 39.1133C166.199 39.4888 166.699 40.0289 167.047 40.7337C167.394 41.4354 167.568 42.2756 167.568 43.2543C167.568 44.2391 167.393 45.087 167.042 45.7979C166.691 46.5058 166.18 47.0505 165.509 47.4322C164.838 47.8107 164.023 48 163.062 48ZM161.29 46.9844H162.989C163.77 46.9844 164.418 46.8336 164.932 46.532C165.446 46.2304 165.829 45.801 166.082 45.244C166.334 44.6869 166.46 44.0237 166.46 43.2543C166.46 42.491 166.336 41.8339 166.086 41.283C165.837 40.729 165.465 40.3043 164.969 40.0089C164.474 39.7103 163.857 39.5611 163.118 39.5611H161.29V46.9844ZM172.314 48.1477C171.631 48.1477 171.041 47.9969 170.546 47.6953C170.053 47.3906 169.673 46.9659 169.406 46.4212C169.141 45.8733 169.009 45.2363 169.009 44.5099C169.009 43.7836 169.141 43.1435 169.406 42.5895C169.673 42.0324 170.046 41.5985 170.523 41.2876C171.003 40.9737 171.563 40.8168 172.203 40.8168C172.572 40.8168 172.937 40.8783 173.297 41.0014C173.657 41.1245 173.985 41.3246 174.281 41.6016C174.576 41.8755 174.811 42.2386 174.987 42.6911C175.162 43.1435 175.25 43.7005 175.25 44.3622V44.8239H169.784V43.8821H174.142C174.142 43.482 174.062 43.125 173.902 42.8111C173.745 42.4972 173.52 42.2494 173.228 42.0678C172.939 41.8862 172.597 41.7955 172.203 41.7955C171.769 41.7955 171.394 41.9032 171.077 42.1186C170.763 42.331 170.521 42.608 170.352 42.9496C170.183 43.2912 170.098 43.6574 170.098 44.0483V44.6761C170.098 45.2116 170.19 45.6656 170.375 46.038C170.563 46.4073 170.823 46.6889 171.155 46.8828C171.488 47.0736 171.874 47.169 172.314 47.169C172.6 47.169 172.859 47.129 173.089 47.049C173.323 46.9659 173.525 46.8428 173.694 46.6797C173.864 46.5135 173.994 46.3073 174.087 46.0611L175.139 46.3565C175.028 46.7135 174.842 47.0275 174.581 47.2983C174.319 47.5661 173.996 47.7753 173.611 47.9261C173.226 48.0739 172.794 48.1477 172.314 48.1477ZM182.49 40.9091L179.868 48H178.76L176.138 40.9091H177.319L179.277 46.5597H179.351L181.308 40.9091H182.49ZM183.928 48V40.9091H185.017V48H183.928ZM184.482 39.7273C184.269 39.7273 184.086 39.6549 183.932 39.5103C183.782 39.3656 183.706 39.1918 183.706 38.9886C183.706 38.7855 183.782 38.6116 183.932 38.467C184.086 38.3223 184.269 38.25 184.482 38.25C184.694 38.25 184.876 38.3223 185.027 38.467C185.18 38.6116 185.257 38.7855 185.257 38.9886C185.257 39.1918 185.18 39.3656 185.027 39.5103C184.876 39.6549 184.694 39.7273 184.482 39.7273ZM192.036 42.4972L191.057 42.7741C190.995 42.611 190.904 42.4525 190.784 42.2987C190.667 42.1417 190.507 42.0124 190.304 41.9109C190.101 41.8093 189.841 41.7585 189.524 41.7585C189.09 41.7585 188.729 41.8585 188.439 42.0586C188.153 42.2556 188.01 42.5064 188.01 42.8111C188.01 43.0819 188.108 43.2958 188.305 43.4528C188.502 43.6097 188.81 43.7405 189.229 43.8452L190.281 44.1037C190.915 44.2576 191.388 44.493 191.699 44.81C192.009 45.1239 192.165 45.5286 192.165 46.0241C192.165 46.4304 192.048 46.7936 191.814 47.1136C191.583 47.4337 191.26 47.6861 190.844 47.8707C190.429 48.0554 189.946 48.1477 189.395 48.1477C188.672 48.1477 188.073 47.9908 187.599 47.6768C187.125 47.3629 186.825 46.9044 186.699 46.3011L187.733 46.0426C187.831 46.4242 188.018 46.7105 188.292 46.9013C188.569 47.0921 188.93 47.1875 189.376 47.1875C189.884 47.1875 190.287 47.0798 190.586 46.8643C190.888 46.6458 191.038 46.3842 191.038 46.0795C191.038 45.8333 190.952 45.6271 190.78 45.4609C190.607 45.2917 190.343 45.1655 189.986 45.0824L188.804 44.8054C188.155 44.6515 187.678 44.413 187.373 44.0898C187.071 43.7636 186.92 43.3558 186.92 42.8665C186.92 42.4664 187.033 42.1125 187.257 41.8047C187.485 41.4969 187.795 41.2553 188.185 41.0799C188.579 40.9045 189.026 40.8168 189.524 40.8168C190.226 40.8168 190.777 40.9706 191.177 41.2784C191.58 41.5862 191.866 41.9924 192.036 42.4972ZM165.315 56.9091C165.26 56.4413 165.035 56.0781 164.641 55.8196C164.247 55.5611 163.764 55.4318 163.192 55.4318C162.773 55.4318 162.407 55.4995 162.093 55.6349C161.782 55.7704 161.539 55.9566 161.364 56.1935C161.191 56.4305 161.105 56.6998 161.105 57.0014C161.105 57.2538 161.165 57.4708 161.285 57.6523C161.408 57.8308 161.565 57.9801 161.756 58.1001C161.947 58.2171 162.147 58.314 162.356 58.391C162.565 58.4648 162.758 58.5249 162.933 58.571L163.893 58.8295C164.14 58.8942 164.414 58.9834 164.715 59.0973C165.02 59.2112 165.311 59.3666 165.588 59.5636C165.868 59.7575 166.099 60.0067 166.28 60.3114C166.462 60.6161 166.553 60.9901 166.553 61.4332C166.553 61.9441 166.419 62.4058 166.151 62.8182C165.886 63.2306 165.498 63.5584 164.988 63.8015C164.48 64.0446 163.863 64.1662 163.136 64.1662C162.459 64.1662 161.873 64.0569 161.377 63.8384C160.885 63.6199 160.497 63.3152 160.214 62.9244C159.934 62.5335 159.776 62.0795 159.739 61.5625H160.92C160.951 61.9195 161.071 62.215 161.281 62.4489C161.493 62.6797 161.761 62.852 162.084 62.9659C162.41 63.0767 162.761 63.1321 163.136 63.1321C163.573 63.1321 163.966 63.0613 164.314 62.9197C164.661 62.7751 164.937 62.575 165.14 62.3196C165.343 62.0611 165.445 61.7595 165.445 61.4148C165.445 61.1009 165.357 60.8454 165.181 60.6484C165.006 60.4515 164.775 60.2914 164.489 60.1683C164.203 60.0452 163.893 59.9375 163.561 59.8452L162.398 59.5128C161.659 59.3004 161.074 58.9973 160.643 58.6033C160.213 58.2094 159.997 57.6939 159.997 57.0568C159.997 56.5275 160.14 56.0658 160.426 55.6719C160.716 55.2749 161.104 54.9671 161.59 54.7486C162.079 54.527 162.625 54.4162 163.229 54.4162C163.838 54.4162 164.38 54.5254 164.854 54.744C165.328 54.9594 165.703 55.2549 165.98 55.6303C166.26 56.0058 166.408 56.4321 166.423 56.9091H165.315ZM168.287 64V56.9091H169.377V64H168.287ZM168.841 55.7273C168.629 55.7273 168.446 55.6549 168.292 55.5103C168.141 55.3656 168.066 55.1918 168.066 54.9886C168.066 54.7855 168.141 54.6116 168.292 54.467C168.446 54.3223 168.629 54.25 168.841 54.25C169.054 54.25 169.235 54.3223 169.386 54.467C169.54 54.6116 169.617 54.7855 169.617 54.9886C169.617 55.1918 169.54 55.3656 169.386 55.5103C169.235 55.6549 169.054 55.7273 168.841 55.7273ZM171.372 64V56.9091H172.425V58.017H172.517C172.665 57.6385 172.903 57.3446 173.233 57.1353C173.562 56.9229 173.957 56.8168 174.419 56.8168C174.887 56.8168 175.276 56.9229 175.587 57.1353C175.901 57.3446 176.146 57.6385 176.321 58.017H176.395C176.576 57.6508 176.849 57.36 177.212 57.1445C177.575 56.926 178.011 56.8168 178.518 56.8168C179.152 56.8168 179.671 57.0153 180.074 57.4123C180.477 57.8062 180.679 58.4202 180.679 59.2543V64H179.589V59.2543C179.589 58.7311 179.446 58.3571 179.16 58.1325C178.874 57.9078 178.537 57.7955 178.149 57.7955C177.651 57.7955 177.264 57.9463 176.99 58.2479C176.717 58.5464 176.58 58.925 176.58 59.3835V64H175.472V59.1435C175.472 58.7403 175.341 58.4156 175.079 58.1694C174.818 57.9201 174.481 57.7955 174.068 57.7955C173.785 57.7955 173.52 57.8709 173.274 58.0217C173.031 58.1725 172.834 58.3817 172.683 58.6495C172.536 58.9142 172.462 59.2204 172.462 59.5682V64H171.372ZM182.671 66.6591V56.9091H183.724V58.0355H183.853C183.933 57.9124 184.044 57.7554 184.185 57.5646C184.33 57.3707 184.536 57.1984 184.804 57.0476C185.075 56.8937 185.441 56.8168 185.903 56.8168C186.5 56.8168 187.026 56.966 187.481 57.2646C187.937 57.5631 188.292 57.9863 188.548 58.5341C188.803 59.0819 188.931 59.7282 188.931 60.473C188.931 61.224 188.803 61.8749 188.548 62.4258C188.292 62.9736 187.938 63.3983 187.486 63.6999C187.034 63.9985 186.512 64.1477 185.921 64.1477C185.465 64.1477 185.101 64.0723 184.827 63.9215C184.553 63.7676 184.342 63.5937 184.194 63.3999C184.047 63.2029 183.933 63.0398 183.853 62.9105H183.76V66.6591H182.671ZM183.742 60.4545C183.742 60.9901 183.82 61.4625 183.977 61.8718C184.134 62.2781 184.364 62.5966 184.665 62.8274C184.967 63.0552 185.336 63.169 185.773 63.169C186.229 63.169 186.609 63.049 186.914 62.8089C187.221 62.5658 187.452 62.2396 187.606 61.8303C187.763 61.4179 187.841 60.9593 187.841 60.4545C187.841 59.956 187.765 59.5066 187.611 59.1065C187.46 58.7034 187.231 58.3848 186.923 58.1509C186.618 57.9139 186.235 57.7955 185.773 57.7955C185.33 57.7955 184.958 57.9078 184.656 58.1325C184.354 58.354 184.127 58.6649 183.973 59.065C183.819 59.462 183.742 59.9252 183.742 60.4545ZM191.682 54.5455V64H190.593V54.5455H191.682ZM193.678 64V56.9091H194.767V64H193.678ZM194.232 55.7273C194.019 55.7273 193.836 55.6549 193.682 55.5103C193.532 55.3656 193.456 55.1918 193.456 54.9886C193.456 54.7855 193.532 54.6116 193.682 54.467C193.836 54.3223 194.019 54.25 194.232 54.25C194.444 54.25 194.626 54.3223 194.777 54.467C194.93 54.6116 195.007 54.7855 195.007 54.9886C195.007 55.1918 194.93 55.3656 194.777 55.5103C194.626 55.6549 194.444 55.7273 194.232 55.7273ZM199.92 56.9091V57.8324H196.098V56.9091H199.92ZM197.243 64V55.9304C197.243 55.5241 197.338 55.1856 197.529 54.9148C197.72 54.6439 197.968 54.4408 198.272 54.3054C198.577 54.17 198.899 54.1023 199.237 54.1023C199.505 54.1023 199.723 54.1238 199.893 54.1669C200.062 54.21 200.188 54.25 200.271 54.2869L199.957 55.2287C199.902 55.2102 199.825 55.1871 199.727 55.1594C199.631 55.1317 199.505 55.1179 199.348 55.1179C198.988 55.1179 198.728 55.2087 198.568 55.3903C198.411 55.5719 198.332 55.8381 198.332 56.1889V64H197.243ZM201.447 64V56.9091H202.537V64H201.447ZM202.001 55.7273C201.789 55.7273 201.606 55.6549 201.452 55.5103C201.301 55.3656 201.226 55.1918 201.226 54.9886C201.226 54.7855 201.301 54.6116 201.452 54.467C201.606 54.3223 201.789 54.25 202.001 54.25C202.214 54.25 202.395 54.3223 202.546 54.467C202.7 54.6116 202.777 54.7855 202.777 54.9886C202.777 55.1918 202.7 55.3656 202.546 55.5103C202.395 55.6549 202.214 55.7273 202.001 55.7273ZM207.505 64.1477C206.822 64.1477 206.233 63.9969 205.737 63.6953C205.245 63.3906 204.865 62.9659 204.597 62.4212C204.332 61.8733 204.2 61.2363 204.2 60.5099C204.2 59.7836 204.332 59.1435 204.597 58.5895C204.865 58.0324 205.237 57.5985 205.714 57.2876C206.194 56.9737 206.754 56.8168 207.395 56.8168C207.764 56.8168 208.129 56.8783 208.489 57.0014C208.849 57.1245 209.176 57.3246 209.472 57.6016C209.767 57.8755 210.003 58.2386 210.178 58.6911C210.354 59.1435 210.441 59.7005 210.441 60.3622V60.8239H204.975V59.8821H209.333C209.333 59.482 209.253 59.125 209.093 58.8111C208.936 58.4972 208.712 58.2494 208.419 58.0678C208.13 57.8862 207.788 57.7955 207.395 57.7955C206.961 57.7955 206.585 57.9032 206.268 58.1186C205.954 58.331 205.713 58.608 205.543 58.9496C205.374 59.2912 205.289 59.6574 205.289 60.0483V60.6761C205.289 61.2116 205.382 61.6656 205.566 62.038C205.754 62.4073 206.014 62.6889 206.347 62.8828C206.679 63.0736 207.065 63.169 207.505 63.169C207.792 63.169 208.05 63.129 208.281 63.049C208.515 62.9659 208.716 62.8428 208.886 62.6797C209.055 62.5135 209.186 62.3073 209.278 62.0611L210.331 62.3565C210.22 62.7135 210.034 63.0275 209.772 63.2983C209.51 63.5661 209.187 63.7753 208.803 63.9261C208.418 64.0739 207.985 64.1477 207.505 64.1477ZM206.841 55.9489L207.967 53.8068H209.241L207.801 55.9489H206.841ZM217.121 58.4972L216.143 58.7741C216.081 58.611 215.99 58.4525 215.87 58.2987C215.753 58.1417 215.593 58.0124 215.39 57.9109C215.187 57.8093 214.927 57.7585 214.61 57.7585C214.176 57.7585 213.815 57.8585 213.525 58.0586C213.239 58.2556 213.096 58.5064 213.096 58.8111C213.096 59.0819 213.194 59.2958 213.391 59.4528C213.588 59.6097 213.896 59.7405 214.315 59.8452L215.367 60.1037C216.001 60.2576 216.474 60.493 216.784 60.81C217.095 61.1239 217.251 61.5286 217.251 62.0241C217.251 62.4304 217.134 62.7936 216.9 63.1136C216.669 63.4337 216.346 63.6861 215.93 63.8707C215.515 64.0554 215.032 64.1477 214.481 64.1477C213.758 64.1477 213.159 63.9908 212.685 63.6768C212.211 63.3629 211.911 62.9044 211.785 62.3011L212.819 62.0426C212.917 62.4242 213.104 62.7105 213.377 62.9013C213.654 63.0921 214.016 63.1875 214.462 63.1875C214.97 63.1875 215.373 63.0798 215.672 62.8643C215.973 62.6458 216.124 62.3842 216.124 62.0795C216.124 61.8333 216.038 61.6271 215.866 61.4609C215.693 61.2917 215.429 61.1655 215.072 61.0824L213.89 60.8054C213.241 60.6515 212.763 60.413 212.459 60.0898C212.157 59.7636 212.006 59.3558 212.006 58.8665C212.006 58.4664 212.119 58.1125 212.343 57.8047C212.571 57.4969 212.88 57.2553 213.271 57.0799C213.665 56.9045 214.112 56.8168 214.61 56.8168C215.312 56.8168 215.863 56.9706 216.263 57.2784C216.666 57.5862 216.952 57.9924 217.121 58.4972Z" fill="#141414"/>
</g>
<rect x="87.5" y="16.5" width="256" height="237" rx="24.5" stroke="#DDDDDD"/>
<rect x="36.5" y="95.5" width="42" height="79" rx="21" fill="white"/>
<rect x="36.5" y="95.5" width="42" height="79" rx="21" stroke="#DDDDDD"/>
<path d="M65.834 134.417V139.008C65.834 142.069 65.0688 142.834 62.0083 142.834H54.3569C51.2964 142.834 50.5312 142.069 50.5312 139.008V131.357C50.5312 128.296 51.2964 127.531 54.3569 127.531H55.5046C56.6523 127.531 56.9048 127.868 57.341 128.449L58.4887 129.98C58.7794 130.362 58.9478 130.592 59.7129 130.592H62.0083C65.0688 130.592 65.834 131.357 65.834 134.417Z" stroke="#FFC782" stroke-width="1.6527" stroke-miterlimit="10"/>
<path d="M55.125 127.531H62.0112C63.5415 127.531 64.3066 128.296 64.3066 129.827V130.883" stroke="#FFC782" stroke-width="1.6527" stroke-miterlimit="10" stroke-linecap="round" stroke-linejoin="round"/>
<path d="M55.1172 59.332H60.4722" stroke="#FFC782" stroke-width="1.6524" stroke-miterlimit="10" stroke-linecap="round" stroke-linejoin="round"/>
<path d="M55.1172 62.3926H58.4679" stroke="#FFC782" stroke-width="1.6524" stroke-miterlimit="10" stroke-linecap="round" stroke-linejoin="round"/>
<path d="M56.6472 54.5893H59.7072C61.2372 54.5893 61.2372 53.8243 61.2372 53.0593C61.2372 51.5293 60.4722 51.5293 59.7072 51.5293H56.6472C55.8822 51.5293 55.1172 51.5293 55.1172 53.0593C55.1172 54.5893 55.8822 54.5893 56.6472 54.5893Z" stroke="#FFC782" stroke-width="1.6524" stroke-miterlimit="10" stroke-linecap="round" stroke-linejoin="round"/>
<path d="M61.2419 53.0742C63.7893 53.2119 65.0669 54.1529 65.0669 57.6489V62.2389C65.0669 65.2989 64.3019 66.8289 60.4769 66.8289H55.8869C52.0619 66.8289 51.2969 65.2989 51.2969 62.2389V57.6489C51.2969 54.1605 52.5744 53.2119 55.1219 53.0742" stroke="#FFC782" stroke-width="1.6524" stroke-miterlimit="10" stroke-linecap="round" stroke-linejoin="round"/>
<path d="M55.8862 215.829H60.4762C64.3012 215.829 65.8312 214.299 65.8312 210.474V205.884C65.8312 202.059 64.3012 200.529 60.4762 200.529H55.8862C52.0612 200.529 50.5312 202.059 50.5312 205.884V210.474C50.5312 214.299 52.0612 215.829 55.8862 215.829Z" stroke="#FFC782" stroke-width="1.6524" stroke-linecap="round" stroke-linejoin="round"/>
<path d="M55.8828 206.275L58.1778 203.98L60.4728 206.275" stroke="#FFC782" stroke-width="1.6524" stroke-linecap="round" stroke-linejoin="round"/>
<path d="M58.1797 203.98V210.1" stroke="#FFC782" stroke-width="1.6524" stroke-linecap="round" stroke-linejoin="round"/>
<path d="M53.5859 211.631C56.5618 212.625 59.7901 212.625 62.7659 211.631" stroke="#FFC782" stroke-width="1.6524" stroke-linecap="round" stroke-linejoin="round"/>
</g>
<rect x="24.5" y="4.5" width="330" height="259" rx="38.5" stroke="url(#paint4_linear_362_203)"/>
</g>
<defs>
<filter id="filter0_dddd_362_203" x="0" y="0" width="379" height="347" filterUnits="userSpaceOnUse" color-interpolation-filters="sRGB">
<feFlood flood-opacity="0" result="BackgroundImageFix"/>
<feColorMatrix in="SourceAlpha" type="matrix" values="0 0 0 0 0 0 0 0 0 0 0 0 0 0 0 0 0 0 127 0" result="hardAlpha"/>
<feOffset dy="4"/>
<feGaussianBlur stdDeviation="4"/>
<feColorMatrix type="matrix" values="0 0 0 0 0.286275 0 0 0 0 0.317647 0 0 0 0 0.454902 0 0 0 0.1 0"/>
<feBlend mode="normal" in2="BackgroundImageFix" result="effect1_dropShadow_362_203"/>
<feColorMatrix in="SourceAlpha" type="matrix" values="0 0 0 0 0 0 0 0 0 0 0 0 0 0 0 0 0 0 127 0" result="hardAlpha"/>
<feOffset dy="15"/>
<feGaussianBlur stdDeviation="7.5"/>
<feColorMatrix type="matrix" values="0 0 0 0 0.286275 0 0 0 0 0.317647 0 0 0 0 0.454902 0 0 0 0.09 0"/>
<feBlend mode="normal" in2="effect1_dropShadow_362_203" result="effect2_dropShadow_362_203"/>
<feColorMatrix in="SourceAlpha" type="matrix" values="0 0 0 0 0 0 0 0 0 0 0 0 0 0 0 0 0 0 127 0" result="hardAlpha"/>
<feOffset dy="33"/>
<feGaussianBlur stdDeviation="10"/>
<feColorMatrix type="matrix" values="0 0 0 0 0.286275 0 0 0 0 0.317647 0 0 0 0 0.454902 0 0 0 0.05 0"/>
<feBlend mode="normal" in2="effect2_dropShadow_362_203" result="effect3_dropShadow_362_203"/>
<feColorMatrix in="SourceAlpha" type="matrix" values="0 0 0 0 0 0 0 0 0 0 0 0 0 0 0 0 0 0 127 0" result="hardAlpha"/>
<feOffset dy="59"/>
<feGaussianBlur stdDeviation="12"/>
<feColorMatrix type="matrix" values="0 0 0 0 0.286275 0 0 0 0 0.317647 0 0 0 0 0.454902 0 0 0 0.01 0"/>
<feBlend mode="normal" in2="effect3_dropShadow_362_203" result="effect4_dropShadow_362_203"/>
<feBlend mode="normal" in="SourceGraphic" in2="effect4_dropShadow_362_203" result="shape"/>
</filter>
<filter id="filter1_dddd_362_203" x="104" y="39" width="39" height="44" filterUnits="userSpaceOnUse" color-interpolation-filters="sRGB">
<feFlood flood-opacity="0" result="BackgroundImageFix"/>
<feColorMatrix in="SourceAlpha" type="matrix" values="0 0 0 0 0 0 0 0 0 0 0 0 0 0 0 0 0 0 127 0" result="hardAlpha"/>
<feOffset dy="1"/>
<feGaussianBlur stdDeviation="0.5"/>
<feColorMatrix type="matrix" values="0 0 0 0 0 0 0 0 0 0 0 0 0 0 0 0 0 0 0.05 0"/>
<feBlend mode="normal" in2="BackgroundImageFix" result="effect1_dropShadow_362_203"/>
<feColorMatrix in="SourceAlpha" type="matrix" values="0 0 0 0 0 0 0 0 0 0 0 0 0 0 0 0 0 0 127 0" result="hardAlpha"/>
<feOffset dy="2"/>
<feGaussianBlur stdDeviation="1"/>
<feColorMatrix type="matrix" values="0 0 0 0 0 0 0 0 0 0 0 0 0 0 0 0 0 0 0.04 0"/>
<feBlend mode="normal" in2="effect1_dropShadow_362_203" result="effect2_dropShadow_362_203"/>
<feColorMatrix in="SourceAlpha" type="matrix" values="0 0 0 0 0 0 0 0 0 0 0 0 0 0 0 0 0 0 127 0" result="hardAlpha"/>
<feOffset dy="5"/>
<feGaussianBlur stdDeviation="1.5"/>
<feColorMatrix type="matrix" values="0 0 0 0 0 0 0 0 0 0 0 0 0 0 0 0 0 0 0.03 0"/>
<feBlend mode="normal" in2="effect2_dropShadow_362_203" result="effect3_dropShadow_362_203"/>
<feColorMatrix in="SourceAlpha" type="matrix" values="0 0 0 0 0 0 0 0 0 0 0 0 0 0 0 0 0 0 127 0" result="hardAlpha"/>
<feOffset dy="9"/>
<feGaussianBlur stdDeviation="2"/>
<feColorMatrix type="matrix" values="0 0 0 0 0 0 0 0 0 0 0 0 0 0 0 0 0 0 0.01 0"/>
<feBlend mode="normal" in2="effect3_dropShadow_362_203" result="effect4_dropShadow_362_203"/>
<feBlend mode="normal" in="SourceGraphic" in2="effect4_dropShadow_362_203" result="shape"/>
</filter>
<filter id="filter2_dddd_362_203" x="104" y="89" width="39" height="44" filterUnits="userSpaceOnUse" color-interpolation-filters="sRGB">
<feFlood flood-opacity="0" result="BackgroundImageFix"/>
<feColorMatrix in="SourceAlpha" type="matrix" values="0 0 0 0 0 0 0 0 0 0 0 0 0 0 0 0 0 0 127 0" result="hardAlpha"/>
<feOffset dy="1"/>
<feGaussianBlur stdDeviation="0.5"/>
<feColorMatrix type="matrix" values="0 0 0 0 0 0 0 0 0 0 0 0 0 0 0 0 0 0 0.05 0"/>
<feBlend mode="normal" in2="BackgroundImageFix" result="effect1_dropShadow_362_203"/>
<feColorMatrix in="SourceAlpha" type="matrix" values="0 0 0 0 0 0 0 0 0 0 0 0 0 0 0 0 0 0 127 0" result="hardAlpha"/>
<feOffset dy="2"/>
<feGaussianBlur stdDeviation="1"/>
<feColorMatrix type="matrix" values="0 0 0 0 0 0 0 0 0 0 0 0 0 0 0 0 0 0 0.04 0"/>
<feBlend mode="normal" in2="effect1_dropShadow_362_203" result="effect2_dropShadow_362_203"/>
<feColorMatrix in="SourceAlpha" type="matrix" values="0 0 0 0 0 0 0 0 0 0 0 0 0 0 0 0 0 0 127 0" result="hardAlpha"/>
<feOffset dy="5"/>
<feGaussianBlur stdDeviation="1.5"/>
<feColorMatrix type="matrix" values="0 0 0 0 0 0 0 0 0 0 0 0 0 0 0 0 0 0 0.03 0"/>
<feBlend mode="normal" in2="effect2_dropShadow_362_203" result="effect3_dropShadow_362_203"/>
<feColorMatrix in="SourceAlpha" type="matrix" values="0 0 0 0 0 0 0 0 0 0 0 0 0 0 0 0 0 0 127 0" result="hardAlpha"/>
<feOffset dy="9"/>
<feGaussianBlur stdDeviation="2"/>
<feColorMatrix type="matrix" values="0 0 0 0 0 0 0 0 0 0 0 0 0 0 0 0 0 0 0.01 0"/>
<feBlend mode="normal" in2="effect3_dropShadow_362_203" result="effect4_dropShadow_362_203"/>
<feBlend mode="normal" in="SourceGraphic" in2="effect4_dropShadow_362_203" result="shape"/>
</filter>
<filter id="filter3_dddd_362_203" x="102" y="137" width="43" height="48" filterUnits="userSpaceOnUse" color-interpolation-filters="sRGB">
<feFlood flood-opacity="0" result="BackgroundImageFix"/>
<feColorMatrix in="SourceAlpha" type="matrix" values="0 0 0 0 0 0 0 0 0 0 0 0 0 0 0 0 0 0 127 0" result="hardAlpha"/>
<feOffset dy="1"/>
<feGaussianBlur stdDeviation="0.5"/>
<feColorMatrix type="matrix" values="0 0 0 0 0 0 0 0 0 0 0 0 0 0 0 0 0 0 0.05 0"/>
<feBlend mode="normal" in2="BackgroundImageFix" result="effect1_dropShadow_362_203"/>
<feColorMatrix in="SourceAlpha" type="matrix" values="0 0 0 0 0 0 0 0 0 0 0 0 0 0 0 0 0 0 127 0" result="hardAlpha"/>
<feOffset dy="2"/>
<feGaussianBlur stdDeviation="1"/>
<feColorMatrix type="matrix" values="0 0 0 0 0 0 0 0 0 0 0 0 0 0 0 0 0 0 0.04 0"/>
<feBlend mode="normal" in2="effect1_dropShadow_362_203" result="effect2_dropShadow_362_203"/>
<feColorMatrix in="SourceAlpha" type="matrix" values="0 0 0 0 0 0 0 0 0 0 0 0 0 0 0 0 0 0 127 0" result="hardAlpha"/>
<feOffset dy="5"/>
<feGaussianBlur stdDeviation="1.5"/>
<feColorMatrix type="matrix" values="0 0 0 0 0 0 0 0 0 0 0 0 0 0 0 0 0 0 0.03 0"/>
<feBlend mode="normal" in2="effect2_dropShadow_362_203" result="effect3_dropShadow_362_203"/>
<feColorMatrix in="SourceAlpha" type="matrix" values="0 0 0 0 0 0 0 0 0 0 0 0 0 0 0 0 0 0 127 0" result="hardAlpha"/>
<feOffset dy="9"/>
<feGaussianBlur stdDeviation="2"/>
<feColorMatrix type="matrix" values="0 0 0 0 0 0 0 0 0 0 0 0 0 0 0 0 0 0 0.01 0"/>
<feBlend mode="normal" in2="effect3_dropShadow_362_203" result="effect4_dropShadow_362_203"/>
<feBlend mode="normal" in="SourceGraphic" in2="effect4_dropShadow_362_203" result="shape"/>
</filter>
<filter id="filter4_dddd_362_203" x="114" y="149" width="19" height="24" filterUnits="userSpaceOnUse" color-interpolation-filters="sRGB">
<feFlood flood-opacity="0" result="BackgroundImageFix"/>
<feColorMatrix in="SourceAlpha" type="matrix" values="0 0 0 0 0 0 0 0 0 0 0 0 0 0 0 0 0 0 127 0" result="hardAlpha"/>
<feOffset dy="1"/>
<feGaussianBlur stdDeviation="0.5"/>
<feColorMatrix type="matrix" values="0 0 0 0 0 0 0 0 0 0 0 0 0 0 0 0 0 0 0.05 0"/>
<feBlend mode="normal" in2="BackgroundImageFix" result="effect1_dropShadow_362_203"/>
<feColorMatrix in="SourceAlpha" type="matrix" values="0 0 0 0 0 0 0 0 0 0 0 0 0 0 0 0 0 0 127 0" result="hardAlpha"/>
<feOffset dy="2"/>
<feGaussianBlur stdDeviation="1"/>
<feColorMatrix type="matrix" values="0 0 0 0 0 0 0 0 0 0 0 0 0 0 0 0 0 0 0.04 0"/>
<feBlend mode="normal" in2="effect1_dropShadow_362_203" result="effect2_dropShadow_362_203"/>
<feColorMatrix in="SourceAlpha" type="matrix" values="0 0 0 0 0 0 0 0 0 0 0 0 0 0 0 0 0 0 127 0" result="hardAlpha"/>
<feOffset dy="5"/>
<feGaussianBlur stdDeviation="1.5"/>
<feColorMatrix type="matrix" values="0 0 0 0 0 0 0 0 0 0 0 0 0 0 0 0 0 0 0.03 0"/>
<feBlend mode="normal" in2="effect2_dropShadow_362_203" result="effect3_dropShadow_362_203"/>
<feColorMatrix in="SourceAlpha" type="matrix" values="0 0 0 0 0 0 0 0 0 0 0 0 0 0 0 0 0 0 127 0" result="hardAlpha"/>
<feOffset dy="9"/>
<feGaussianBlur stdDeviation="2"/>
<feColorMatrix type="matrix" values="0 0 0 0 0 0 0 0 0 0 0 0 0 0 0 0 0 0 0.01 0"/>
<feBlend mode="normal" in2="effect3_dropShadow_362_203" result="effect4_dropShadow_362_203"/>
<feBlend mode="normal" in="SourceGraphic" in2="effect4_dropShadow_362_203" result="shape"/>
</filter>
<linearGradient id="paint0_linear_362_203" x1="123.5" y1="39" x2="123.5" y2="70" gradientUnits="userSpaceOnUse">
<stop stop-color="white"/>
<stop offset="1" stop-color="#EFEFEF"/>
</linearGradient>
<linearGradient id="paint1_linear_362_203" x1="123.5" y1="39" x2="123.5" y2="70" gradientUnits="userSpaceOnUse">
<stop stop-color="#DDDDDD"/>
<stop offset="1" stop-color="white"/>
</linearGradient>
<linearGradient id="paint2_linear_362_203" x1="123.5" y1="89" x2="123.5" y2="120" gradientUnits="userSpaceOnUse">
<stop stop-color="white"/>
<stop offset="1" stop-color="#EFEFEF"/>
</linearGradient>
<linearGradient id="paint3_linear_362_203" x1="123.5" y1="89" x2="123.5" y2="120" gradientUnits="userSpaceOnUse">
<stop stop-color="#DDDDDD"/>
<stop offset="1" stop-color="white"/>
</linearGradient>
<linearGradient id="paint4_linear_362_203" x1="25" y1="30.5" x2="354" y2="250.5" gradientUnits="userSpaceOnUse">
<stop stop-color="#DDDDDD"/>
<stop offset="1" stop-color="#C8C8C8"/>
</linearGradient>
<clipPath id="clip0_362_203">
<rect x="25" y="5" width="329" height="258" rx="38" fill="white"/>
</clipPath>
<clipPath id="clip1_362_203">
<rect x="87" y="16" width="257" height="238" rx="25" fill="white"/>
</clipPath>
<clipPath id="clip2_362_203">
<rect x="101" y="32" width="45" height="45" rx="22.5" fill="white"/>
</clipPath>
<clipPath id="clip3_362_203">
<rect x="101" y="82" width="45" height="45" rx="22.5" fill="white"/>
</clipPath>
<clipPath id="clip4_362_203">
<rect x="101" y="132" width="45" height="45" rx="22.5" fill="white"/>
</clipPath>
</defs>
</svg>
