<svg width="4424" height="4051" viewBox="0 0 4424 4051" fill="none" xmlns="http://www.w3.org/2000/svg">
<g filter="url(#filter0_dddd_362_159)">
<g clip-path="url(#clip0_362_159)">
<rect x="292" y="59" width="3840" height="3011.31" rx="443.526" fill="white"/>
<ellipse cx="3653.46" cy="403.316" rx="1143.83" ry="1313.07" fill="#8681FF"/>
<g clip-path="url(#clip1_362_159)">
<rect x="1015.65" y="187.391" width="2999.64" height="2777.87" rx="291.793" fill="white"/>
<g clip-path="url(#clip2_362_159)">
<g filter="url(#filter1_dddd_362_159)">
<rect x="1260.76" y="455.84" width="361.824" height="361.824" rx="180.912" fill="url(#paint0_linear_362_159)"/>
<rect x="1269.51" y="464.594" width="344.316" height="344.316" rx="172.158" stroke="url(#paint1_linear_362_159)" stroke-width="17.5076"/>
<path d="M1422.95 689.274C1421.89 689.276 1420.85 689.063 1419.88 688.649C1418.9 688.235 1418.02 687.627 1417.27 686.861L1379.83 648.415C1378.32 646.87 1377.48 644.774 1377.48 642.589C1377.48 640.404 1378.32 638.308 1379.83 636.763C1381.33 635.218 1383.37 634.349 1385.5 634.349C1387.63 634.349 1389.67 635.217 1391.18 636.763L1422.95 669.383L1492.17 598.314C1493.67 596.768 1495.71 595.9 1497.84 595.9C1499.97 595.9 1502.01 596.768 1503.52 598.314C1505.02 599.859 1505.87 601.954 1505.87 604.14C1505.87 606.325 1505.02 608.42 1503.52 609.966L1428.62 686.861C1427.88 687.627 1426.99 688.235 1426.02 688.649C1425.05 689.063 1424 689.276 1422.95 689.274Z" fill="#17A25F"/>
</g>
</g>
<rect x="1190.73" y="385.808" width="501.884" height="501.884" rx="250.942" stroke="#DDDDDD" stroke-width="23.3435"/>
<g clip-path="url(#clip3_362_159)">
<g filter="url(#filter2_dddd_362_159)">
<rect x="1260.76" y="1039.43" width="361.824" height="361.824" rx="180.912" fill="url(#paint2_linear_362_159)"/>
<rect x="1269.51" y="1048.18" width="344.316" height="344.316" rx="172.158" stroke="url(#paint3_linear_362_159)" stroke-width="17.5076"/>
<path d="M1422.95 1272.86C1421.89 1272.86 1420.85 1272.65 1419.88 1272.24C1418.9 1271.82 1418.02 1271.22 1417.27 1270.45L1379.83 1232C1378.32 1230.46 1377.48 1228.36 1377.48 1226.18C1377.48 1223.99 1378.32 1221.9 1379.83 1220.35C1381.33 1218.81 1383.37 1217.94 1385.5 1217.94C1387.63 1217.94 1389.67 1218.81 1391.18 1220.35L1422.95 1252.97L1492.17 1181.9C1493.67 1180.36 1495.71 1179.49 1497.84 1179.49C1499.97 1179.49 1502.01 1180.36 1503.52 1181.9C1505.02 1183.45 1505.87 1185.54 1505.87 1187.73C1505.87 1189.91 1505.02 1192.01 1503.52 1193.55L1428.62 1270.45C1427.88 1271.22 1426.99 1271.82 1426.02 1272.24C1425.05 1272.65 1424 1272.86 1422.95 1272.86Z" fill="#17A25F"/>
</g>
</g>
<rect x="1190.73" y="969.394" width="501.884" height="501.884" rx="250.942" stroke="#DDDDDD" stroke-width="23.3435"/>
<g clip-path="url(#clip4_362_159)">
<g filter="url(#filter3_dddd_362_159)">
<rect x="1260.76" y="1623.02" width="361.824" height="361.824" rx="180.912" stroke="#8681FF" stroke-width="46.6869"/>
</g>
<g filter="url(#filter4_dddd_362_159)">
<rect x="1377.48" y="1739.73" width="128.389" height="128.389" rx="64.1945" fill="#8681FF"/>
</g>
</g>
<rect x="1190.73" y="1552.98" width="501.884" height="501.884" rx="250.942" stroke="#DDDDDD" stroke-width="23.3435"/>
<path d="M1038.99 2264.96L4015.28 2264.96" stroke="#DDDDDD" stroke-width="11.6717" stroke-linecap="round"/>
<path d="M1850.18 1728.06H2334.56" stroke="#DDDDDD" stroke-width="70.0304" stroke-linecap="round"/>
<path d="M1856.02 1156.14H2340.39" stroke="#DDDDDD" stroke-width="70.0304" stroke-linecap="round"/>
<path d="M1856.02 1856.45H2953.16" stroke="#DDDDDD" stroke-width="70.0304" stroke-linecap="round"/>
<path d="M1867.69 1284.53H3723.49" stroke="#DDDDDD" stroke-width="70.0304" stroke-linecap="round"/>
<rect x="1167.38" y="2381.68" width="2696.17" height="443.526" rx="221.763" fill="#141414"/>
<path d="M2206.62 2657.07V2546.72H2275.05V2561.05H2223.27V2594.67H2270.15V2608.95H2223.27V2657.07H2206.62ZM2318.03 2658.9C2312.78 2658.9 2308.04 2657.93 2303.8 2655.99C2299.56 2654.01 2296.2 2651.16 2293.72 2647.42C2291.28 2643.69 2290.06 2639.11 2290.06 2633.68C2290.06 2629.01 2290.96 2625.17 2292.75 2622.15C2294.55 2619.13 2296.98 2616.74 2300.03 2614.98C2303.08 2613.22 2306.49 2611.9 2310.27 2611C2314.04 2610.1 2317.88 2609.42 2321.8 2608.95C2326.75 2608.37 2330.78 2607.91 2333.87 2607.55C2336.96 2607.15 2339.2 2606.52 2340.6 2605.66C2342 2604.8 2342.7 2603.4 2342.7 2601.46V2601.08C2342.7 2596.38 2341.37 2592.73 2338.72 2590.14C2336.09 2587.56 2332.18 2586.27 2326.97 2586.27C2321.55 2586.27 2317.27 2587.47 2314.15 2589.88C2311.06 2592.25 2308.92 2594.89 2307.73 2597.8L2292.59 2594.35C2294.39 2589.32 2297.01 2585.26 2300.46 2582.17C2303.94 2579.04 2307.95 2576.78 2312.48 2575.38C2317 2573.94 2321.76 2573.23 2326.75 2573.23C2330.06 2573.23 2333.56 2573.62 2337.26 2574.41C2341 2575.17 2344.48 2576.57 2347.71 2578.61C2350.98 2580.66 2353.66 2583.59 2355.74 2587.4C2357.83 2591.17 2358.87 2596.07 2358.87 2602.11V2657.07H2343.13V2645.75H2342.49C2341.45 2647.83 2339.88 2649.88 2337.8 2651.89C2335.72 2653.91 2333.04 2655.58 2329.77 2656.9C2326.5 2658.23 2322.59 2658.9 2318.03 2658.9ZM2321.53 2645.97C2325.98 2645.97 2329.79 2645.09 2332.95 2643.33C2336.15 2641.57 2338.57 2639.27 2340.22 2636.43C2341.91 2633.56 2342.76 2630.48 2342.76 2627.22V2616.55C2342.18 2617.12 2341.07 2617.66 2339.42 2618.16C2337.8 2618.63 2335.95 2619.04 2333.87 2619.4C2331.78 2619.73 2329.75 2620.03 2327.78 2620.32C2325.8 2620.57 2324.15 2620.79 2322.82 2620.97C2319.7 2621.36 2316.84 2622.02 2314.25 2622.96C2311.7 2623.89 2309.66 2625.24 2308.11 2627C2306.6 2628.72 2305.85 2631.02 2305.85 2633.9C2305.85 2637.88 2307.32 2640.9 2310.27 2642.95C2313.21 2644.96 2316.97 2645.97 2321.53 2645.97ZM2415.19 2658.74C2407.18 2658.74 2400.28 2656.92 2394.5 2653.29C2388.75 2649.63 2384.33 2644.58 2381.24 2638.15C2378.15 2631.72 2376.61 2624.36 2376.61 2616.06C2376.61 2607.66 2378.19 2600.24 2381.35 2593.81C2384.51 2587.34 2388.97 2582.3 2394.71 2578.67C2400.46 2575.04 2407.23 2573.23 2415.03 2573.23C2421.31 2573.23 2426.92 2574.39 2431.84 2576.73C2436.76 2579.03 2440.73 2582.26 2443.75 2586.43C2446.8 2590.59 2448.61 2595.46 2449.19 2601.03H2433.51C2432.65 2597.15 2430.67 2593.81 2427.58 2591.01C2424.53 2588.2 2420.43 2586.8 2415.3 2586.8C2410.81 2586.8 2406.87 2587.99 2403.5 2590.36C2400.16 2592.7 2397.55 2596.04 2395.68 2600.38C2393.82 2604.69 2392.88 2609.79 2392.88 2615.68C2392.88 2621.72 2393.8 2626.93 2395.63 2631.31C2397.46 2635.69 2400.05 2639.09 2403.39 2641.49C2406.76 2643.9 2410.73 2645.1 2415.3 2645.1C2418.35 2645.1 2421.12 2644.55 2423.59 2643.43C2426.11 2642.28 2428.21 2640.65 2429.9 2638.53C2431.62 2636.41 2432.83 2633.86 2433.51 2630.88H2449.19C2448.61 2636.23 2446.87 2641.01 2443.96 2645.21C2441.05 2649.42 2437.15 2652.72 2432.27 2655.13C2427.42 2657.53 2421.73 2658.74 2415.19 2658.74ZM2505.05 2574.3V2587.23H2459.84V2574.3H2505.05ZM2471.97 2554.47H2488.08V2632.77C2488.08 2635.89 2488.54 2638.24 2489.48 2639.82C2490.41 2641.37 2491.62 2642.43 2493.09 2643C2494.6 2643.54 2496.23 2643.81 2497.99 2643.81C2499.29 2643.81 2500.42 2643.72 2501.39 2643.54C2502.36 2643.36 2503.11 2643.22 2503.65 2643.11L2506.56 2656.42C2505.63 2656.78 2504.3 2657.14 2502.57 2657.5C2500.85 2657.89 2498.69 2658.11 2496.11 2658.14C2491.87 2658.22 2487.92 2657.46 2484.25 2655.88C2480.59 2654.3 2477.62 2651.86 2475.36 2648.55C2473.1 2645.25 2471.97 2641.1 2471.97 2636.11V2554.47ZM2575.3 2622.74V2574.3H2591.46V2657.07H2575.62V2642.73H2574.76C2572.86 2647.15 2569.8 2650.83 2565.6 2653.78C2561.43 2656.69 2556.24 2658.14 2550.03 2658.14C2544.71 2658.14 2540.01 2656.98 2535.91 2654.64C2531.85 2652.27 2528.66 2648.77 2526.32 2644.13C2524.02 2639.5 2522.87 2633.77 2522.87 2626.95V2574.3H2538.98V2625.01C2538.98 2630.65 2540.55 2635.14 2543.67 2638.48C2546.8 2641.82 2550.86 2643.49 2555.85 2643.49C2558.87 2643.49 2561.86 2642.73 2564.85 2641.23C2567.86 2639.72 2570.36 2637.44 2572.34 2634.38C2574.35 2631.33 2575.34 2627.45 2575.3 2622.74ZM2613.11 2657.07V2574.3H2628.68V2587.45H2629.55C2631.05 2583 2633.71 2579.49 2637.52 2576.94C2641.36 2574.36 2645.71 2573.06 2650.56 2573.06C2651.57 2573.06 2652.75 2573.1 2654.12 2573.17C2655.52 2573.24 2656.61 2573.33 2657.4 2573.44V2588.85C2656.76 2588.67 2655.61 2588.47 2653.95 2588.26C2652.3 2588.01 2650.65 2587.88 2649 2587.88C2645.19 2587.88 2641.79 2588.69 2638.81 2590.31C2635.87 2591.89 2633.53 2594.1 2631.81 2596.93C2630.08 2599.74 2629.22 2602.93 2629.22 2606.52V2657.07H2613.11ZM2704.05 2658.74C2695.9 2658.74 2688.87 2656.99 2682.98 2653.51C2677.13 2649.99 2672.6 2645.05 2669.41 2638.69C2666.24 2632.3 2664.66 2624.81 2664.66 2616.22C2664.66 2607.75 2666.24 2600.27 2669.41 2593.81C2672.6 2587.34 2677.06 2582.3 2682.77 2578.67C2688.52 2575.04 2695.23 2573.23 2702.92 2573.23C2707.59 2573.23 2712.12 2574 2716.5 2575.54C2720.88 2577.09 2724.81 2579.51 2728.3 2582.82C2731.78 2586.12 2734.53 2590.41 2736.54 2595.69C2738.55 2600.94 2739.56 2607.32 2739.56 2614.82V2620.53H2673.77V2608.46H2723.77C2723.77 2604.23 2722.91 2600.47 2721.19 2597.2C2719.46 2593.9 2717.04 2591.29 2713.91 2589.39C2710.82 2587.49 2707.19 2586.53 2703.03 2586.53C2698.5 2586.53 2694.55 2587.65 2691.17 2589.88C2687.83 2592.07 2685.25 2594.94 2683.41 2598.5C2681.62 2602.02 2680.72 2605.84 2680.72 2609.97V2619.4C2680.72 2624.93 2681.69 2629.64 2683.63 2633.52C2685.61 2637.4 2688.35 2640.36 2691.87 2642.41C2695.39 2644.42 2699.51 2645.43 2704.21 2645.43C2707.27 2645.43 2710.05 2645 2712.56 2644.13C2715.08 2643.24 2717.25 2641.91 2719.08 2640.15C2720.92 2638.39 2722.32 2636.21 2723.29 2633.63L2738.54 2636.38C2737.31 2640.87 2735.12 2644.8 2731.96 2648.18C2728.84 2651.52 2724.9 2654.12 2720.16 2655.99C2715.46 2657.82 2710.09 2658.74 2704.05 2658.74ZM2819.45 2594.51L2804.85 2597.1C2804.24 2595.23 2803.27 2593.45 2801.94 2591.76C2800.65 2590.07 2798.89 2588.69 2796.66 2587.61C2794.43 2586.53 2791.65 2586 2788.31 2586C2783.75 2586 2779.94 2587.02 2776.89 2589.07C2773.83 2591.08 2772.31 2593.68 2772.31 2596.88C2772.31 2599.65 2773.33 2601.87 2775.38 2603.56C2777.43 2605.25 2780.73 2606.63 2785.29 2607.71L2798.44 2610.73C2806.05 2612.49 2811.73 2615.2 2815.47 2618.86C2819.2 2622.53 2821.07 2627.29 2821.07 2633.14C2821.07 2638.1 2819.63 2642.52 2816.76 2646.4C2813.92 2650.24 2809.95 2653.26 2804.85 2655.45C2799.79 2657.64 2793.91 2658.74 2787.23 2658.74C2777.96 2658.74 2770.4 2656.76 2764.55 2652.81C2758.69 2648.82 2755.1 2643.16 2753.77 2635.84L2769.34 2633.47C2770.31 2637.53 2772.31 2640.6 2775.32 2642.68C2778.34 2644.73 2782.27 2645.75 2787.12 2645.75C2792.4 2645.75 2796.63 2644.66 2799.79 2642.46C2802.95 2640.24 2804.53 2637.53 2804.53 2634.33C2804.53 2631.74 2803.56 2629.57 2801.62 2627.81C2799.71 2626.05 2796.79 2624.72 2792.84 2623.82L2778.83 2620.75C2771.1 2618.99 2765.39 2616.19 2761.69 2612.34C2758.03 2608.5 2756.2 2603.63 2756.2 2597.74C2756.2 2592.86 2757.56 2588.58 2760.29 2584.92C2763.02 2581.25 2766.79 2578.4 2771.61 2576.35C2776.42 2574.27 2781.93 2573.23 2788.15 2573.23C2797.09 2573.23 2804.13 2575.17 2809.27 2579.04C2814.41 2582.89 2817.8 2588.04 2819.45 2594.51Z" fill="white"/>
<path d="M1869.38 556.152V445.801H1935.55V457.656H1882.74V494.942H1930.59V506.796H1882.74V556.152H1869.38ZM1981.06 558.092C1975.82 558.092 1971.06 557.104 1966.78 555.129C1962.51 553.117 1959.11 550.225 1956.6 546.454C1954.09 542.646 1952.83 538.048 1952.83 532.66C1952.83 527.918 1953.76 524.074 1955.63 521.129C1957.5 518.147 1959.99 515.812 1963.12 514.124C1966.25 512.436 1969.69 511.179 1973.47 510.352C1977.27 509.49 1981.1 508.808 1984.94 508.305C1989.97 507.658 1994.05 507.173 1997.17 506.85C2000.33 506.491 2002.63 505.898 2004.07 505.072C2005.54 504.246 2006.28 502.809 2006.28 500.761V500.33C2006.28 495.014 2004.83 490.883 2001.92 487.937C1999.04 484.992 1994.68 483.519 1988.82 483.519C1982.75 483.519 1977.99 484.848 1974.54 487.506C1971.09 490.164 1968.67 493.002 1967.27 496.02L1955.2 491.709C1957.35 486.68 1960.23 482.765 1963.82 479.963C1967.45 477.125 1971.4 475.149 1975.67 474.036C1979.99 472.886 1984.22 472.312 1988.39 472.312C1991.05 472.312 1994.1 472.635 1997.55 473.281C2001.04 473.892 2004.39 475.167 2007.63 477.107C2010.9 479.047 2013.61 481.974 2015.76 485.89C2017.92 489.805 2019 495.05 2019 501.623V556.152H2006.28V544.945H2005.63C2004.77 546.741 2003.33 548.663 2001.32 550.71C1999.31 552.758 1996.63 554.5 1993.29 555.937C1989.95 557.374 1985.88 558.092 1981.06 558.092ZM1983 546.669C1988.03 546.669 1992.27 545.681 1995.72 543.706C1999.2 541.73 2001.83 539.179 2003.59 536.054C2005.38 532.929 2006.28 529.642 2006.28 526.194V514.555C2005.74 515.202 2004.56 515.795 2002.72 516.333C2000.93 516.836 1998.84 517.285 1996.47 517.68C1994.14 518.04 1991.86 518.363 1989.63 518.65C1987.44 518.902 1985.66 519.117 1984.3 519.297C1980.99 519.728 1977.9 520.428 1975.03 521.398C1972.19 522.332 1969.89 523.751 1968.13 525.655C1966.41 527.523 1965.54 530.073 1965.54 533.306C1965.54 537.725 1967.18 541.065 1970.45 543.328C1973.75 545.555 1977.94 546.669 1983 546.669ZM2075.83 557.877C2068.07 557.877 2061.39 556.045 2055.78 552.381C2050.18 548.717 2045.87 543.67 2042.85 537.24C2039.84 530.81 2038.33 523.464 2038.33 515.202C2038.33 506.796 2039.87 499.378 2042.96 492.948C2046.09 486.483 2050.43 481.436 2056 477.807C2061.6 474.143 2068.14 472.312 2075.61 472.312C2081.43 472.312 2086.68 473.389 2091.35 475.544C2096.02 477.7 2099.84 480.717 2102.82 484.597C2105.8 488.476 2107.65 493.002 2108.37 498.175H2095.66C2094.69 494.403 2092.53 491.063 2089.19 488.153C2085.89 485.207 2081.43 483.735 2075.83 483.735C2070.87 483.735 2066.52 485.028 2062.79 487.614C2059.09 490.164 2056.2 493.775 2054.11 498.444C2052.07 503.078 2051.04 508.52 2051.04 514.771C2051.04 521.165 2052.05 526.733 2054.06 531.474C2056.11 536.216 2058.98 539.898 2062.68 542.52C2066.42 545.142 2070.8 546.454 2075.83 546.454C2079.13 546.454 2082.13 545.879 2084.83 544.729C2087.52 543.58 2089.8 541.927 2091.67 539.772C2093.54 537.617 2094.87 535.03 2095.66 532.013H2108.37C2107.65 536.898 2105.88 541.299 2103.04 545.214C2100.24 549.094 2096.52 552.183 2091.89 554.482C2087.29 556.745 2081.94 557.877 2075.83 557.877ZM2162.96 473.389V484.166H2120.07V473.389H2162.96ZM2132.57 453.56H2145.28V532.444C2145.28 536.036 2145.8 538.73 2146.85 540.526C2147.92 542.287 2149.29 543.472 2150.94 544.083C2152.63 544.657 2154.41 544.945 2156.27 544.945C2157.68 544.945 2158.83 544.873 2159.72 544.729C2160.62 544.55 2161.34 544.406 2161.88 544.298L2164.46 555.721C2163.6 556.045 2162.4 556.368 2160.85 556.691C2159.31 557.05 2157.35 557.23 2154.98 557.23C2151.39 557.23 2147.87 556.458 2144.42 554.913C2141.01 553.368 2138.17 551.016 2135.91 547.854C2133.68 544.693 2132.57 540.706 2132.57 535.893V453.56ZM2234.24 522.314V473.389H2246.96V556.152H2234.24V542.143H2233.38C2231.44 546.346 2228.42 549.92 2224.33 552.866C2220.23 555.775 2215.06 557.23 2208.81 557.23C2203.64 557.23 2199.04 556.098 2195.02 553.835C2190.99 551.536 2187.83 548.088 2185.53 543.49C2183.23 538.856 2182.08 533.019 2182.08 525.978V473.389H2194.8V525.116C2194.8 531.151 2196.49 535.964 2199.87 539.557C2203.28 543.149 2207.62 544.945 2212.9 544.945C2216.07 544.945 2219.28 544.137 2222.55 542.52C2225.85 540.904 2228.62 538.425 2230.85 535.084C2233.11 531.744 2234.24 527.487 2234.24 522.314ZM2270.25 556.152V473.389H2282.53V485.89H2283.4C2284.91 481.795 2287.64 478.472 2291.59 475.922C2295.54 473.371 2299.99 472.096 2304.95 472.096C2305.88 472.096 2307.05 472.114 2308.45 472.15C2309.85 472.186 2310.91 472.24 2311.63 472.312V485.243C2311.2 485.135 2310.21 484.974 2308.67 484.758C2307.16 484.507 2305.56 484.381 2303.87 484.381C2299.85 484.381 2296.26 485.225 2293.1 486.914C2289.97 488.566 2287.49 490.865 2285.66 493.811C2283.86 496.72 2282.97 500.043 2282.97 503.779V556.152H2270.25ZM2358.89 557.877C2350.91 557.877 2344.03 556.116 2338.25 552.596C2332.5 549.04 2328.06 544.083 2324.94 537.725C2321.85 531.331 2320.31 523.895 2320.31 515.417C2320.31 506.94 2321.85 499.468 2324.94 493.002C2328.06 486.501 2332.41 481.436 2337.98 477.807C2343.58 474.143 2350.12 472.312 2357.59 472.312C2361.9 472.312 2366.16 473.03 2370.36 474.467C2374.57 475.904 2378.39 478.239 2381.84 481.471C2385.29 484.669 2388.04 488.907 2390.08 494.188C2392.13 499.468 2393.15 505.97 2393.15 513.693V519.081H2329.36V508.089H2380.22C2380.22 503.42 2379.29 499.253 2377.42 495.589C2375.59 491.925 2372.97 489.033 2369.55 486.914C2366.18 484.794 2362.19 483.735 2357.59 483.735C2352.53 483.735 2348.15 484.992 2344.45 487.506C2340.78 489.985 2337.96 493.218 2335.99 497.205C2334.01 501.192 2333.02 505.467 2333.02 510.029V517.357C2333.02 523.607 2334.1 528.906 2336.26 533.252C2338.45 537.563 2341.48 540.85 2345.36 543.113C2349.24 545.34 2353.75 546.454 2358.89 546.454C2362.23 546.454 2365.24 545.987 2367.94 545.053C2370.67 544.083 2373.02 542.646 2375 540.742C2376.97 538.802 2378.5 536.396 2379.58 533.522L2391.86 536.97C2390.57 541.137 2388.4 544.801 2385.34 547.962C2382.29 551.087 2378.52 553.53 2374.03 555.29C2369.54 557.014 2364.49 557.877 2358.89 557.877ZM1929.73 657.389C1929.08 651.929 1926.46 647.69 1921.86 644.673C1917.26 641.656 1911.62 640.147 1904.94 640.147C1900.06 640.147 1895.78 640.937 1892.12 642.518C1888.49 644.098 1885.65 646.271 1883.6 649.037C1881.59 651.803 1880.59 654.946 1880.59 658.467C1880.59 661.412 1881.29 663.945 1882.69 666.064C1884.12 668.148 1885.96 669.89 1888.18 671.291C1890.41 672.656 1892.75 673.787 1895.19 674.685C1897.63 675.547 1899.88 676.248 1901.92 676.787L1913.13 679.804C1916 680.559 1919.2 681.6 1922.72 682.929C1926.28 684.258 1929.67 686.072 1932.91 688.371C1936.17 690.635 1938.87 693.544 1940.99 697.1C1943.11 700.657 1944.17 705.021 1944.17 710.194C1944.17 716.157 1942.6 721.545 1939.48 726.358C1936.39 731.172 1931.86 734.998 1925.9 737.835C1919.97 740.673 1912.77 742.092 1904.29 742.092C1896.39 742.092 1889.55 740.817 1883.77 738.266C1878.02 735.716 1873.49 732.16 1870.19 727.598C1866.92 723.036 1865.07 717.737 1864.64 711.702H1878.43C1878.79 715.869 1880.19 719.318 1882.63 722.048C1885.11 724.742 1888.24 726.754 1892.01 728.083C1895.82 729.376 1899.91 730.022 1904.29 730.022C1909.4 730.022 1913.98 729.196 1918.03 727.544C1922.09 725.856 1925.31 723.521 1927.68 720.539C1930.05 717.522 1931.24 714.001 1931.24 709.978C1931.24 706.314 1930.21 703.333 1928.16 701.034C1926.12 698.735 1923.42 696.867 1920.08 695.43C1916.74 693.993 1913.13 692.736 1909.25 691.658L1895.67 687.779C1887.05 685.3 1880.23 681.762 1875.2 677.164C1870.17 672.566 1867.65 666.549 1867.65 659.113C1867.65 652.935 1869.32 647.547 1872.67 642.949C1876.04 638.315 1880.57 634.723 1886.24 632.172C1891.96 629.586 1898.33 628.293 1905.37 628.293C1912.48 628.293 1918.81 629.568 1924.34 632.118C1929.87 634.633 1934.25 638.081 1937.49 642.464C1940.75 646.846 1942.48 651.821 1942.66 657.389H1929.73ZM1964.41 740.152V657.389H1977.13V740.152H1964.41ZM1970.88 643.595C1968.4 643.595 1966.26 642.751 1964.47 641.063C1962.71 639.375 1961.83 637.345 1961.83 634.974C1961.83 632.603 1962.71 630.574 1964.47 628.885C1966.26 627.197 1968.4 626.353 1970.88 626.353C1973.36 626.353 1975.48 627.197 1977.24 628.885C1979.03 630.574 1979.93 632.603 1979.93 634.974C1979.93 637.345 1979.03 639.375 1977.24 641.063C1975.48 642.751 1973.36 643.595 1970.88 643.595ZM2000.42 740.152V657.389H2012.71V670.321H2013.78C2015.51 665.903 2018.29 662.472 2022.13 660.029C2025.98 657.551 2030.59 656.312 2035.98 656.312C2041.44 656.312 2045.99 657.551 2049.61 660.029C2053.28 662.472 2056.13 665.903 2058.18 670.321H2059.04C2061.16 666.046 2064.34 662.652 2068.58 660.137C2072.82 657.587 2077.9 656.312 2083.83 656.312C2091.23 656.312 2097.28 658.628 2101.99 663.262C2106.69 667.86 2109.05 675.027 2109.05 684.761V740.152H2096.33V684.761C2096.33 678.655 2094.66 674.29 2091.32 671.668C2087.98 669.046 2084.05 667.735 2079.52 667.735C2073.7 667.735 2069.19 669.495 2065.99 673.015C2062.8 676.499 2061.2 680.918 2061.2 686.27V740.152H2048.27V683.468C2048.27 678.762 2046.74 674.973 2043.69 672.099C2040.63 669.189 2036.7 667.735 2031.89 667.735C2028.58 667.735 2025.49 668.615 2022.62 670.375C2019.78 672.135 2017.48 674.578 2015.72 677.703C2014 680.792 2013.14 684.366 2013.14 688.425V740.152H2000.42ZM2132.3 771.189V657.389H2144.58V670.536H2146.09C2147.02 669.1 2148.32 667.268 2149.97 665.04C2151.66 662.777 2154.07 660.766 2157.19 659.006C2160.35 657.21 2164.63 656.312 2170.01 656.312C2176.98 656.312 2183.13 658.054 2188.44 661.538C2193.76 665.022 2197.91 669.962 2200.89 676.356C2203.87 682.75 2205.36 690.293 2205.36 698.986C2205.36 707.751 2203.87 715.349 2200.89 721.778C2197.91 728.173 2193.78 733.13 2188.5 736.65C2183.22 740.134 2177.13 741.877 2170.23 741.877C2164.91 741.877 2160.66 740.996 2157.46 739.236C2154.26 737.44 2151.8 735.411 2150.08 733.148C2148.35 730.849 2147.02 728.945 2146.09 727.436H2145.01V771.189H2132.3ZM2144.8 698.771C2144.8 705.021 2145.71 710.535 2147.55 715.313C2149.38 720.054 2152.05 723.772 2155.57 726.466C2159.09 729.124 2163.41 730.454 2168.51 730.454C2173.82 730.454 2178.26 729.053 2181.81 726.251C2185.41 723.413 2188.1 719.605 2189.9 714.828C2191.73 710.014 2192.65 704.662 2192.65 698.771C2192.65 692.951 2191.75 687.707 2189.95 683.037C2188.19 678.331 2185.51 674.614 2181.92 671.883C2178.37 669.118 2173.89 667.735 2168.51 667.735C2163.33 667.735 2158.99 669.046 2155.47 671.668C2151.95 674.254 2149.29 677.882 2147.49 682.552C2145.7 687.186 2144.8 692.592 2144.8 698.771ZM2237.48 629.801V740.152H2224.76V629.801H2237.48ZM2260.77 740.152V657.389H2273.48V740.152H2260.77ZM2267.23 643.595C2264.75 643.595 2262.62 642.751 2260.82 641.063C2259.06 639.375 2258.18 637.345 2258.18 634.974C2258.18 632.603 2259.06 630.574 2260.82 628.885C2262.62 627.197 2264.75 626.353 2267.23 626.353C2269.71 626.353 2271.83 627.197 2273.59 628.885C2275.39 630.574 2276.28 632.603 2276.28 634.974C2276.28 637.345 2275.39 639.375 2273.59 641.063C2271.83 642.751 2269.71 643.595 2267.23 643.595ZM2333.63 657.389V668.166H2289.01V657.389H2333.63ZM2302.38 740.152V645.966C2302.38 641.224 2303.49 637.273 2305.72 634.112C2307.94 630.951 2310.84 628.58 2314.39 627C2317.95 625.419 2321.7 624.629 2325.65 624.629C2328.78 624.629 2331.33 624.88 2333.3 625.383C2335.28 625.886 2336.75 626.353 2337.72 626.784L2334.06 637.776C2333.41 637.56 2332.51 637.291 2331.37 636.968C2330.25 636.644 2328.78 636.483 2326.95 636.483C2322.74 636.483 2319.71 637.542 2317.84 639.662C2316.01 641.781 2315.09 644.888 2315.09 648.984V740.152H2302.38ZM2351.45 740.152V657.389H2364.17V740.152H2351.45ZM2357.92 643.595C2355.44 643.595 2353.3 642.751 2351.5 641.063C2349.74 639.375 2348.86 637.345 2348.86 634.974C2348.86 632.603 2349.74 630.574 2351.5 628.885C2353.3 627.197 2355.44 626.353 2357.92 626.353C2360.39 626.353 2362.51 627.197 2364.27 628.885C2366.07 630.574 2366.97 632.603 2366.97 634.974C2366.97 637.345 2366.07 639.375 2364.27 641.063C2362.51 642.751 2360.39 643.595 2357.92 643.595ZM2422.16 741.877C2414.18 741.877 2407.3 740.116 2401.52 736.596C2395.77 733.04 2391.34 728.083 2388.21 721.725C2385.12 715.331 2383.58 707.895 2383.58 699.417C2383.58 690.94 2385.12 683.468 2388.21 677.002C2391.34 670.501 2395.68 665.436 2401.25 661.807C2406.85 658.143 2413.39 656.312 2420.86 656.312C2425.17 656.312 2429.43 657.03 2433.63 658.467C2437.84 659.904 2441.66 662.239 2445.11 665.471C2448.56 668.669 2451.31 672.907 2453.35 678.188C2455.4 683.468 2456.43 689.97 2456.43 697.693V703.081H2392.63V692.089H2443.49C2443.49 687.42 2442.56 683.253 2440.69 679.589C2438.86 675.925 2436.24 673.033 2432.83 670.914C2429.45 668.794 2425.46 667.735 2420.86 667.735C2415.8 667.735 2411.42 668.992 2407.72 671.506C2404.05 673.985 2401.23 677.218 2399.26 681.205C2397.28 685.192 2396.29 689.467 2396.29 694.029V701.357C2396.29 707.607 2397.37 712.906 2399.53 717.252C2401.72 721.563 2404.75 724.85 2408.63 727.113C2412.51 729.34 2417.02 730.454 2422.16 730.454C2425.5 730.454 2428.51 729.987 2431.21 729.053C2433.94 728.083 2436.29 726.646 2438.27 724.742C2440.24 722.802 2441.77 720.396 2442.85 717.522L2455.13 720.97C2453.84 725.137 2451.67 728.801 2448.61 731.962C2445.56 735.087 2441.79 737.53 2437.3 739.29C2432.81 741.014 2427.76 741.877 2422.16 741.877ZM2414.4 646.182L2427.55 621.18H2442.42L2425.61 646.182H2414.4ZM2510.47 741.877C2502.5 741.877 2495.62 740.116 2489.83 736.596C2484.09 733.04 2479.65 728.083 2476.52 721.725C2473.43 715.331 2471.89 707.895 2471.89 699.417C2471.89 690.94 2473.43 683.468 2476.52 677.002C2479.65 670.501 2484 665.436 2489.56 661.807C2495.17 658.143 2501.71 656.312 2509.18 656.312C2513.49 656.312 2517.74 657.03 2521.95 658.467C2526.15 659.904 2529.98 662.239 2533.42 665.471C2536.87 668.669 2539.62 672.907 2541.67 678.188C2543.72 683.468 2544.74 689.97 2544.74 697.693V703.081H2480.94V692.089H2531.81C2531.81 687.42 2530.87 683.253 2529.01 679.589C2527.17 675.925 2524.55 673.033 2521.14 670.914C2517.76 668.794 2513.77 667.735 2509.18 667.735C2504.11 667.735 2499.73 668.992 2496.03 671.506C2492.37 673.985 2489.55 677.218 2487.57 681.205C2485.59 685.192 2484.61 689.467 2484.61 694.029V701.357C2484.61 707.607 2485.68 712.906 2487.84 717.252C2490.03 721.563 2493.07 724.85 2496.95 727.113C2500.83 729.34 2505.33 730.454 2510.47 730.454C2513.81 730.454 2516.83 729.987 2519.52 729.053C2522.25 728.083 2524.61 726.646 2526.58 724.742C2528.56 722.802 2530.08 720.396 2531.16 717.522L2543.45 720.97C2542.15 725.137 2539.98 728.801 2536.93 731.962C2533.87 735.087 2530.1 737.53 2525.61 739.29C2521.12 741.014 2516.07 741.877 2510.47 741.877Z" fill="#141414"/>
</g>
<rect x="1021.48" y="193.226" width="2987.96" height="2766.2" rx="285.957" stroke="#DDDDDD" stroke-width="11.6717"/>
<rect x="426.226" y="1115.29" width="490.213" height="922.067" rx="245.106" fill="white"/>
<rect x="426.226" y="1115.29" width="490.213" height="922.067" rx="245.106" stroke="#DDDDDD" stroke-width="11.6717"/>
<path d="M768.594 1569.52V1623.1C768.594 1658.82 759.663 1667.75 723.941 1667.75H634.637C598.915 1667.75 589.984 1658.82 589.984 1623.1V1533.8C589.984 1498.08 598.915 1489.14 634.637 1489.14H648.032C661.428 1489.14 664.375 1493.07 669.466 1499.86L682.861 1517.72C686.255 1522.19 688.22 1524.87 697.15 1524.87H723.941C759.663 1524.87 768.594 1533.8 768.594 1569.52Z" stroke="#8681FF" stroke-width="19.2898" stroke-miterlimit="10"/>
<path d="M643.57 1489.14H723.945C741.805 1489.14 750.736 1498.08 750.736 1515.94V1528.26" stroke="#8681FF" stroke-width="19.2898" stroke-miterlimit="10" stroke-linecap="round" stroke-linejoin="round"/>
<path d="M643.555 693.16H706.057" stroke="#8681FF" stroke-width="19.2864" stroke-miterlimit="10" stroke-linecap="round" stroke-linejoin="round"/>
<path d="M643.555 728.875H682.663" stroke="#8681FF" stroke-width="19.2864" stroke-miterlimit="10" stroke-linecap="round" stroke-linejoin="round"/>
<path d="M661.412 637.803H697.128C714.986 637.803 714.986 628.875 714.986 619.946C714.986 602.088 706.057 602.088 697.128 602.088H661.412C652.484 602.088 643.555 602.088 643.555 619.946C643.555 637.803 652.484 637.803 661.412 637.803Z" stroke="#8681FF" stroke-width="19.2864" stroke-miterlimit="10" stroke-linecap="round" stroke-linejoin="round"/>
<path d="M714.982 620.117C744.715 621.724 759.626 632.707 759.626 673.512V727.085C759.626 762.801 750.697 780.658 706.053 780.658H652.479C607.835 780.658 598.906 762.801 598.906 727.085V673.512C598.906 632.796 613.817 621.724 643.551 620.117" stroke="#8681FF" stroke-width="19.2864" stroke-miterlimit="10" stroke-linecap="round" stroke-linejoin="round"/>
<path d="M652.479 2519.75H706.052C750.696 2519.75 768.554 2501.9 768.554 2457.25V2403.68C768.554 2359.03 750.696 2341.18 706.052 2341.18H652.479C607.834 2341.18 589.977 2359.03 589.977 2403.68V2457.25C589.977 2501.9 607.834 2519.75 652.479 2519.75Z" stroke="#8681FF" stroke-width="19.2864" stroke-linecap="round" stroke-linejoin="round"/>
<path d="M652.484 2408.23L679.271 2381.44L706.058 2408.23" stroke="#8681FF" stroke-width="19.2864" stroke-linecap="round" stroke-linejoin="round"/>
<path d="M679.281 2381.44V2452.87" stroke="#8681FF" stroke-width="19.2864" stroke-linecap="round" stroke-linejoin="round"/>
<path d="M625.703 2470.73C660.436 2482.34 698.116 2482.34 732.85 2470.73" stroke="#8681FF" stroke-width="19.2864" stroke-linecap="round" stroke-linejoin="round"/>
</g>
<rect x="286.164" y="53.1641" width="3851.67" height="3022.98" rx="449.362" stroke="url(#paint4_linear_362_159)" stroke-width="11.6717"/>
</g>
<defs>
<filter id="filter0_dddd_362_159" x="0.206543" y="0.641193" width="4423.59" height="4050.09" filterUnits="userSpaceOnUse" color-interpolation-filters="sRGB">
<feFlood flood-opacity="0" result="BackgroundImageFix"/>
<feColorMatrix in="SourceAlpha" type="matrix" values="0 0 0 0 0 0 0 0 0 0 0 0 0 0 0 0 0 0 127 0" result="hardAlpha"/>
<feOffset dy="46.6869"/>
<feGaussianBlur stdDeviation="46.6869"/>
<feColorMatrix type="matrix" values="0 0 0 0 0.286275 0 0 0 0 0.317647 0 0 0 0 0.454902 0 0 0 0.1 0"/>
<feBlend mode="normal" in2="BackgroundImageFix" result="effect1_dropShadow_362_159"/>
<feColorMatrix in="SourceAlpha" type="matrix" values="0 0 0 0 0 0 0 0 0 0 0 0 0 0 0 0 0 0 127 0" result="hardAlpha"/>
<feOffset dy="175.076"/>
<feGaussianBlur stdDeviation="87.538"/>
<feColorMatrix type="matrix" values="0 0 0 0 0.286275 0 0 0 0 0.317647 0 0 0 0 0.454902 0 0 0 0.09 0"/>
<feBlend mode="normal" in2="effect1_dropShadow_362_159" result="effect2_dropShadow_362_159"/>
<feColorMatrix in="SourceAlpha" type="matrix" values="0 0 0 0 0 0 0 0 0 0 0 0 0 0 0 0 0 0 127 0" result="hardAlpha"/>
<feOffset dy="385.167"/>
<feGaussianBlur stdDeviation="116.717"/>
<feColorMatrix type="matrix" values="0 0 0 0 0.286275 0 0 0 0 0.317647 0 0 0 0 0.454902 0 0 0 0.05 0"/>
<feBlend mode="normal" in2="effect2_dropShadow_362_159" result="effect3_dropShadow_362_159"/>
<feColorMatrix in="SourceAlpha" type="matrix" values="0 0 0 0 0 0 0 0 0 0 0 0 0 0 0 0 0 0 127 0" result="hardAlpha"/>
<feOffset dy="688.632"/>
<feGaussianBlur stdDeviation="140.061"/>
<feColorMatrix type="matrix" values="0 0 0 0 0.286275 0 0 0 0 0.317647 0 0 0 0 0.454902 0 0 0 0.01 0"/>
<feBlend mode="normal" in2="effect3_dropShadow_362_159" result="effect4_dropShadow_362_159"/>
<feBlend mode="normal" in="SourceGraphic" in2="effect4_dropShadow_362_159" result="shape"/>
</filter>
<filter id="filter1_dddd_362_159" x="1214.07" y="455.84" width="455.194" height="513.557" filterUnits="userSpaceOnUse" color-interpolation-filters="sRGB">
<feFlood flood-opacity="0" result="BackgroundImageFix"/>
<feColorMatrix in="SourceAlpha" type="matrix" values="0 0 0 0 0 0 0 0 0 0 0 0 0 0 0 0 0 0 127 0" result="hardAlpha"/>
<feOffset dy="11.6717"/>
<feGaussianBlur stdDeviation="5.83587"/>
<feColorMatrix type="matrix" values="0 0 0 0 0 0 0 0 0 0 0 0 0 0 0 0 0 0 0.05 0"/>
<feBlend mode="normal" in2="BackgroundImageFix" result="effect1_dropShadow_362_159"/>
<feColorMatrix in="SourceAlpha" type="matrix" values="0 0 0 0 0 0 0 0 0 0 0 0 0 0 0 0 0 0 127 0" result="hardAlpha"/>
<feOffset dy="23.3435"/>
<feGaussianBlur stdDeviation="11.6717"/>
<feColorMatrix type="matrix" values="0 0 0 0 0 0 0 0 0 0 0 0 0 0 0 0 0 0 0.04 0"/>
<feBlend mode="normal" in2="effect1_dropShadow_362_159" result="effect2_dropShadow_362_159"/>
<feColorMatrix in="SourceAlpha" type="matrix" values="0 0 0 0 0 0 0 0 0 0 0 0 0 0 0 0 0 0 127 0" result="hardAlpha"/>
<feOffset dy="58.3587"/>
<feGaussianBlur stdDeviation="17.5076"/>
<feColorMatrix type="matrix" values="0 0 0 0 0 0 0 0 0 0 0 0 0 0 0 0 0 0 0.03 0"/>
<feBlend mode="normal" in2="effect2_dropShadow_362_159" result="effect3_dropShadow_362_159"/>
<feColorMatrix in="SourceAlpha" type="matrix" values="0 0 0 0 0 0 0 0 0 0 0 0 0 0 0 0 0 0 127 0" result="hardAlpha"/>
<feOffset dy="105.046"/>
<feGaussianBlur stdDeviation="23.3435"/>
<feColorMatrix type="matrix" values="0 0 0 0 0 0 0 0 0 0 0 0 0 0 0 0 0 0 0.01 0"/>
<feBlend mode="normal" in2="effect3_dropShadow_362_159" result="effect4_dropShadow_362_159"/>
<feBlend mode="normal" in="SourceGraphic" in2="effect4_dropShadow_362_159" result="shape"/>
</filter>
<filter id="filter2_dddd_362_159" x="1214.07" y="1039.43" width="455.194" height="513.557" filterUnits="userSpaceOnUse" color-interpolation-filters="sRGB">
<feFlood flood-opacity="0" result="BackgroundImageFix"/>
<feColorMatrix in="SourceAlpha" type="matrix" values="0 0 0 0 0 0 0 0 0 0 0 0 0 0 0 0 0 0 127 0" result="hardAlpha"/>
<feOffset dy="11.6717"/>
<feGaussianBlur stdDeviation="5.83587"/>
<feColorMatrix type="matrix" values="0 0 0 0 0 0 0 0 0 0 0 0 0 0 0 0 0 0 0.05 0"/>
<feBlend mode="normal" in2="BackgroundImageFix" result="effect1_dropShadow_362_159"/>
<feColorMatrix in="SourceAlpha" type="matrix" values="0 0 0 0 0 0 0 0 0 0 0 0 0 0 0 0 0 0 127 0" result="hardAlpha"/>
<feOffset dy="23.3435"/>
<feGaussianBlur stdDeviation="11.6717"/>
<feColorMatrix type="matrix" values="0 0 0 0 0 0 0 0 0 0 0 0 0 0 0 0 0 0 0.04 0"/>
<feBlend mode="normal" in2="effect1_dropShadow_362_159" result="effect2_dropShadow_362_159"/>
<feColorMatrix in="SourceAlpha" type="matrix" values="0 0 0 0 0 0 0 0 0 0 0 0 0 0 0 0 0 0 127 0" result="hardAlpha"/>
<feOffset dy="58.3587"/>
<feGaussianBlur stdDeviation="17.5076"/>
<feColorMatrix type="matrix" values="0 0 0 0 0 0 0 0 0 0 0 0 0 0 0 0 0 0 0.03 0"/>
<feBlend mode="normal" in2="effect2_dropShadow_362_159" result="effect3_dropShadow_362_159"/>
<feColorMatrix in="SourceAlpha" type="matrix" values="0 0 0 0 0 0 0 0 0 0 0 0 0 0 0 0 0 0 127 0" result="hardAlpha"/>
<feOffset dy="105.046"/>
<feGaussianBlur stdDeviation="23.3435"/>
<feColorMatrix type="matrix" values="0 0 0 0 0 0 0 0 0 0 0 0 0 0 0 0 0 0 0.01 0"/>
<feBlend mode="normal" in2="effect3_dropShadow_362_159" result="effect4_dropShadow_362_159"/>
<feBlend mode="normal" in="SourceGraphic" in2="effect4_dropShadow_362_159" result="shape"/>
</filter>
<filter id="filter3_dddd_362_159" x="1190.73" y="1599.67" width="501.882" height="560.244" filterUnits="userSpaceOnUse" color-interpolation-filters="sRGB">
<feFlood flood-opacity="0" result="BackgroundImageFix"/>
<feColorMatrix in="SourceAlpha" type="matrix" values="0 0 0 0 0 0 0 0 0 0 0 0 0 0 0 0 0 0 127 0" result="hardAlpha"/>
<feOffset dy="11.6717"/>
<feGaussianBlur stdDeviation="5.83587"/>
<feColorMatrix type="matrix" values="0 0 0 0 0 0 0 0 0 0 0 0 0 0 0 0 0 0 0.05 0"/>
<feBlend mode="normal" in2="BackgroundImageFix" result="effect1_dropShadow_362_159"/>
<feColorMatrix in="SourceAlpha" type="matrix" values="0 0 0 0 0 0 0 0 0 0 0 0 0 0 0 0 0 0 127 0" result="hardAlpha"/>
<feOffset dy="23.3435"/>
<feGaussianBlur stdDeviation="11.6717"/>
<feColorMatrix type="matrix" values="0 0 0 0 0 0 0 0 0 0 0 0 0 0 0 0 0 0 0.04 0"/>
<feBlend mode="normal" in2="effect1_dropShadow_362_159" result="effect2_dropShadow_362_159"/>
<feColorMatrix in="SourceAlpha" type="matrix" values="0 0 0 0 0 0 0 0 0 0 0 0 0 0 0 0 0 0 127 0" result="hardAlpha"/>
<feOffset dy="58.3587"/>
<feGaussianBlur stdDeviation="17.5076"/>
<feColorMatrix type="matrix" values="0 0 0 0 0 0 0 0 0 0 0 0 0 0 0 0 0 0 0.03 0"/>
<feBlend mode="normal" in2="effect2_dropShadow_362_159" result="effect3_dropShadow_362_159"/>
<feColorMatrix in="SourceAlpha" type="matrix" values="0 0 0 0 0 0 0 0 0 0 0 0 0 0 0 0 0 0 127 0" result="hardAlpha"/>
<feOffset dy="105.046"/>
<feGaussianBlur stdDeviation="23.3435"/>
<feColorMatrix type="matrix" values="0 0 0 0 0 0 0 0 0 0 0 0 0 0 0 0 0 0 0.01 0"/>
<feBlend mode="normal" in2="effect3_dropShadow_362_159" result="effect4_dropShadow_362_159"/>
<feBlend mode="normal" in="SourceGraphic" in2="effect4_dropShadow_362_159" result="shape"/>
</filter>
<filter id="filter4_dddd_362_159" x="1330.79" y="1739.73" width="221.764" height="280.123" filterUnits="userSpaceOnUse" color-interpolation-filters="sRGB">
<feFlood flood-opacity="0" result="BackgroundImageFix"/>
<feColorMatrix in="SourceAlpha" type="matrix" values="0 0 0 0 0 0 0 0 0 0 0 0 0 0 0 0 0 0 127 0" result="hardAlpha"/>
<feOffset dy="11.6717"/>
<feGaussianBlur stdDeviation="5.83587"/>
<feColorMatrix type="matrix" values="0 0 0 0 0 0 0 0 0 0 0 0 0 0 0 0 0 0 0.05 0"/>
<feBlend mode="normal" in2="BackgroundImageFix" result="effect1_dropShadow_362_159"/>
<feColorMatrix in="SourceAlpha" type="matrix" values="0 0 0 0 0 0 0 0 0 0 0 0 0 0 0 0 0 0 127 0" result="hardAlpha"/>
<feOffset dy="23.3435"/>
<feGaussianBlur stdDeviation="11.6717"/>
<feColorMatrix type="matrix" values="0 0 0 0 0 0 0 0 0 0 0 0 0 0 0 0 0 0 0.04 0"/>
<feBlend mode="normal" in2="effect1_dropShadow_362_159" result="effect2_dropShadow_362_159"/>
<feColorMatrix in="SourceAlpha" type="matrix" values="0 0 0 0 0 0 0 0 0 0 0 0 0 0 0 0 0 0 127 0" result="hardAlpha"/>
<feOffset dy="58.3587"/>
<feGaussianBlur stdDeviation="17.5076"/>
<feColorMatrix type="matrix" values="0 0 0 0 0 0 0 0 0 0 0 0 0 0 0 0 0 0 0.03 0"/>
<feBlend mode="normal" in2="effect2_dropShadow_362_159" result="effect3_dropShadow_362_159"/>
<feColorMatrix in="SourceAlpha" type="matrix" values="0 0 0 0 0 0 0 0 0 0 0 0 0 0 0 0 0 0 127 0" result="hardAlpha"/>
<feOffset dy="105.046"/>
<feGaussianBlur stdDeviation="23.3435"/>
<feColorMatrix type="matrix" values="0 0 0 0 0 0 0 0 0 0 0 0 0 0 0 0 0 0 0.01 0"/>
<feBlend mode="normal" in2="effect3_dropShadow_362_159" result="effect4_dropShadow_362_159"/>
<feBlend mode="normal" in="SourceGraphic" in2="effect4_dropShadow_362_159" result="shape"/>
</filter>
<linearGradient id="paint0_linear_362_159" x1="1441.67" y1="455.84" x2="1441.67" y2="817.664" gradientUnits="userSpaceOnUse">
<stop stop-color="white"/>
<stop offset="1" stop-color="#EFEFEF"/>
</linearGradient>
<linearGradient id="paint1_linear_362_159" x1="1441.67" y1="455.84" x2="1441.67" y2="817.664" gradientUnits="userSpaceOnUse">
<stop stop-color="#DDDDDD"/>
<stop offset="1" stop-color="white"/>
</linearGradient>
<linearGradient id="paint2_linear_362_159" x1="1441.67" y1="1039.43" x2="1441.67" y2="1401.25" gradientUnits="userSpaceOnUse">
<stop stop-color="white"/>
<stop offset="1" stop-color="#EFEFEF"/>
</linearGradient>
<linearGradient id="paint3_linear_362_159" x1="1441.67" y1="1039.43" x2="1441.67" y2="1401.25" gradientUnits="userSpaceOnUse">
<stop stop-color="#DDDDDD"/>
<stop offset="1" stop-color="white"/>
</linearGradient>
<linearGradient id="paint4_linear_362_159" x1="292" y1="356.629" x2="4132" y2="2924.41" gradientUnits="userSpaceOnUse">
<stop stop-color="#DDDDDD"/>
<stop offset="1" stop-color="#C8C8C8"/>
</linearGradient>
<clipPath id="clip0_362_159">
<rect x="292" y="59" width="3840" height="3011.31" rx="443.526" fill="white"/>
</clipPath>
<clipPath id="clip1_362_159">
<rect x="1015.65" y="187.391" width="2999.64" height="2777.87" rx="291.793" fill="white"/>
</clipPath>
<clipPath id="clip2_362_159">
<rect x="1179.05" y="374.137" width="525.228" height="525.228" rx="262.614" fill="white"/>
</clipPath>
<clipPath id="clip3_362_159">
<rect x="1179.05" y="957.723" width="525.228" height="525.228" rx="262.614" fill="white"/>
</clipPath>
<clipPath id="clip4_362_159">
<rect x="1179.05" y="1541.31" width="525.228" height="525.228" rx="262.614" fill="white"/>
</clipPath>
</defs>
</svg>
