<svg width="407" height="259" viewBox="0 0 407 259" fill="none" xmlns="http://www.w3.org/2000/svg">
<g clip-path="url(#clip0_381_192)">
<rect x="20.5938" y="48.4199" width="364.067" height="45.7648" rx="8.55126" fill="white"/>
<rect x="20.5938" y="48.4199" width="364.067" height="45.7648" rx="8.55126" stroke="#EBEBEB"/>
<path d="M43.4727 63.0039V81.1064" stroke="#9FA2AB" stroke-width="3.01709" stroke-linecap="round"/>
<path d="M52.5312 72.0469L34.4287 72.0469" stroke="#9FA2AB" stroke-width="3.01709" stroke-linecap="round"/>
<path d="M69.125 72.0586H129.467" stroke="#9FA2AB" stroke-width="4.52563" stroke-linecap="round"/>
<path d="M155.863 72.0586H216.205" stroke="#9FA2AB" stroke-width="4.52563" stroke-linecap="round"/>
<path d="M264.48 72.0586H281.074" stroke="#9FA2AB" stroke-width="4.52563" stroke-linecap="round"/>
<path d="M290.121 72.0586H306.715" stroke="#9FA2AB" stroke-width="4.52563" stroke-linecap="round"/>
<path d="M315.773 72.0586H332.367" stroke="#9FA2AB" stroke-width="4.52563" stroke-linecap="round"/>
<circle cx="350.47" cy="72.0561" r="3.01709" fill="#9FA2AB"/>
<circle cx="359.513" cy="72.0561" r="3.01709" fill="#9FA2AB"/>
<circle cx="368.568" cy="72.0561" r="3.01709" fill="#9FA2AB"/>
<rect x="20.5938" y="163.07" width="364.067" height="45.7648" rx="8.55126" fill="white"/>
<rect x="20.5938" y="163.07" width="364.067" height="45.7648" rx="8.55126" stroke="#EBEBEB"/>
<path d="M43.4727 177.654V195.757" stroke="#9FA2AB" stroke-width="3.01709" stroke-linecap="round"/>
<path d="M52.5312 186.697L34.4287 186.697" stroke="#9FA2AB" stroke-width="3.01709" stroke-linecap="round"/>
<path d="M69.125 186.707H129.467" stroke="#9FA2AB" stroke-width="4.52563" stroke-linecap="round"/>
<path d="M155.863 186.707H216.205" stroke="#9FA2AB" stroke-width="4.52563" stroke-linecap="round"/>
<path d="M264.48 186.707H281.074" stroke="#9FA2AB" stroke-width="4.52563" stroke-linecap="round"/>
<path d="M290.121 186.707H306.715" stroke="#9FA2AB" stroke-width="4.52563" stroke-linecap="round"/>
<path d="M315.773 186.707H332.367" stroke="#9FA2AB" stroke-width="4.52563" stroke-linecap="round"/>
<circle cx="350.47" cy="186.705" r="3.01709" fill="#9FA2AB"/>
<circle cx="359.513" cy="186.705" r="3.01709" fill="#9FA2AB"/>
<circle cx="368.568" cy="186.705" r="3.01709" fill="#9FA2AB"/>
<g opacity="0.7">
<rect x="45.7148" y="0.5" width="313.829" height="39.3293" rx="7.30567" fill="white"/>
<rect x="45.7148" y="0.5" width="313.829" height="39.3293" rx="7.30567" stroke="#EBEBEB"/>
<path d="M65.375 13.0078V28.6192" stroke="#9FA2AB" stroke-width="2.60189" stroke-linecap="round"/>
<path d="M73.1914 20.8086L57.5801 20.8086" stroke="#9FA2AB" stroke-width="2.60189" stroke-linecap="round"/>
<path d="M87.5 20.8145H139.538" stroke="#9FA2AB" stroke-width="3.90284" stroke-linecap="round"/>
<path d="M162.301 20.8145H214.339" stroke="#9FA2AB" stroke-width="3.90284" stroke-linecap="round"/>
<path d="M255.965 20.8145H270.275" stroke="#9FA2AB" stroke-width="3.90284" stroke-linecap="round"/>
<path d="M278.078 20.8145H292.389" stroke="#9FA2AB" stroke-width="3.90284" stroke-linecap="round"/>
<path d="M300.203 20.8145H314.514" stroke="#9FA2AB" stroke-width="3.90284" stroke-linecap="round"/>
<circle cx="330.121" cy="20.8148" r="2.60189" fill="#9FA2AB"/>
<circle cx="337.926" cy="20.8148" r="2.60189" fill="#9FA2AB"/>
<circle cx="345.739" cy="20.8148" r="2.60189" fill="#9FA2AB"/>
</g>
<g opacity="0.7">
<rect x="45.7148" y="218.33" width="313.829" height="39.3293" rx="7.30567" fill="white"/>
<rect x="45.7148" y="218.33" width="313.829" height="39.3293" rx="7.30567" stroke="#EBEBEB"/>
<path d="M65.3828 230.838V246.449" stroke="#9FA2AB" stroke-width="2.60189" stroke-linecap="round"/>
<path d="M73.1914 238.641L57.5801 238.641" stroke="#9FA2AB" stroke-width="2.60189" stroke-linecap="round"/>
<path d="M87.5 238.646H139.538" stroke="#9FA2AB" stroke-width="3.90284" stroke-linecap="round"/>
<path d="M162.301 238.646H214.339" stroke="#9FA2AB" stroke-width="3.90284" stroke-linecap="round"/>
<path d="M255.965 238.646H270.275" stroke="#9FA2AB" stroke-width="3.90284" stroke-linecap="round"/>
<path d="M278.078 238.646H292.389" stroke="#9FA2AB" stroke-width="3.90284" stroke-linecap="round"/>
<path d="M300.203 238.646H314.514" stroke="#9FA2AB" stroke-width="3.90284" stroke-linecap="round"/>
<circle cx="330.121" cy="238.645" r="2.60189" fill="#9FA2AB"/>
<circle cx="337.926" cy="238.645" r="2.60189" fill="#9FA2AB"/>
<circle cx="345.739" cy="238.645" r="2.60189" fill="#9FA2AB"/>
</g>
<g filter="url(#filter0_dddd_381_192)">
<g clip-path="url(#clip1_381_192)">
<rect y="102.283" width="405.258" height="51.9132" rx="10.0477" fill="white"/>
<path d="M25.957 119.029V139.125" stroke="#9FA2AB" stroke-width="3.34924" stroke-linecap="round"/>
<path d="M36.0117 129.068L15.9163 129.068" stroke="#9FA2AB" stroke-width="3.34924" stroke-linecap="round"/>
<path d="M284.629 128L298.629 128" stroke="#2CAD84" stroke-width="5.02386" stroke-linecap="round"/>
<path d="M310.629 128L323.629 128" stroke="#2CAD84" stroke-width="5.02386" stroke-linecap="round"/>
<path d="M335.629 128L349.629 128" stroke="#2CAD84" stroke-width="5.02386" stroke-linecap="round"/>
<circle cx="366.744" cy="128.349" r="3.34924" fill="#9FA2AB"/>
<circle cx="376.787" cy="128.349" r="3.34924" fill="#9FA2AB"/>
<circle cx="386.838" cy="128.349" r="3.34924" fill="#9FA2AB"/>
<g filter="url(#filter1_dddd_381_192)">
<rect x="48.6289" y="111" width="66" height="34" rx="3" fill="white"/>
<rect x="48.8789" y="111.25" width="65.5" height="33.5" rx="2.75" stroke="#DDDDDD" stroke-width="0.5"/>
<path d="M63.108 123.155V124.352H59.3113V126.99H62.2714V128.187H59.3113V132.1H57.8442V123.155H63.108ZM63.9786 128.522C63.9786 127.81 64.1245 127.179 64.4162 126.63C64.7165 126.081 65.1198 125.656 65.626 125.356C66.1408 125.047 66.7071 124.892 67.3248 124.892C67.8825 124.892 68.3673 125.004 68.7791 125.227C69.1996 125.442 69.5342 125.712 69.783 126.038V125.008H71.263V132.1H69.783V131.044C69.5342 131.379 69.1953 131.658 68.7663 131.881C68.3373 132.104 67.8482 132.215 67.2991 132.215C66.6899 132.215 66.1322 132.061 65.626 131.752C65.1198 131.435 64.7165 130.997 64.4162 130.439C64.1245 129.873 63.9786 129.234 63.9786 128.522ZM69.783 128.547C69.783 128.058 69.68 127.634 69.4741 127.273C69.2768 126.913 69.0151 126.638 68.689 126.45C68.363 126.261 68.0112 126.167 67.6337 126.167C67.2562 126.167 66.9044 126.261 66.5784 126.45C66.2523 126.63 65.9863 126.9 65.7804 127.26C65.5831 127.612 65.4844 128.033 65.4844 128.522C65.4844 129.011 65.5831 129.44 65.7804 129.809C65.9863 130.178 66.2523 130.461 66.5784 130.658C66.913 130.847 67.2648 130.941 67.6337 130.941C68.0112 130.941 68.363 130.847 68.689 130.658C69.0151 130.469 69.2768 130.195 69.4741 129.834C69.68 129.466 69.783 129.037 69.783 128.547ZM72.7011 128.547C72.7011 127.818 72.8469 127.179 73.1386 126.63C73.4389 126.072 73.8508 125.643 74.3742 125.343C74.8975 125.043 75.4981 124.892 76.176 124.892C77.034 124.892 77.7418 125.098 78.2995 125.51C78.8658 125.913 79.2476 126.493 79.4449 127.248H77.8619C77.7332 126.896 77.5273 126.621 77.2442 126.424C76.961 126.227 76.605 126.128 76.176 126.128C75.5754 126.128 75.0949 126.342 74.7345 126.771C74.3827 127.192 74.2069 127.784 74.2069 128.547C74.2069 129.311 74.3827 129.907 74.7345 130.336C75.0949 130.765 75.5754 130.98 76.176 130.98C77.0254 130.98 77.5874 130.607 77.8619 129.86H79.4449C79.239 130.581 78.8529 131.156 78.2866 131.585C77.7204 132.005 77.0168 132.215 76.176 132.215C75.4981 132.215 74.8975 132.065 74.3742 131.765C73.8508 131.456 73.4389 131.027 73.1386 130.478C72.8469 129.92 72.7011 129.277 72.7011 128.547ZM82.6188 126.205V130.13C82.6188 130.396 82.6789 130.59 82.799 130.71C82.9277 130.821 83.1422 130.877 83.4425 130.877H84.3434V132.1H83.1851C82.5244 132.1 82.0182 131.945 81.6664 131.636C81.3146 131.327 81.1388 130.825 81.1388 130.13V126.205H80.3022V125.008H81.1388V123.245H82.6188V125.008H84.3434V126.205H82.6188ZM92.1178 125.008V132.1H90.6506V131.263C90.4189 131.555 90.1143 131.786 89.7368 131.958C89.3679 132.121 88.9732 132.203 88.5528 132.203C87.9951 132.203 87.4932 132.087 87.047 131.855C86.6094 131.623 86.2619 131.28 86.0045 130.825C85.7557 130.371 85.6313 129.822 85.6313 129.178V125.008H87.0856V128.959C87.0856 129.594 87.2443 130.083 87.5618 130.427C87.8793 130.761 88.3125 130.928 88.8617 130.928C89.4108 130.928 89.8441 130.761 90.1615 130.427C90.4876 130.083 90.6506 129.594 90.6506 128.959V125.008H92.1178ZM95.5208 126.038C95.7353 125.677 96.0184 125.399 96.3702 125.201C96.7306 124.995 97.1553 124.892 97.6443 124.892V126.411H97.2711C96.6962 126.411 96.2587 126.557 95.9584 126.849C95.6666 127.14 95.5208 127.647 95.5208 128.367V132.1H94.0536V125.008H95.5208V126.038ZM105.492 128.38C105.492 128.646 105.475 128.886 105.441 129.101H100.023C100.065 129.667 100.276 130.122 100.653 130.465C101.031 130.808 101.494 130.98 102.043 130.98C102.833 130.98 103.39 130.65 103.716 129.989H105.299C105.085 130.641 104.694 131.177 104.128 131.598C103.57 132.01 102.875 132.215 102.043 132.215C101.365 132.215 100.756 132.065 100.216 131.765C99.6837 131.456 99.2632 131.027 98.9544 130.478C98.6541 129.92 98.5039 129.277 98.5039 128.547C98.5039 127.818 98.6498 127.179 98.9415 126.63C99.2418 126.072 99.6579 125.643 100.19 125.343C100.73 125.043 101.348 124.892 102.043 124.892C102.712 124.892 103.309 125.038 103.832 125.33C104.355 125.622 104.763 126.034 105.055 126.566C105.346 127.089 105.492 127.694 105.492 128.38ZM103.961 127.917C103.952 127.376 103.759 126.943 103.382 126.617C103.004 126.291 102.537 126.128 101.979 126.128C101.473 126.128 101.039 126.291 100.679 126.617C100.319 126.934 100.104 127.368 100.035 127.917H103.961Z" fill="#141414"/>
</g>
<g filter="url(#filter2_dddd_381_192)">
<rect x="127.629" y="111" width="66" height="34" rx="3" fill="white"/>
<rect x="127.879" y="111.25" width="65.5" height="33.5" rx="2.75" stroke="#DDDDDD" stroke-width="0.5"/>
<path d="M146.629 128H174.629" stroke="#9FA2AB" stroke-width="4" stroke-linecap="round"/>
</g>
<g filter="url(#filter3_dddd_381_192)">
<rect x="205.629" y="111" width="66" height="34" rx="3" fill="white"/>
<rect x="205.879" y="111.25" width="65.5" height="33.5" rx="2.75" stroke="#DDDDDD" stroke-width="0.5"/>
<path d="M224.629 128H252.629" stroke="#9FA2AB" stroke-width="4" stroke-linecap="round"/>
</g>
</g>
<rect x="0.5" y="102.783" width="404.258" height="50.9132" rx="9.54772" stroke="#EBEBEB"/>
</g>
<g filter="url(#filter4_dddd_381_192)">
<rect x="317.629" y="156" width="87.0101" height="87.8388" rx="5" fill="white"/>
<rect x="317.976" y="156.347" width="86.3163" height="87.1449" rx="4.65307" stroke="#EBEBEB" stroke-width="0.693852"/>
<path d="M329.898 188.387H392.345" stroke="#9FA2AB" stroke-width="3.23415" stroke-linecap="round"/>
<path d="M329.898 205.387H368.754" stroke="#8581FF" stroke-width="3.23415" stroke-linecap="round"/>
<path d="M329.898 171.387H375.693" stroke="#9FA2AB" stroke-width="3.23415" stroke-linecap="round"/>
<rect x="325.629" y="219" width="71" height="18" rx="2" fill="#141414"/>
<path d="M350.09 226.099V228.126H352.299V228.778H350.09V230.865H352.56V231.518H349.299V225.447H352.56V226.099H350.09ZM353.462 229.117C353.462 228.63 353.56 228.204 353.758 227.839C353.955 227.468 354.224 227.181 354.566 226.978C354.914 226.775 355.303 226.673 355.732 226.673C356.103 226.673 356.448 226.76 356.767 226.934C357.086 227.102 357.329 227.326 357.497 227.604V225.082H358.298V231.518H357.497V230.622C357.341 230.906 357.109 231.141 356.802 231.326C356.494 231.506 356.135 231.596 355.723 231.596C355.3 231.596 354.914 231.491 354.566 231.283C354.224 231.074 353.955 230.781 353.758 230.404C353.56 230.027 353.462 229.598 353.462 229.117ZM357.497 229.126C357.497 228.766 357.425 228.453 357.28 228.187C357.135 227.92 356.938 227.717 356.689 227.578C356.445 227.433 356.175 227.36 355.88 227.36C355.584 227.36 355.314 227.43 355.071 227.569C354.827 227.708 354.633 227.911 354.488 228.178C354.343 228.445 354.271 228.758 354.271 229.117C354.271 229.482 354.343 229.801 354.488 230.074C354.633 230.341 354.827 230.546 355.071 230.691C355.314 230.83 355.584 230.9 355.88 230.9C356.175 230.9 356.445 230.83 356.689 230.691C356.938 230.546 357.135 230.341 357.28 230.074C357.425 229.801 357.497 229.485 357.497 229.126ZM360.044 225.977C359.893 225.977 359.765 225.925 359.661 225.821C359.557 225.717 359.505 225.589 359.505 225.438C359.505 225.287 359.557 225.16 359.661 225.056C359.765 224.951 359.893 224.899 360.044 224.899C360.189 224.899 360.31 224.951 360.409 225.056C360.513 225.16 360.566 225.287 360.566 225.438C360.566 225.589 360.513 225.717 360.409 225.821C360.31 225.925 360.189 225.977 360.044 225.977ZM360.426 226.752V231.518H359.635V226.752H360.426ZM362.741 227.404V230.213C362.741 230.445 362.79 230.61 362.889 230.709C362.987 230.802 363.158 230.848 363.402 230.848H363.984V231.518H363.271C362.831 231.518 362.5 231.416 362.28 231.213C362.059 231.01 361.949 230.677 361.949 230.213V227.404H361.332V226.752H361.949V225.551H362.741V226.752H363.984V227.404H362.741ZM369.292 228.952C369.292 229.103 369.283 229.262 369.266 229.43H365.456C365.485 229.9 365.645 230.268 365.935 230.535C366.231 230.796 366.587 230.926 367.005 230.926C367.347 230.926 367.631 230.848 367.857 230.691C368.089 230.529 368.251 230.314 368.344 230.048H369.196C369.069 230.506 368.814 230.88 368.431 231.17C368.048 231.454 367.573 231.596 367.005 231.596C366.552 231.596 366.146 231.494 365.787 231.291C365.433 231.089 365.155 230.802 364.952 230.43C364.749 230.054 364.648 229.619 364.648 229.126C364.648 228.633 364.746 228.201 364.943 227.83C365.14 227.459 365.416 227.175 365.77 226.978C366.129 226.775 366.541 226.673 367.005 226.673C367.457 226.673 367.857 226.772 368.205 226.969C368.553 227.166 368.819 227.439 369.005 227.786C369.196 228.129 369.292 228.517 369.292 228.952ZM368.474 228.787C368.474 228.485 368.408 228.227 368.274 228.013C368.141 227.792 367.958 227.627 367.726 227.517C367.5 227.401 367.248 227.343 366.97 227.343C366.57 227.343 366.228 227.47 365.944 227.726C365.665 227.981 365.506 228.334 365.465 228.787H368.474ZM371.128 227.526C371.267 227.253 371.464 227.041 371.719 226.891C371.98 226.74 372.296 226.665 372.667 226.665V227.482H372.459C371.572 227.482 371.128 227.963 371.128 228.926V231.518H370.337V226.752H371.128V227.526Z" fill="white"/>
</g>
<g filter="url(#filter5_dddd_381_192)">
<path d="M393.517 232.56C393.255 232.451 392.994 232.719 393.11 232.978L398.672 245.376C398.787 245.634 399.157 245.62 399.252 245.354L401.011 240.447C401.042 240.362 401.108 240.294 401.193 240.261L406.051 238.373C406.314 238.27 406.319 237.9 406.058 237.791L393.517 232.56Z" fill="#141414"/>
<path d="M393.45 232.72C393.333 232.671 393.216 232.791 393.268 232.907L398.829 245.305C398.881 245.42 399.047 245.414 399.09 245.295L400.849 240.389C400.896 240.256 400.999 240.15 401.131 240.099L405.989 238.211C406.106 238.165 406.108 237.999 405.992 237.951L393.45 232.72Z" stroke="white" stroke-width="0.346362"/>
</g>
</g>
<defs>
<filter id="filter0_dddd_381_192" x="-29" y="97.2832" width="463.258" height="158.914" filterUnits="userSpaceOnUse" color-interpolation-filters="sRGB">
<feFlood flood-opacity="0" result="BackgroundImageFix"/>
<feColorMatrix in="SourceAlpha" type="matrix" values="0 0 0 0 0 0 0 0 0 0 0 0 0 0 0 0 0 0 127 0" result="hardAlpha"/>
<feOffset dy="5"/>
<feGaussianBlur stdDeviation="5"/>
<feColorMatrix type="matrix" values="0 0 0 0 0.286275 0 0 0 0 0.317647 0 0 0 0 0.454902 0 0 0 0.1 0"/>
<feBlend mode="normal" in2="BackgroundImageFix" result="effect1_dropShadow_381_192"/>
<feColorMatrix in="SourceAlpha" type="matrix" values="0 0 0 0 0 0 0 0 0 0 0 0 0 0 0 0 0 0 127 0" result="hardAlpha"/>
<feOffset dy="18"/>
<feGaussianBlur stdDeviation="9"/>
<feColorMatrix type="matrix" values="0 0 0 0 0.286275 0 0 0 0 0.317647 0 0 0 0 0.454902 0 0 0 0.09 0"/>
<feBlend mode="normal" in2="effect1_dropShadow_381_192" result="effect2_dropShadow_381_192"/>
<feColorMatrix in="SourceAlpha" type="matrix" values="0 0 0 0 0 0 0 0 0 0 0 0 0 0 0 0 0 0 127 0" result="hardAlpha"/>
<feOffset dy="41"/>
<feGaussianBlur stdDeviation="12.5"/>
<feColorMatrix type="matrix" values="0 0 0 0 0.286275 0 0 0 0 0.317647 0 0 0 0 0.454902 0 0 0 0.05 0"/>
<feBlend mode="normal" in2="effect2_dropShadow_381_192" result="effect3_dropShadow_381_192"/>
<feColorMatrix in="SourceAlpha" type="matrix" values="0 0 0 0 0 0 0 0 0 0 0 0 0 0 0 0 0 0 127 0" result="hardAlpha"/>
<feOffset dy="73"/>
<feGaussianBlur stdDeviation="14.5"/>
<feColorMatrix type="matrix" values="0 0 0 0 0.286275 0 0 0 0 0.317647 0 0 0 0 0.454902 0 0 0 0.01 0"/>
<feBlend mode="normal" in2="effect3_dropShadow_381_192" result="effect4_dropShadow_381_192"/>
<feBlend mode="normal" in="SourceGraphic" in2="effect4_dropShadow_381_192" result="shape"/>
</filter>
<filter id="filter1_dddd_381_192" x="43.6289" y="110" width="76" height="52" filterUnits="userSpaceOnUse" color-interpolation-filters="sRGB">
<feFlood flood-opacity="0" result="BackgroundImageFix"/>
<feColorMatrix in="SourceAlpha" type="matrix" values="0 0 0 0 0 0 0 0 0 0 0 0 0 0 0 0 0 0 127 0" result="hardAlpha"/>
<feOffset dy="1"/>
<feGaussianBlur stdDeviation="1"/>
<feColorMatrix type="matrix" values="0 0 0 0 0.286275 0 0 0 0 0.317647 0 0 0 0 0.454902 0 0 0 0.1 0"/>
<feBlend mode="normal" in2="BackgroundImageFix" result="effect1_dropShadow_381_192"/>
<feColorMatrix in="SourceAlpha" type="matrix" values="0 0 0 0 0 0 0 0 0 0 0 0 0 0 0 0 0 0 127 0" result="hardAlpha"/>
<feOffset dy="3"/>
<feGaussianBlur stdDeviation="1.5"/>
<feColorMatrix type="matrix" values="0 0 0 0 0.286275 0 0 0 0 0.317647 0 0 0 0 0.454902 0 0 0 0.09 0"/>
<feBlend mode="normal" in2="effect1_dropShadow_381_192" result="effect2_dropShadow_381_192"/>
<feColorMatrix in="SourceAlpha" type="matrix" values="0 0 0 0 0 0 0 0 0 0 0 0 0 0 0 0 0 0 127 0" result="hardAlpha"/>
<feOffset dy="7"/>
<feGaussianBlur stdDeviation="2"/>
<feColorMatrix type="matrix" values="0 0 0 0 0.286275 0 0 0 0 0.317647 0 0 0 0 0.454902 0 0 0 0.05 0"/>
<feBlend mode="normal" in2="effect2_dropShadow_381_192" result="effect3_dropShadow_381_192"/>
<feColorMatrix in="SourceAlpha" type="matrix" values="0 0 0 0 0 0 0 0 0 0 0 0 0 0 0 0 0 0 127 0" result="hardAlpha"/>
<feOffset dy="12"/>
<feGaussianBlur stdDeviation="2.5"/>
<feColorMatrix type="matrix" values="0 0 0 0 0.286275 0 0 0 0 0.317647 0 0 0 0 0.454902 0 0 0 0.01 0"/>
<feBlend mode="normal" in2="effect3_dropShadow_381_192" result="effect4_dropShadow_381_192"/>
<feBlend mode="normal" in="SourceGraphic" in2="effect4_dropShadow_381_192" result="shape"/>
</filter>
<filter id="filter2_dddd_381_192" x="122.629" y="110" width="76" height="52" filterUnits="userSpaceOnUse" color-interpolation-filters="sRGB">
<feFlood flood-opacity="0" result="BackgroundImageFix"/>
<feColorMatrix in="SourceAlpha" type="matrix" values="0 0 0 0 0 0 0 0 0 0 0 0 0 0 0 0 0 0 127 0" result="hardAlpha"/>
<feOffset dy="1"/>
<feGaussianBlur stdDeviation="1"/>
<feColorMatrix type="matrix" values="0 0 0 0 0.286275 0 0 0 0 0.317647 0 0 0 0 0.454902 0 0 0 0.1 0"/>
<feBlend mode="normal" in2="BackgroundImageFix" result="effect1_dropShadow_381_192"/>
<feColorMatrix in="SourceAlpha" type="matrix" values="0 0 0 0 0 0 0 0 0 0 0 0 0 0 0 0 0 0 127 0" result="hardAlpha"/>
<feOffset dy="3"/>
<feGaussianBlur stdDeviation="1.5"/>
<feColorMatrix type="matrix" values="0 0 0 0 0.286275 0 0 0 0 0.317647 0 0 0 0 0.454902 0 0 0 0.09 0"/>
<feBlend mode="normal" in2="effect1_dropShadow_381_192" result="effect2_dropShadow_381_192"/>
<feColorMatrix in="SourceAlpha" type="matrix" values="0 0 0 0 0 0 0 0 0 0 0 0 0 0 0 0 0 0 127 0" result="hardAlpha"/>
<feOffset dy="7"/>
<feGaussianBlur stdDeviation="2"/>
<feColorMatrix type="matrix" values="0 0 0 0 0.286275 0 0 0 0 0.317647 0 0 0 0 0.454902 0 0 0 0.05 0"/>
<feBlend mode="normal" in2="effect2_dropShadow_381_192" result="effect3_dropShadow_381_192"/>
<feColorMatrix in="SourceAlpha" type="matrix" values="0 0 0 0 0 0 0 0 0 0 0 0 0 0 0 0 0 0 127 0" result="hardAlpha"/>
<feOffset dy="12"/>
<feGaussianBlur stdDeviation="2.5"/>
<feColorMatrix type="matrix" values="0 0 0 0 0.286275 0 0 0 0 0.317647 0 0 0 0 0.454902 0 0 0 0.01 0"/>
<feBlend mode="normal" in2="effect3_dropShadow_381_192" result="effect4_dropShadow_381_192"/>
<feBlend mode="normal" in="SourceGraphic" in2="effect4_dropShadow_381_192" result="shape"/>
</filter>
<filter id="filter3_dddd_381_192" x="200.629" y="110" width="76" height="52" filterUnits="userSpaceOnUse" color-interpolation-filters="sRGB">
<feFlood flood-opacity="0" result="BackgroundImageFix"/>
<feColorMatrix in="SourceAlpha" type="matrix" values="0 0 0 0 0 0 0 0 0 0 0 0 0 0 0 0 0 0 127 0" result="hardAlpha"/>
<feOffset dy="1"/>
<feGaussianBlur stdDeviation="1"/>
<feColorMatrix type="matrix" values="0 0 0 0 0.286275 0 0 0 0 0.317647 0 0 0 0 0.454902 0 0 0 0.1 0"/>
<feBlend mode="normal" in2="BackgroundImageFix" result="effect1_dropShadow_381_192"/>
<feColorMatrix in="SourceAlpha" type="matrix" values="0 0 0 0 0 0 0 0 0 0 0 0 0 0 0 0 0 0 127 0" result="hardAlpha"/>
<feOffset dy="3"/>
<feGaussianBlur stdDeviation="1.5"/>
<feColorMatrix type="matrix" values="0 0 0 0 0.286275 0 0 0 0 0.317647 0 0 0 0 0.454902 0 0 0 0.09 0"/>
<feBlend mode="normal" in2="effect1_dropShadow_381_192" result="effect2_dropShadow_381_192"/>
<feColorMatrix in="SourceAlpha" type="matrix" values="0 0 0 0 0 0 0 0 0 0 0 0 0 0 0 0 0 0 127 0" result="hardAlpha"/>
<feOffset dy="7"/>
<feGaussianBlur stdDeviation="2"/>
<feColorMatrix type="matrix" values="0 0 0 0 0.286275 0 0 0 0 0.317647 0 0 0 0 0.454902 0 0 0 0.05 0"/>
<feBlend mode="normal" in2="effect2_dropShadow_381_192" result="effect3_dropShadow_381_192"/>
<feColorMatrix in="SourceAlpha" type="matrix" values="0 0 0 0 0 0 0 0 0 0 0 0 0 0 0 0 0 0 127 0" result="hardAlpha"/>
<feOffset dy="12"/>
<feGaussianBlur stdDeviation="2.5"/>
<feColorMatrix type="matrix" values="0 0 0 0 0.286275 0 0 0 0 0.317647 0 0 0 0 0.454902 0 0 0 0.01 0"/>
<feBlend mode="normal" in2="effect3_dropShadow_381_192" result="effect4_dropShadow_381_192"/>
<feBlend mode="normal" in="SourceGraphic" in2="effect4_dropShadow_381_192" result="shape"/>
</filter>
<filter id="filter4_dddd_381_192" x="311" y="154.343" width="100.27" height="112.698" filterUnits="userSpaceOnUse" color-interpolation-filters="sRGB">
<feFlood flood-opacity="0" result="BackgroundImageFix"/>
<feColorMatrix in="SourceAlpha" type="matrix" values="0 0 0 0 0 0 0 0 0 0 0 0 0 0 0 0 0 0 127 0" result="hardAlpha"/>
<feOffset dy="0.828668"/>
<feGaussianBlur stdDeviation="1.243"/>
<feColorMatrix type="matrix" values="0 0 0 0 0.286275 0 0 0 0 0.317647 0 0 0 0 0.454902 0 0 0 0.1 0"/>
<feBlend mode="normal" in2="BackgroundImageFix" result="effect1_dropShadow_381_192"/>
<feColorMatrix in="SourceAlpha" type="matrix" values="0 0 0 0 0 0 0 0 0 0 0 0 0 0 0 0 0 0 127 0" result="hardAlpha"/>
<feOffset dy="4.14334"/>
<feGaussianBlur stdDeviation="2.07167"/>
<feColorMatrix type="matrix" values="0 0 0 0 0.286275 0 0 0 0 0.317647 0 0 0 0 0.454902 0 0 0 0.09 0"/>
<feBlend mode="normal" in2="effect1_dropShadow_381_192" result="effect2_dropShadow_381_192"/>
<feColorMatrix in="SourceAlpha" type="matrix" values="0 0 0 0 0 0 0 0 0 0 0 0 0 0 0 0 0 0 127 0" result="hardAlpha"/>
<feOffset dy="9.11535"/>
<feGaussianBlur stdDeviation="2.90034"/>
<feColorMatrix type="matrix" values="0 0 0 0 0.286275 0 0 0 0 0.317647 0 0 0 0 0.454902 0 0 0 0.05 0"/>
<feBlend mode="normal" in2="effect2_dropShadow_381_192" result="effect3_dropShadow_381_192"/>
<feColorMatrix in="SourceAlpha" type="matrix" values="0 0 0 0 0 0 0 0 0 0 0 0 0 0 0 0 0 0 127 0" result="hardAlpha"/>
<feOffset dy="16.5734"/>
<feGaussianBlur stdDeviation="3.31467"/>
<feColorMatrix type="matrix" values="0 0 0 0 0.286275 0 0 0 0 0.317647 0 0 0 0 0.454902 0 0 0 0.01 0"/>
<feBlend mode="normal" in2="effect3_dropShadow_381_192" result="effect4_dropShadow_381_192"/>
<feBlend mode="normal" in="SourceGraphic" in2="effect4_dropShadow_381_192" result="shape"/>
</filter>
<filter id="filter5_dddd_381_192" x="390.183" y="232.245" width="17.227" height="20.2757" filterUnits="userSpaceOnUse" color-interpolation-filters="sRGB">
<feFlood flood-opacity="0" result="BackgroundImageFix"/>
<feColorMatrix in="SourceAlpha" type="matrix" values="0 0 0 0 0 0 0 0 0 0 0 0 0 0 0 0 0 0 127 0" result="hardAlpha"/>
<feOffset dy="0.289932"/>
<feGaussianBlur stdDeviation="0.289932"/>
<feColorMatrix type="matrix" values="0 0 0 0 0 0 0 0 0 0 0 0 0 0 0 0 0 0 0.15 0"/>
<feBlend mode="normal" in2="BackgroundImageFix" result="effect1_dropShadow_381_192"/>
<feColorMatrix in="SourceAlpha" type="matrix" values="0 0 0 0 0 0 0 0 0 0 0 0 0 0 0 0 0 0 127 0" result="hardAlpha"/>
<feOffset dx="-0.289932" dy="1.15973"/>
<feGaussianBlur stdDeviation="0.579865"/>
<feColorMatrix type="matrix" values="0 0 0 0 0 0 0 0 0 0 0 0 0 0 0 0 0 0 0.13 0"/>
<feBlend mode="normal" in2="effect1_dropShadow_381_192" result="effect2_dropShadow_381_192"/>
<feColorMatrix in="SourceAlpha" type="matrix" values="0 0 0 0 0 0 0 0 0 0 0 0 0 0 0 0 0 0 127 0" result="hardAlpha"/>
<feOffset dx="-0.579865" dy="2.60939"/>
<feGaussianBlur stdDeviation="0.869797"/>
<feColorMatrix type="matrix" values="0 0 0 0 0 0 0 0 0 0 0 0 0 0 0 0 0 0 0.08 0"/>
<feBlend mode="normal" in2="effect2_dropShadow_381_192" result="effect3_dropShadow_381_192"/>
<feColorMatrix in="SourceAlpha" type="matrix" values="0 0 0 0 0 0 0 0 0 0 0 0 0 0 0 0 0 0 127 0" result="hardAlpha"/>
<feOffset dx="-0.869797" dy="4.92885"/>
<feGaussianBlur stdDeviation="1.01476"/>
<feColorMatrix type="matrix" values="0 0 0 0 0 0 0 0 0 0 0 0 0 0 0 0 0 0 0.02 0"/>
<feBlend mode="normal" in2="effect3_dropShadow_381_192" result="effect4_dropShadow_381_192"/>
<feBlend mode="normal" in="SourceGraphic" in2="effect4_dropShadow_381_192" result="shape"/>
</filter>
<clipPath id="clip0_381_192">
<rect width="406.776" height="258.159" fill="white"/>
</clipPath>
<clipPath id="clip1_381_192">
<rect y="102.283" width="405.258" height="51.9132" rx="10.0477" fill="white"/>
</clipPath>
</defs>
</svg>
