<svg width="372" height="300" viewBox="0 0 372 300" fill="none" xmlns="http://www.w3.org/2000/svg">
<g clip-path="url(#clip0_381_687)">
<g opacity="0.68" filter="url(#filter0_dddd_381_687)">
<rect y="31" width="212.613" height="238" rx="15.8667" fill="white"/>
<rect x="0.396667" y="31.3967" width="211.82" height="237.207" rx="15.47" stroke="#DDDDDD" stroke-width="0.793333"/>
<rect x="17.9716" y="45.0009" width="37.0508" height="37.0508" rx="18.5254" stroke="#DDDDDD" stroke-width="1.02919"/>
<rect x="21.5703" y="48.6035" width="29.8465" height="29.8465" rx="14.9232" fill="#E4E4E4"/>
<path d="M36.6181 62.6306C36.5388 62.6227 36.4436 62.6227 36.3563 62.6306C34.4681 62.5672 32.9688 61.0202 32.9688 59.1162C32.9688 57.1725 34.5396 55.5938 36.4912 55.5938C38.4348 55.5938 40.0136 57.1725 40.0136 59.1162C40.0056 61.0202 38.5062 62.5672 36.6181 62.6306Z" stroke="white" stroke-width="1.19" stroke-linecap="round" stroke-linejoin="round"/>
<path d="M32.6508 65.5576C30.731 66.8428 30.731 68.9372 32.6508 70.2145C34.8325 71.6742 38.4104 71.6742 40.5921 70.2145C42.512 68.9293 42.512 66.8349 40.5921 65.5576C38.4184 64.1058 34.8404 64.1058 32.6508 65.5576Z" stroke="white" stroke-width="1.19" stroke-linecap="round" stroke-linejoin="round"/>
<path d="M23.7974 108.434H22.4646L19.4467 103.874V108.434H18.1139V101.779H19.4467L22.4646 106.349V101.779H23.7974V108.434ZM27.4564 108.519C26.9486 108.519 26.4917 108.408 26.0855 108.186C25.6793 107.958 25.3588 107.637 25.124 107.225C24.8955 106.812 24.7813 106.336 24.7813 105.797C24.7813 105.257 24.8987 104.781 25.1335 104.369C25.3747 103.956 25.7015 103.639 26.1141 103.417C26.5266 103.188 26.9867 103.074 27.4945 103.074C28.0022 103.074 28.4623 103.188 28.8749 103.417C29.2874 103.639 29.6111 103.956 29.8459 104.369C30.0871 104.781 30.2077 105.257 30.2077 105.797C30.2077 106.336 30.0839 106.812 29.8364 107.225C29.5952 107.637 29.2652 107.958 28.8463 108.186C28.4338 108.408 27.9705 108.519 27.4564 108.519ZM27.4564 107.358C27.6976 107.358 27.9229 107.301 28.1323 107.186C28.3481 107.066 28.5194 106.888 28.6464 106.653C28.7733 106.419 28.8368 106.133 28.8368 105.797C28.8368 105.295 28.7035 104.911 28.4369 104.645C28.1767 104.372 27.8562 104.235 27.4754 104.235C27.0946 104.235 26.7741 104.372 26.5139 104.645C26.26 104.911 26.1331 105.295 26.1331 105.797C26.1331 106.298 26.2569 106.685 26.5044 106.958C26.7582 107.225 27.0756 107.358 27.4564 107.358ZM37.7351 103.083C38.3824 103.083 38.9029 103.283 39.2964 103.683C39.6962 104.077 39.8961 104.629 39.8961 105.34V108.434H38.5633V105.52C38.5633 105.108 38.4586 104.794 38.2492 104.578C38.0397 104.356 37.7541 104.245 37.3924 104.245C37.0306 104.245 36.7418 104.356 36.526 104.578C36.3166 104.794 36.2119 105.108 36.2119 105.52V108.434H34.8791V105.52C34.8791 105.108 34.7744 104.794 34.5649 104.578C34.3555 104.356 34.0699 104.245 33.7081 104.245C33.34 104.245 33.0481 104.356 32.8323 104.578C32.6228 104.794 32.5181 105.108 32.5181 105.52V108.434H31.1853V103.16H32.5181V103.797C32.6895 103.575 32.9084 103.401 33.175 103.274C33.4479 103.147 33.7462 103.083 34.0699 103.083C34.4824 103.083 34.8505 103.172 35.1742 103.35C35.4979 103.521 35.7486 103.769 35.9263 104.092C36.0976 103.788 36.3452 103.543 36.6688 103.359C36.9989 103.175 37.3543 103.083 37.7351 103.083ZM47.4848 104.473V105.597H43.4483V104.473H47.4848ZM56.0937 103.845C56.0937 104.2 56.008 104.534 55.8366 104.845C55.6716 105.156 55.4082 105.406 55.0465 105.597C54.691 105.787 54.2404 105.882 53.6946 105.882H52.5808V108.434H51.248V101.789H53.6946C54.2087 101.789 54.6466 101.877 55.0084 102.055C55.3701 102.233 55.6399 102.477 55.8176 102.788C56.0016 103.099 56.0937 103.451 56.0937 103.845ZM53.6375 104.806C54.0056 104.806 54.2785 104.724 54.4562 104.559C54.6339 104.388 54.7228 104.15 54.7228 103.845C54.7228 103.198 54.361 102.874 53.6375 102.874H52.5808V104.806H53.6375ZM58.3727 103.978C58.5441 103.699 58.7662 103.48 59.0391 103.321C59.3184 103.163 59.6357 103.083 59.9911 103.083V104.483H59.6389C59.22 104.483 58.9027 104.581 58.6869 104.778C58.4774 104.975 58.3727 105.317 58.3727 105.806V108.434H57.0399V103.16H58.3727V103.978ZM65.7916 105.682C65.7916 105.873 65.7789 106.044 65.7536 106.196H61.898C61.9297 106.577 62.063 106.875 62.2978 107.091C62.5326 107.307 62.8214 107.415 63.1641 107.415C63.6592 107.415 64.0114 107.202 64.2208 106.777H65.6584C65.506 107.285 65.2141 107.704 64.7825 108.034C64.3509 108.357 63.821 108.519 63.1927 108.519C62.6849 108.519 62.228 108.408 61.8218 108.186C61.422 107.958 61.1078 107.637 60.8793 107.225C60.6572 106.812 60.5461 106.336 60.5461 105.797C60.5461 105.251 60.6572 104.772 60.8793 104.359C61.1014 103.946 61.4124 103.629 61.8123 103.407C62.2121 103.185 62.6723 103.074 63.1927 103.074C63.6941 103.074 64.1415 103.182 64.535 103.398C64.9348 103.613 65.2427 103.921 65.4584 104.321C65.6806 104.714 65.7916 105.168 65.7916 105.682ZM64.4112 105.302C64.4049 104.959 64.2811 104.686 64.04 104.483C63.7988 104.273 63.5037 104.169 63.1546 104.169C62.8246 104.169 62.5453 104.27 62.3168 104.473C62.0947 104.67 61.9583 104.946 61.9075 105.302H64.4112ZM64.2113 101.77L62.0217 102.769V101.817L64.2113 100.684V101.77ZM69.6871 103.083C70.3154 103.083 70.8232 103.283 71.2103 103.683C71.5974 104.077 71.791 104.629 71.791 105.34V108.434H70.4582V105.52C70.4582 105.102 70.3535 104.781 70.1441 104.559C69.9346 104.33 69.649 104.216 69.2873 104.216C68.9192 104.216 68.6272 104.33 68.4114 104.559C68.202 104.781 68.0973 105.102 68.0973 105.52V108.434H66.7645V103.16H68.0973V103.816C68.275 103.588 68.5003 103.41 68.7732 103.283C69.0524 103.15 69.3571 103.083 69.6871 103.083ZM75.4004 108.519C74.8926 108.519 74.4357 108.408 74.0295 108.186C73.6233 107.958 73.3028 107.637 73.068 107.225C72.8395 106.812 72.7252 106.336 72.7252 105.797C72.7252 105.257 72.8427 104.781 73.0775 104.369C73.3187 103.956 73.6455 103.639 74.058 103.417C74.4706 103.188 74.9307 103.074 75.4384 103.074C75.9462 103.074 76.4063 103.188 76.8188 103.417C77.2314 103.639 77.5551 103.956 77.7899 104.369C78.0311 104.781 78.1516 105.257 78.1516 105.797C78.1516 106.336 78.0279 106.812 77.7804 107.225C77.5392 107.637 77.2092 107.958 76.7903 108.186C76.3778 108.408 75.9144 108.519 75.4004 108.519ZM75.4004 107.358C75.6415 107.358 75.8668 107.301 76.0763 107.186C76.2921 107.066 76.4634 106.888 76.5904 106.653C76.7173 106.419 76.7808 106.133 76.7808 105.797C76.7808 105.295 76.6475 104.911 76.3809 104.645C76.1207 104.372 75.8002 104.235 75.4194 104.235C75.0386 104.235 74.7181 104.372 74.4579 104.645C74.204 104.911 74.0771 105.295 74.0771 105.797C74.0771 106.298 74.2008 106.685 74.4484 106.958C74.7022 107.225 75.0196 107.358 75.4004 107.358ZM85.6791 103.083C86.3264 103.083 86.8469 103.283 87.2403 103.683C87.6402 104.077 87.8401 104.629 87.8401 105.34V108.434H86.5073V105.52C86.5073 105.108 86.4026 104.794 86.1931 104.578C85.9837 104.356 85.6981 104.245 85.3363 104.245C84.9746 104.245 84.6858 104.356 84.47 104.578C84.2606 104.794 84.1559 105.108 84.1559 105.52V108.434H82.8231V105.52C82.8231 105.108 82.7183 104.794 82.5089 104.578C82.2995 104.356 82.0139 104.245 81.6521 104.245C81.284 104.245 80.9921 104.356 80.7763 104.578C80.5668 104.794 80.4621 105.108 80.4621 105.52V108.434H79.1293V103.16H80.4621V103.797C80.6335 103.575 80.8524 103.401 81.119 103.274C81.3919 103.147 81.6902 103.083 82.0139 103.083C82.4264 103.083 82.7945 103.172 83.1182 103.35C83.4419 103.521 83.6926 103.769 83.8703 104.092C84.0416 103.788 84.2891 103.543 84.6128 103.359C84.9429 103.175 85.2983 103.083 85.6791 103.083Z" fill="#141414"/>
<path d="M17.457 124.613H83.3037" stroke="#9FA2AB" stroke-width="3.17333" stroke-linecap="round"/>
<path d="M30.9414 137.307H126.141" stroke="#9FA2AB" stroke-width="3.17333" stroke-linecap="round"/>
<path d="M30.9414 148.414H126.141" stroke="#9FA2AB" stroke-width="3.17333" stroke-linecap="round"/>
<path d="M30.9414 159.52H126.141" stroke="#9FA2AB" stroke-width="3.17333" stroke-linecap="round"/>
<g filter="url(#filter1_dddd_381_687)">
<rect x="17.457" y="181.732" width="52.36" height="17.4533" rx="2.38" fill="white"/>
<rect x="17.6554" y="181.931" width="51.9633" height="17.0567" rx="2.18167" stroke="#DDDDDD" stroke-width="0.396667"/>
<path d="M32.5273 190.461H54.7407" stroke="#9FA2AB" stroke-width="3.17333" stroke-linecap="round"/>
</g>
<path d="M17.457 241.232H85.6837" stroke="#9FA2AB" stroke-width="3.17333" stroke-linecap="round"/>
<g filter="url(#filter2_dddd_381_687)">
<rect x="73.7812" y="181.732" width="52.36" height="17.4533" rx="2.38" fill="white"/>
<rect x="73.9796" y="181.931" width="51.9633" height="17.0567" rx="2.18167" stroke="#DDDDDD" stroke-width="0.396667"/>
<path d="M88.8555 190.461H111.069" stroke="#9FA2AB" stroke-width="3.17333" stroke-linecap="round"/>
</g>
<g filter="url(#filter3_dddd_381_687)">
<rect x="144.387" y="54.0059" width="52.36" height="17.4533" rx="2.38" fill="white"/>
<rect x="144.585" y="54.2042" width="51.9633" height="17.0567" rx="2.18167" stroke="#DDDDDD" stroke-width="0.396667"/>
<path d="M159.461 62.7324H181.674" stroke="#9FA2AB" stroke-width="3.17333" stroke-linecap="round"/>
</g>
<g filter="url(#filter4_dddd_381_687)">
<rect x="126.141" y="230.664" width="65.08" height="20.3467" rx="2.38" fill="#141414"/>
<rect x="126.339" y="230.862" width="64.6833" height="19.95" rx="2.18167" stroke="#DDDDDD" stroke-width="0.396667"/>
<path d="M145.532 240.515C145.532 239.868 145.681 239.287 145.979 238.773C146.284 238.259 146.693 237.859 147.207 237.574C147.728 237.282 148.296 237.136 148.912 237.136C149.616 237.136 150.241 237.31 150.787 237.659C151.339 238.002 151.739 238.491 151.986 239.125H150.682C150.511 238.776 150.273 238.516 149.968 238.345C149.664 238.173 149.311 238.088 148.912 238.088C148.474 238.088 148.083 238.186 147.741 238.383C147.398 238.58 147.128 238.862 146.931 239.23C146.741 239.598 146.646 240.027 146.646 240.515C146.646 241.004 146.741 241.433 146.931 241.801C147.128 242.169 147.398 242.454 147.741 242.657C148.083 242.854 148.474 242.953 148.912 242.953C149.311 242.953 149.664 242.867 149.968 242.695C150.273 242.524 150.511 242.264 150.682 241.915H151.986C151.739 242.55 151.339 243.038 150.787 243.381C150.241 243.724 149.616 243.895 148.912 243.895C148.29 243.895 147.722 243.752 147.207 243.467C146.693 243.175 146.284 242.772 145.979 242.258C145.681 241.743 145.532 241.163 145.532 240.515ZM154.342 239.354C154.501 239.087 154.71 238.881 154.97 238.735C155.237 238.583 155.551 238.507 155.913 238.507V239.63H155.637C155.212 239.63 154.888 239.738 154.666 239.954C154.45 240.17 154.342 240.544 154.342 241.077V243.838H153.257V238.592H154.342V239.354ZM161.718 241.087C161.718 241.283 161.705 241.461 161.68 241.62H157.672C157.704 242.039 157.859 242.375 158.139 242.629C158.418 242.883 158.761 243.01 159.167 243.01C159.751 243.01 160.163 242.765 160.404 242.277H161.575C161.417 242.759 161.128 243.156 160.709 243.467C160.296 243.771 159.782 243.924 159.167 243.924C158.665 243.924 158.215 243.813 157.815 243.59C157.421 243.362 157.11 243.045 156.882 242.638C156.66 242.226 156.549 241.75 156.549 241.21C156.549 240.671 156.657 240.198 156.872 239.792C157.095 239.379 157.402 239.062 157.796 238.84C158.196 238.618 158.653 238.507 159.167 238.507C159.662 238.507 160.103 238.615 160.49 238.83C160.877 239.046 161.179 239.351 161.394 239.744C161.61 240.131 161.718 240.579 161.718 241.087ZM160.585 240.744C160.579 240.344 160.436 240.024 160.157 239.782C159.878 239.541 159.532 239.421 159.119 239.421C158.745 239.421 158.424 239.541 158.158 239.782C157.891 240.017 157.732 240.338 157.682 240.744H160.585ZM160.119 237.183L158.015 238.221V237.421L160.119 236.26V237.183ZM167.594 241.087C167.594 241.283 167.581 241.461 167.556 241.62H163.548C163.579 242.039 163.735 242.375 164.014 242.629C164.293 242.883 164.636 243.01 165.042 243.01C165.626 243.01 166.039 242.765 166.28 242.277H167.451C167.292 242.759 167.003 243.156 166.585 243.467C166.172 243.771 165.658 243.924 165.042 243.924C164.541 243.924 164.09 243.813 163.691 243.59C163.297 243.362 162.986 243.045 162.758 242.638C162.535 242.226 162.424 241.75 162.424 241.21C162.424 240.671 162.532 240.198 162.748 239.792C162.97 239.379 163.278 239.062 163.671 238.84C164.071 238.618 164.528 238.507 165.042 238.507C165.537 238.507 165.978 238.615 166.366 238.83C166.753 239.046 167.054 239.351 167.27 239.744C167.486 240.131 167.594 240.579 167.594 241.087ZM166.461 240.744C166.454 240.344 166.312 240.024 166.032 239.782C165.753 239.541 165.407 239.421 164.995 239.421C164.62 239.421 164.3 239.541 164.033 239.782C163.767 240.017 163.608 240.338 163.557 240.744H166.461ZM169.747 239.354C169.906 239.087 170.115 238.881 170.375 238.735C170.642 238.583 170.956 238.507 171.318 238.507V239.63H171.042C170.617 239.63 170.293 239.738 170.071 239.954C169.855 240.17 169.747 240.544 169.747 241.077V243.838H168.662V238.592H169.747V239.354Z" fill="white"/>
</g>
<rect x="17.0568" y="132.944" width="7.14" height="7.14" rx="1.19" stroke="#9FA2AB" stroke-width="0.793333"/>
<rect x="17.0568" y="144.844" width="7.14" height="7.14" rx="1.19" stroke="#9FA2AB" stroke-width="0.793333"/>
<rect x="17.0568" y="155.949" width="7.14" height="7.14" rx="1.19" stroke="#9FA2AB" stroke-width="0.793333"/>
<path d="M11.1094 214.656H201.113" stroke="#DFDFDF" stroke-width="0.793333" stroke-linecap="round"/>
</g>
<g opacity="0.68" filter="url(#filter5_dddd_381_687)">
<rect x="159" y="31" width="212.613" height="238" rx="15.8667" fill="white"/>
<rect x="159.397" y="31.3967" width="211.82" height="237.207" rx="15.47" stroke="#DDDDDD" stroke-width="0.793333"/>
<rect x="176.972" y="45.0009" width="37.0508" height="37.0508" rx="18.5254" stroke="#DDDDDD" stroke-width="1.02919"/>
<rect x="180.57" y="48.6035" width="29.8465" height="29.8465" rx="14.9232" fill="#8BA5FF"/>
<path d="M195.618 62.6306C195.539 62.6227 195.444 62.6227 195.356 62.6306C193.468 62.5672 191.969 61.0202 191.969 59.1162C191.969 57.1725 193.54 55.5938 195.491 55.5938C197.435 55.5938 199.014 57.1725 199.014 59.1162C199.006 61.0202 197.506 62.5672 195.618 62.6306Z" stroke="white" stroke-width="1.19" stroke-linecap="round" stroke-linejoin="round"/>
<path d="M191.655 65.5576C189.735 66.8428 189.735 68.9372 191.655 70.2145C193.836 71.6742 197.414 71.6742 199.596 70.2145C201.516 68.9293 201.516 66.8349 199.596 65.5576C197.422 64.1058 193.844 64.1058 191.655 65.5576Z" stroke="white" stroke-width="1.19" stroke-linecap="round" stroke-linejoin="round"/>
<path d="M182.797 108.434H181.465L178.447 103.874V108.434H177.114V101.779H178.447L181.465 106.349V101.779H182.797V108.434ZM186.456 108.519C185.949 108.519 185.492 108.408 185.085 108.186C184.679 107.958 184.359 107.637 184.124 107.225C183.895 106.812 183.781 106.336 183.781 105.797C183.781 105.257 183.899 104.781 184.133 104.369C184.375 103.956 184.702 103.639 185.114 103.417C185.527 103.188 185.987 103.074 186.494 103.074C187.002 103.074 187.462 103.188 187.875 103.417C188.287 103.639 188.611 103.956 188.846 104.369C189.087 104.781 189.208 105.257 189.208 105.797C189.208 106.336 189.084 106.812 188.836 107.225C188.595 107.637 188.265 107.958 187.846 108.186C187.434 108.408 186.97 108.519 186.456 108.519ZM186.456 107.358C186.698 107.358 186.923 107.301 187.132 107.186C187.348 107.066 187.519 106.888 187.646 106.653C187.773 106.419 187.837 106.133 187.837 105.797C187.837 105.295 187.703 104.911 187.437 104.645C187.177 104.372 186.856 104.235 186.475 104.235C186.095 104.235 185.774 104.372 185.514 104.645C185.26 104.911 185.133 105.295 185.133 105.797C185.133 106.298 185.257 106.685 185.504 106.958C185.758 107.225 186.076 107.358 186.456 107.358ZM196.735 103.083C197.382 103.083 197.903 103.283 198.296 103.683C198.696 104.077 198.896 104.629 198.896 105.34V108.434H197.563V105.52C197.563 105.108 197.459 104.794 197.249 104.578C197.04 104.356 196.754 104.245 196.392 104.245C196.031 104.245 195.742 104.356 195.526 104.578C195.317 104.794 195.212 105.108 195.212 105.52V108.434H193.879V105.52C193.879 105.108 193.774 104.794 193.565 104.578C193.355 104.356 193.07 104.245 192.708 104.245C192.34 104.245 192.048 104.356 191.832 104.578C191.623 104.794 191.518 105.108 191.518 105.52V108.434H190.185V103.16H191.518V103.797C191.689 103.575 191.908 103.401 192.175 103.274C192.448 103.147 192.746 103.083 193.07 103.083C193.482 103.083 193.851 103.172 194.174 103.35C194.498 103.521 194.749 103.769 194.926 104.092C195.098 103.788 195.345 103.543 195.669 103.359C195.999 103.175 196.354 103.083 196.735 103.083ZM206.485 104.473V105.597H202.448V104.473H206.485ZM215.094 103.845C215.094 104.2 215.008 104.534 214.837 104.845C214.672 105.156 214.408 105.406 214.046 105.597C213.691 105.787 213.24 105.882 212.695 105.882H211.581V108.434H210.248V101.789H212.695C213.209 101.789 213.647 101.877 214.008 102.055C214.37 102.233 214.64 102.477 214.818 102.788C215.002 103.099 215.094 103.451 215.094 103.845ZM212.637 104.806C213.006 104.806 213.279 104.724 213.456 104.559C213.634 104.388 213.723 104.15 213.723 103.845C213.723 103.198 213.361 102.874 212.637 102.874H211.581V104.806H212.637ZM217.373 103.978C217.544 103.699 217.766 103.48 218.039 103.321C218.318 103.163 218.636 103.083 218.991 103.083V104.483H218.639C218.22 104.483 217.903 104.581 217.687 104.778C217.477 104.975 217.373 105.317 217.373 105.806V108.434H216.04V103.16H217.373V103.978ZM224.792 105.682C224.792 105.873 224.779 106.044 224.754 106.196H220.898C220.93 106.577 221.063 106.875 221.298 107.091C221.533 107.307 221.821 107.415 222.164 107.415C222.659 107.415 223.011 107.202 223.221 106.777H224.658C224.506 107.285 224.214 107.704 223.783 108.034C223.351 108.357 222.821 108.519 222.193 108.519C221.685 108.519 221.228 108.408 220.822 108.186C220.422 107.958 220.108 107.637 219.879 107.225C219.657 106.812 219.546 106.336 219.546 105.797C219.546 105.251 219.657 104.772 219.879 104.359C220.101 103.946 220.412 103.629 220.812 103.407C221.212 103.185 221.672 103.074 222.193 103.074C222.694 103.074 223.142 103.182 223.535 103.398C223.935 103.613 224.243 103.921 224.458 104.321C224.681 104.714 224.792 105.168 224.792 105.682ZM223.411 105.302C223.405 104.959 223.281 104.686 223.04 104.483C222.799 104.273 222.504 104.169 222.155 104.169C221.825 104.169 221.545 104.27 221.317 104.473C221.095 104.67 220.958 104.946 220.907 105.302H223.411ZM223.211 101.77L221.022 102.769V101.817L223.211 100.684V101.77ZM228.687 103.083C229.315 103.083 229.823 103.283 230.21 103.683C230.597 104.077 230.791 104.629 230.791 105.34V108.434H229.458V105.52C229.458 105.102 229.354 104.781 229.144 104.559C228.935 104.33 228.649 104.216 228.287 104.216C227.919 104.216 227.627 104.33 227.411 104.559C227.202 104.781 227.097 105.102 227.097 105.52V108.434H225.764V103.16H227.097V103.816C227.275 103.588 227.5 103.41 227.773 103.283C228.052 103.15 228.357 103.083 228.687 103.083ZM234.4 108.519C233.893 108.519 233.436 108.408 233.029 108.186C232.623 107.958 232.303 107.637 232.068 107.225C231.839 106.812 231.725 106.336 231.725 105.797C231.725 105.257 231.843 104.781 232.077 104.369C232.319 103.956 232.646 103.639 233.058 103.417C233.471 103.188 233.931 103.074 234.438 103.074C234.946 103.074 235.406 103.188 235.819 103.417C236.231 103.639 236.555 103.956 236.79 104.369C237.031 104.781 237.152 105.257 237.152 105.797C237.152 106.336 237.028 106.812 236.78 107.225C236.539 107.637 236.209 107.958 235.79 108.186C235.378 108.408 234.914 108.519 234.4 108.519ZM234.4 107.358C234.642 107.358 234.867 107.301 235.076 107.186C235.292 107.066 235.463 106.888 235.59 106.653C235.717 106.419 235.781 106.133 235.781 105.797C235.781 105.295 235.647 104.911 235.381 104.645C235.121 104.372 234.8 104.235 234.419 104.235C234.039 104.235 233.718 104.372 233.458 104.645C233.204 104.911 233.077 105.295 233.077 105.797C233.077 106.298 233.201 106.685 233.448 106.958C233.702 107.225 234.02 107.358 234.4 107.358ZM244.679 103.083C245.326 103.083 245.847 103.283 246.24 103.683C246.64 104.077 246.84 104.629 246.84 105.34V108.434H245.507V105.52C245.507 105.108 245.403 104.794 245.193 104.578C244.984 104.356 244.698 104.245 244.336 104.245C243.975 104.245 243.686 104.356 243.47 104.578C243.261 104.794 243.156 105.108 243.156 105.52V108.434H241.823V105.52C241.823 105.108 241.718 104.794 241.509 104.578C241.299 104.356 241.014 104.245 240.652 104.245C240.284 104.245 239.992 104.356 239.776 104.578C239.567 104.794 239.462 105.108 239.462 105.52V108.434H238.129V103.16H239.462V103.797C239.633 103.575 239.852 103.401 240.119 103.274C240.392 103.147 240.69 103.083 241.014 103.083C241.426 103.083 241.795 103.172 242.118 103.35C242.442 103.521 242.693 103.769 242.87 104.092C243.042 103.788 243.289 103.543 243.613 103.359C243.943 103.175 244.298 103.083 244.679 103.083Z" fill="#141414"/>
<path d="M176.457 124.613H242.304" stroke="#9FA2AB" stroke-width="3.17333" stroke-linecap="round"/>
<path d="M189.941 137.307H285.141" stroke="#9FA2AB" stroke-width="3.17333" stroke-linecap="round"/>
<path d="M189.941 148.414H285.141" stroke="#9FA2AB" stroke-width="3.17333" stroke-linecap="round"/>
<path d="M189.941 159.52H285.141" stroke="#9FA2AB" stroke-width="3.17333" stroke-linecap="round"/>
<g filter="url(#filter6_dddd_381_687)">
<rect x="176.457" y="181.732" width="52.36" height="17.4533" rx="2.38" fill="white"/>
<rect x="176.655" y="181.931" width="51.9633" height="17.0567" rx="2.18167" stroke="#DDDDDD" stroke-width="0.396667"/>
<path d="M191.527 190.461H213.741" stroke="#9FA2AB" stroke-width="3.17333" stroke-linecap="round"/>
</g>
<path d="M176.457 241.232H244.684" stroke="#9FA2AB" stroke-width="3.17333" stroke-linecap="round"/>
<g filter="url(#filter7_dddd_381_687)">
<rect x="232.781" y="181.732" width="52.36" height="17.4533" rx="2.38" fill="white"/>
<rect x="232.98" y="181.931" width="51.9633" height="17.0567" rx="2.18167" stroke="#DDDDDD" stroke-width="0.396667"/>
<path d="M247.855 190.461H270.069" stroke="#9FA2AB" stroke-width="3.17333" stroke-linecap="round"/>
</g>
<g filter="url(#filter8_dddd_381_687)">
<rect x="303.387" y="54.0059" width="52.36" height="17.4533" rx="2.38" fill="white"/>
<rect x="303.585" y="54.2042" width="51.9633" height="17.0567" rx="2.18167" stroke="#DDDDDD" stroke-width="0.396667"/>
<path d="M318.461 62.7324H340.674" stroke="#9FA2AB" stroke-width="3.17333" stroke-linecap="round"/>
</g>
<g filter="url(#filter9_dddd_381_687)">
<rect x="285.141" y="230.664" width="65.08" height="20.3467" rx="2.38" fill="#DFDFE1"/>
<rect x="285.339" y="230.862" width="64.6833" height="19.95" rx="2.18167" stroke="#DDDDDD" stroke-width="0.396667"/>
<path d="M304.532 240.515C304.532 239.868 304.681 239.287 304.979 238.773C305.284 238.259 305.693 237.859 306.207 237.574C306.728 237.282 307.296 237.136 307.912 237.136C308.616 237.136 309.241 237.31 309.787 237.659C310.339 238.002 310.739 238.491 310.986 239.125H309.682C309.511 238.776 309.273 238.516 308.968 238.345C308.664 238.173 308.311 238.088 307.912 238.088C307.474 238.088 307.083 238.186 306.741 238.383C306.398 238.58 306.128 238.862 305.931 239.23C305.741 239.598 305.646 240.027 305.646 240.515C305.646 241.004 305.741 241.433 305.931 241.801C306.128 242.169 306.398 242.454 306.741 242.657C307.083 242.854 307.474 242.953 307.912 242.953C308.311 242.953 308.664 242.867 308.968 242.695C309.273 242.524 309.511 242.264 309.682 241.915H310.986C310.739 242.55 310.339 243.038 309.787 243.381C309.241 243.724 308.616 243.895 307.912 243.895C307.29 243.895 306.722 243.752 306.207 243.467C305.693 243.175 305.284 242.772 304.979 242.258C304.681 241.743 304.532 241.163 304.532 240.515ZM313.342 239.354C313.501 239.087 313.71 238.881 313.97 238.735C314.237 238.583 314.551 238.507 314.913 238.507V239.63H314.637C314.212 239.63 313.888 239.738 313.666 239.954C313.45 240.17 313.342 240.544 313.342 241.077V243.838H312.257V238.592H313.342V239.354ZM320.718 241.087C320.718 241.283 320.705 241.461 320.68 241.62H316.672C316.704 242.039 316.859 242.375 317.139 242.629C317.418 242.883 317.761 243.01 318.167 243.01C318.751 243.01 319.163 242.765 319.404 242.277H320.575C320.417 242.759 320.128 243.156 319.709 243.467C319.296 243.771 318.782 243.924 318.167 243.924C317.665 243.924 317.215 243.813 316.815 243.59C316.421 243.362 316.11 243.045 315.882 242.638C315.66 242.226 315.549 241.75 315.549 241.21C315.549 240.671 315.657 240.198 315.872 239.792C316.095 239.379 316.402 239.062 316.796 238.84C317.196 238.618 317.653 238.507 318.167 238.507C318.662 238.507 319.103 238.615 319.49 238.83C319.877 239.046 320.179 239.351 320.394 239.744C320.61 240.131 320.718 240.579 320.718 241.087ZM319.585 240.744C319.579 240.344 319.436 240.024 319.157 239.782C318.878 239.541 318.532 239.421 318.119 239.421C317.745 239.421 317.424 239.541 317.158 239.782C316.891 240.017 316.732 240.338 316.682 240.744H319.585ZM319.119 237.183L317.015 238.221V237.421L319.119 236.26V237.183ZM326.594 241.087C326.594 241.283 326.581 241.461 326.556 241.62H322.548C322.579 242.039 322.735 242.375 323.014 242.629C323.293 242.883 323.636 243.01 324.042 243.01C324.626 243.01 325.039 242.765 325.28 242.277H326.451C326.292 242.759 326.003 243.156 325.585 243.467C325.172 243.771 324.658 243.924 324.042 243.924C323.541 243.924 323.09 243.813 322.691 243.59C322.297 243.362 321.986 243.045 321.758 242.638C321.535 242.226 321.424 241.75 321.424 241.21C321.424 240.671 321.532 240.198 321.748 239.792C321.97 239.379 322.278 239.062 322.671 238.84C323.071 238.618 323.528 238.507 324.042 238.507C324.537 238.507 324.978 238.615 325.366 238.83C325.753 239.046 326.054 239.351 326.27 239.744C326.486 240.131 326.594 240.579 326.594 241.087ZM325.461 240.744C325.454 240.344 325.312 240.024 325.032 239.782C324.753 239.541 324.407 239.421 323.995 239.421C323.62 239.421 323.3 239.541 323.033 239.782C322.767 240.017 322.608 240.338 322.557 240.744H325.461ZM328.747 239.354C328.906 239.087 329.115 238.881 329.375 238.735C329.642 238.583 329.956 238.507 330.318 238.507V239.63H330.042C329.617 239.63 329.293 239.738 329.071 239.954C328.855 240.17 328.747 240.544 328.747 241.077V243.838H327.662V238.592H328.747V239.354Z" fill="white"/>
</g>
<rect x="176.057" y="132.944" width="7.14" height="7.14" rx="1.19" stroke="#9FA2AB" stroke-width="0.793333"/>
<rect x="176.057" y="144.844" width="7.14" height="7.14" rx="1.19" stroke="#9FA2AB" stroke-width="0.793333"/>
<rect x="176.057" y="155.949" width="7.14" height="7.14" rx="1.19" stroke="#9FA2AB" stroke-width="0.793333"/>
<path d="M170.109 214.656H360.113" stroke="#DFDFDF" stroke-width="0.793333" stroke-linecap="round"/>
</g>
<g filter="url(#filter10_dddd_381_687)">
<rect x="52.3086" width="268" height="300" rx="20" fill="white"/>
<rect x="52.8086" y="0.5" width="267" height="299" rx="19.5" stroke="#DDDDDD"/>
<rect x="74.9572" y="17.6486" width="46.7027" height="46.7027" rx="23.3514" stroke="#DDDDDD" stroke-width="1.2973"/>
<rect x="79.4961" y="22.1895" width="37.6216" height="37.6216" rx="18.8108" fill="#8BA5FF"/>
<path d="M98.4672 39.87C98.3672 39.86 98.2472 39.86 98.1372 39.87C95.7572 39.79 93.8672 37.84 93.8672 35.44C93.8672 32.99 95.8472 31 98.3072 31C100.757 31 102.747 32.99 102.747 35.44C102.737 37.84 100.847 39.79 98.4672 39.87Z" stroke="white" stroke-width="1.5" stroke-linecap="round" stroke-linejoin="round"/>
<path d="M93.4673 43.56C91.0473 45.18 91.0473 47.82 93.4673 49.43C96.2173 51.27 100.727 51.27 103.477 49.43C105.897 47.81 105.897 45.17 103.477 43.56C100.737 41.73 96.2273 41.73 93.4673 43.56Z" stroke="white" stroke-width="1.5" stroke-linecap="round" stroke-linejoin="round"/>
<path d="M82.3006 98H80.6206L76.8166 92.252V98H75.1366V89.612H76.8166L80.6206 95.372V89.612H82.3006V98ZM86.9128 98.108C86.2728 98.108 85.6968 97.968 85.1848 97.688C84.6728 97.4 84.2688 96.996 83.9728 96.476C83.6848 95.956 83.5408 95.356 83.5408 94.676C83.5408 93.996 83.6888 93.396 83.9848 92.876C84.2888 92.356 84.7008 91.956 85.2208 91.676C85.7408 91.388 86.3208 91.244 86.9608 91.244C87.6008 91.244 88.1808 91.388 88.7008 91.676C89.2208 91.956 89.6288 92.356 89.9248 92.876C90.2288 93.396 90.3808 93.996 90.3808 94.676C90.3808 95.356 90.2248 95.956 89.9128 96.476C89.6088 96.996 89.1928 97.4 88.6648 97.688C88.1448 97.968 87.5608 98.108 86.9128 98.108ZM86.9128 96.644C87.2168 96.644 87.5008 96.572 87.7648 96.428C88.0368 96.276 88.2528 96.052 88.4128 95.756C88.5728 95.46 88.6528 95.1 88.6528 94.676C88.6528 94.044 88.4848 93.56 88.1488 93.224C87.8208 92.88 87.4168 92.708 86.9368 92.708C86.4568 92.708 86.0528 92.88 85.7248 93.224C85.4048 93.56 85.2448 94.044 85.2448 94.676C85.2448 95.308 85.4008 95.796 85.7128 96.14C86.0328 96.476 86.4328 96.644 86.9128 96.644ZM99.8692 91.256C100.685 91.256 101.341 91.508 101.837 92.012C102.341 92.508 102.593 93.204 102.593 94.1V98H100.913V94.328C100.913 93.808 100.781 93.412 100.517 93.14C100.253 92.86 99.8932 92.72 99.4372 92.72C98.9812 92.72 98.6172 92.86 98.3452 93.14C98.0812 93.412 97.9492 93.808 97.9492 94.328V98H96.2692V94.328C96.2692 93.808 96.1372 93.412 95.8732 93.14C95.6092 92.86 95.2492 92.72 94.7932 92.72C94.3292 92.72 93.9612 92.86 93.6892 93.14C93.4252 93.412 93.2932 93.808 93.2932 94.328V98H91.6132V91.352H93.2932V92.156C93.5092 91.876 93.7852 91.656 94.1212 91.496C94.4652 91.336 94.8412 91.256 95.2492 91.256C95.7692 91.256 96.2332 91.368 96.6412 91.592C97.0492 91.808 97.3652 92.12 97.5892 92.528C97.8052 92.144 98.1172 91.836 98.5252 91.604C98.9412 91.372 99.3892 91.256 99.8692 91.256ZM112.159 93.008V94.424H107.071V93.008H112.159ZM123.01 92.216C123.01 92.664 122.902 93.084 122.686 93.476C122.478 93.868 122.146 94.184 121.69 94.424C121.242 94.664 120.674 94.784 119.986 94.784H118.582V98H116.902V89.624H119.986C120.634 89.624 121.186 89.736 121.642 89.96C122.098 90.184 122.438 90.492 122.662 90.884C122.894 91.276 123.01 91.72 123.01 92.216ZM119.914 93.428C120.378 93.428 120.722 93.324 120.946 93.116C121.17 92.9 121.282 92.6 121.282 92.216C121.282 91.4 120.826 90.992 119.914 90.992H118.582V93.428H119.914ZM125.883 92.384C126.099 92.032 126.379 91.756 126.723 91.556C127.075 91.356 127.475 91.256 127.923 91.256V93.02H127.479C126.951 93.02 126.551 93.144 126.279 93.392C126.015 93.64 125.883 94.072 125.883 94.688V98H124.203V91.352H125.883V92.384ZM135.235 94.532C135.235 94.772 135.219 94.988 135.187 95.18H130.327C130.367 95.66 130.535 96.036 130.831 96.308C131.127 96.58 131.491 96.716 131.923 96.716C132.547 96.716 132.991 96.448 133.255 95.912H135.067C134.875 96.552 134.507 97.08 133.963 97.496C133.419 97.904 132.751 98.108 131.959 98.108C131.319 98.108 130.743 97.968 130.231 97.688C129.727 97.4 129.331 96.996 129.043 96.476C128.763 95.956 128.623 95.356 128.623 94.676C128.623 93.988 128.763 93.384 129.043 92.864C129.323 92.344 129.715 91.944 130.219 91.664C130.723 91.384 131.303 91.244 131.959 91.244C132.591 91.244 133.155 91.38 133.651 91.652C134.155 91.924 134.543 92.312 134.815 92.816C135.095 93.312 135.235 93.884 135.235 94.532ZM133.495 94.052C133.487 93.62 133.331 93.276 133.027 93.02C132.723 92.756 132.351 92.624 131.911 92.624C131.495 92.624 131.143 92.752 130.855 93.008C130.575 93.256 130.403 93.604 130.339 94.052H133.495ZM133.243 89.6L130.483 90.86V89.66L133.243 88.232V89.6ZM140.145 91.256C140.937 91.256 141.577 91.508 142.065 92.012C142.553 92.508 142.797 93.204 142.797 94.1V98H141.117V94.328C141.117 93.8 140.985 93.396 140.721 93.116C140.457 92.828 140.097 92.684 139.641 92.684C139.177 92.684 138.809 92.828 138.537 93.116C138.273 93.396 138.141 93.8 138.141 94.328V98H136.461V91.352H138.141V92.18C138.365 91.892 138.649 91.668 138.993 91.508C139.345 91.34 139.729 91.256 140.145 91.256ZM147.346 98.108C146.706 98.108 146.13 97.968 145.618 97.688C145.106 97.4 144.702 96.996 144.406 96.476C144.118 95.956 143.974 95.356 143.974 94.676C143.974 93.996 144.122 93.396 144.418 92.876C144.722 92.356 145.134 91.956 145.654 91.676C146.174 91.388 146.754 91.244 147.394 91.244C148.034 91.244 148.614 91.388 149.134 91.676C149.654 91.956 150.062 92.356 150.358 92.876C150.662 93.396 150.814 93.996 150.814 94.676C150.814 95.356 150.658 95.956 150.346 96.476C150.042 96.996 149.626 97.4 149.098 97.688C148.578 97.968 147.994 98.108 147.346 98.108ZM147.346 96.644C147.65 96.644 147.934 96.572 148.198 96.428C148.47 96.276 148.686 96.052 148.846 95.756C149.006 95.46 149.086 95.1 149.086 94.676C149.086 94.044 148.918 93.56 148.582 93.224C148.254 92.88 147.85 92.708 147.37 92.708C146.89 92.708 146.486 92.88 146.158 93.224C145.838 93.56 145.678 94.044 145.678 94.676C145.678 95.308 145.834 95.796 146.146 96.14C146.466 96.476 146.866 96.644 147.346 96.644ZM160.303 91.256C161.119 91.256 161.775 91.508 162.271 92.012C162.775 92.508 163.027 93.204 163.027 94.1V98H161.347V94.328C161.347 93.808 161.215 93.412 160.951 93.14C160.687 92.86 160.327 92.72 159.871 92.72C159.415 92.72 159.051 92.86 158.779 93.14C158.515 93.412 158.383 93.808 158.383 94.328V98H156.703V94.328C156.703 93.808 156.571 93.412 156.307 93.14C156.043 92.86 155.683 92.72 155.227 92.72C154.763 92.72 154.395 92.86 154.123 93.14C153.859 93.412 153.727 93.808 153.727 94.328V98H152.047V91.352H153.727V92.156C153.943 91.876 154.219 91.656 154.555 91.496C154.899 91.336 155.275 91.256 155.683 91.256C156.203 91.256 156.667 91.368 157.075 91.592C157.483 91.808 157.799 92.12 158.023 92.528C158.239 92.144 158.551 91.836 158.959 91.604C159.375 91.372 159.823 91.256 160.303 91.256Z" fill="#141414"/>
<path d="M74.3086 118H157.309" stroke="#9FA2AB" stroke-width="4" stroke-linecap="round"/>
<path d="M91.3086 134H211.309" stroke="#9FA2AB" stroke-width="4" stroke-linecap="round"/>
<path d="M91.3086 148H211.309" stroke="#9FA2AB" stroke-width="4" stroke-linecap="round"/>
<path d="M91.3086 162H211.309" stroke="#9FA2AB" stroke-width="4" stroke-linecap="round"/>
<g filter="url(#filter11_dddd_381_687)">
<rect x="74.3086" y="190" width="66" height="22" rx="3" fill="white"/>
<rect x="74.5586" y="190.25" width="65.5" height="21.5" rx="2.75" stroke="#DDDDDD" stroke-width="0.5"/>
<path d="M93.3086 201H121.309" stroke="#9FA2AB" stroke-width="4" stroke-linecap="round"/>
</g>
<path d="M74.3086 265H160.309" stroke="#9FA2AB" stroke-width="4" stroke-linecap="round"/>
<g filter="url(#filter12_dddd_381_687)">
<rect x="145.309" y="190" width="66" height="22" rx="3" fill="white"/>
<rect x="145.559" y="190.25" width="65.5" height="21.5" rx="2.75" stroke="#DDDDDD" stroke-width="0.5"/>
<path d="M164.309 201H192.309" stroke="#9FA2AB" stroke-width="4" stroke-linecap="round"/>
</g>
<g filter="url(#filter13_dddd_381_687)">
<rect x="234.309" y="29" width="66" height="22" rx="3" fill="white"/>
<rect x="234.559" y="29.25" width="65.5" height="21.5" rx="2.75" stroke="#DDDDDD" stroke-width="0.5"/>
<path d="M253.309 40H281.309" stroke="#9FA2AB" stroke-width="4" stroke-linecap="round"/>
</g>
<g filter="url(#filter14_dddd_381_687)">
<rect x="211.309" y="251.5" width="82" height="26" rx="3" fill="#141414"/>
<rect x="211.559" y="251.75" width="81.5" height="25.5" rx="2.75" stroke="#DDDDDD" stroke-width="0.5"/>
<path d="M235.753 264.312C235.753 263.496 235.941 262.764 236.317 262.116C236.701 261.468 237.217 260.964 237.865 260.604C238.521 260.236 239.237 260.052 240.013 260.052C240.901 260.052 241.689 260.272 242.377 260.712C243.073 261.144 243.577 261.76 243.889 262.56H242.245C242.029 262.12 241.729 261.792 241.345 261.576C240.961 261.36 240.517 261.252 240.013 261.252C239.461 261.252 238.969 261.376 238.537 261.624C238.105 261.872 237.765 262.228 237.517 262.692C237.277 263.156 237.157 263.696 237.157 264.312C237.157 264.928 237.277 265.468 237.517 265.932C237.765 266.396 238.105 266.756 238.537 267.012C238.969 267.26 239.461 267.384 240.013 267.384C240.517 267.384 240.961 267.276 241.345 267.06C241.729 266.844 242.029 266.516 242.245 266.076H243.889C243.577 266.876 243.073 267.492 242.377 267.924C241.689 268.356 240.901 268.572 240.013 268.572C239.229 268.572 238.513 268.392 237.865 268.032C237.217 267.664 236.701 267.156 236.317 266.508C235.941 265.86 235.753 265.128 235.753 264.312ZM246.858 262.848C247.058 262.512 247.322 262.252 247.65 262.068C247.986 261.876 248.382 261.78 248.838 261.78V263.196H248.49C247.954 263.196 247.546 263.332 247.266 263.604C246.994 263.876 246.858 264.348 246.858 265.02V268.5H245.49V261.888H246.858V262.848ZM256.155 265.032C256.155 265.28 256.139 265.504 256.107 265.704H251.055C251.095 266.232 251.291 266.656 251.643 266.976C251.995 267.296 252.427 267.456 252.939 267.456C253.675 267.456 254.195 267.148 254.499 266.532H255.975C255.775 267.14 255.411 267.64 254.883 268.032C254.363 268.416 253.715 268.608 252.939 268.608C252.307 268.608 251.739 268.468 251.235 268.188C250.739 267.9 250.347 267.5 250.059 266.988C249.779 266.468 249.639 265.868 249.639 265.188C249.639 264.508 249.775 263.912 250.047 263.4C250.327 262.88 250.715 262.48 251.211 262.2C251.715 261.92 252.291 261.78 252.939 261.78C253.563 261.78 254.119 261.916 254.607 262.188C255.095 262.46 255.475 262.844 255.747 263.34C256.019 263.828 256.155 264.392 256.155 265.032ZM254.727 264.6C254.719 264.096 254.539 263.692 254.187 263.388C253.835 263.084 253.399 262.932 252.879 262.932C252.407 262.932 252.003 263.084 251.667 263.388C251.331 263.684 251.131 264.088 251.067 264.6H254.727ZM254.139 260.112L251.487 261.42V260.412L254.139 258.948V260.112ZM263.562 265.032C263.562 265.28 263.546 265.504 263.514 265.704H258.462C258.502 266.232 258.698 266.656 259.05 266.976C259.402 267.296 259.834 267.456 260.346 267.456C261.082 267.456 261.602 267.148 261.906 266.532H263.382C263.182 267.14 262.818 267.64 262.29 268.032C261.77 268.416 261.122 268.608 260.346 268.608C259.714 268.608 259.146 268.468 258.642 268.188C258.146 267.9 257.754 267.5 257.466 266.988C257.186 266.468 257.046 265.868 257.046 265.188C257.046 264.508 257.182 263.912 257.454 263.4C257.734 262.88 258.122 262.48 258.618 262.2C259.122 261.92 259.698 261.78 260.346 261.78C260.97 261.78 261.526 261.916 262.014 262.188C262.502 262.46 262.882 262.844 263.154 263.34C263.426 263.828 263.562 264.392 263.562 265.032ZM262.134 264.6C262.126 264.096 261.946 263.692 261.594 263.388C261.242 263.084 260.806 262.932 260.286 262.932C259.814 262.932 259.41 263.084 259.074 263.388C258.738 263.684 258.538 264.088 258.474 264.6H262.134ZM266.276 262.848C266.476 262.512 266.74 262.252 267.068 262.068C267.404 261.876 267.8 261.78 268.256 261.78V263.196H267.908C267.372 263.196 266.964 263.332 266.684 263.604C266.412 263.876 266.276 264.348 266.276 265.02V268.5H264.908V261.888H266.276V262.848Z" fill="white"/>
</g>
<rect x="73.8086" y="128.5" width="9" height="9" rx="1.5" stroke="#9FA2AB"/>
<rect x="73.8086" y="143.5" width="9" height="9" rx="1.5" stroke="#9FA2AB"/>
<rect x="73.8086" y="157.5" width="9" height="9" rx="1.5" stroke="#9FA2AB"/>
<path d="M66.3086 231.5H305.809" stroke="#DFDFDF" stroke-linecap="round"/>
</g>
</g>
<defs>
<filter id="filter0_dddd_381_687" x="-17.4533" y="27.8267" width="247.52" height="301.467" filterUnits="userSpaceOnUse" color-interpolation-filters="sRGB">
<feFlood flood-opacity="0" result="BackgroundImageFix"/>
<feColorMatrix in="SourceAlpha" type="matrix" values="0 0 0 0 0 0 0 0 0 0 0 0 0 0 0 0 0 0 127 0" result="hardAlpha"/>
<feOffset dy="2.38"/>
<feGaussianBlur stdDeviation="2.77667"/>
<feColorMatrix type="matrix" values="0 0 0 0 0.286275 0 0 0 0 0.317647 0 0 0 0 0.454902 0 0 0 0.1 0"/>
<feBlend mode="normal" in2="BackgroundImageFix" result="effect1_dropShadow_381_687"/>
<feColorMatrix in="SourceAlpha" type="matrix" values="0 0 0 0 0 0 0 0 0 0 0 0 0 0 0 0 0 0 127 0" result="hardAlpha"/>
<feOffset dy="11.1067"/>
<feGaussianBlur stdDeviation="5.55333"/>
<feColorMatrix type="matrix" values="0 0 0 0 0.286275 0 0 0 0 0.317647 0 0 0 0 0.454902 0 0 0 0.09 0"/>
<feBlend mode="normal" in2="effect1_dropShadow_381_687" result="effect2_dropShadow_381_687"/>
<feColorMatrix in="SourceAlpha" type="matrix" values="0 0 0 0 0 0 0 0 0 0 0 0 0 0 0 0 0 0 127 0" result="hardAlpha"/>
<feOffset dy="23.8"/>
<feGaussianBlur stdDeviation="7.14"/>
<feColorMatrix type="matrix" values="0 0 0 0 0.286275 0 0 0 0 0.317647 0 0 0 0 0.454902 0 0 0 0.05 0"/>
<feBlend mode="normal" in2="effect2_dropShadow_381_687" result="effect3_dropShadow_381_687"/>
<feColorMatrix in="SourceAlpha" type="matrix" values="0 0 0 0 0 0 0 0 0 0 0 0 0 0 0 0 0 0 127 0" result="hardAlpha"/>
<feOffset dy="42.84"/>
<feGaussianBlur stdDeviation="8.72667"/>
<feColorMatrix type="matrix" values="0 0 0 0 0.286275 0 0 0 0 0.317647 0 0 0 0 0.454902 0 0 0 0.01 0"/>
<feBlend mode="normal" in2="effect3_dropShadow_381_687" result="effect4_dropShadow_381_687"/>
<feBlend mode="normal" in="SourceGraphic" in2="effect4_dropShadow_381_687" result="shape"/>
</filter>
<filter id="filter1_dddd_381_687" x="13.4904" y="180.939" width="60.2927" height="31.7331" filterUnits="userSpaceOnUse" color-interpolation-filters="sRGB">
<feFlood flood-opacity="0" result="BackgroundImageFix"/>
<feColorMatrix in="SourceAlpha" type="matrix" values="0 0 0 0 0 0 0 0 0 0 0 0 0 0 0 0 0 0 127 0" result="hardAlpha"/>
<feOffset dy="0.793333"/>
<feGaussianBlur stdDeviation="0.793333"/>
<feColorMatrix type="matrix" values="0 0 0 0 0.286275 0 0 0 0 0.317647 0 0 0 0 0.454902 0 0 0 0.1 0"/>
<feBlend mode="normal" in2="BackgroundImageFix" result="effect1_dropShadow_381_687"/>
<feColorMatrix in="SourceAlpha" type="matrix" values="0 0 0 0 0 0 0 0 0 0 0 0 0 0 0 0 0 0 127 0" result="hardAlpha"/>
<feOffset dy="2.38"/>
<feGaussianBlur stdDeviation="1.19"/>
<feColorMatrix type="matrix" values="0 0 0 0 0.286275 0 0 0 0 0.317647 0 0 0 0 0.454902 0 0 0 0.09 0"/>
<feBlend mode="normal" in2="effect1_dropShadow_381_687" result="effect2_dropShadow_381_687"/>
<feColorMatrix in="SourceAlpha" type="matrix" values="0 0 0 0 0 0 0 0 0 0 0 0 0 0 0 0 0 0 127 0" result="hardAlpha"/>
<feOffset dy="5.55333"/>
<feGaussianBlur stdDeviation="1.58667"/>
<feColorMatrix type="matrix" values="0 0 0 0 0.286275 0 0 0 0 0.317647 0 0 0 0 0.454902 0 0 0 0.05 0"/>
<feBlend mode="normal" in2="effect2_dropShadow_381_687" result="effect3_dropShadow_381_687"/>
<feColorMatrix in="SourceAlpha" type="matrix" values="0 0 0 0 0 0 0 0 0 0 0 0 0 0 0 0 0 0 127 0" result="hardAlpha"/>
<feOffset dy="9.52"/>
<feGaussianBlur stdDeviation="1.98333"/>
<feColorMatrix type="matrix" values="0 0 0 0 0.286275 0 0 0 0 0.317647 0 0 0 0 0.454902 0 0 0 0.01 0"/>
<feBlend mode="normal" in2="effect3_dropShadow_381_687" result="effect4_dropShadow_381_687"/>
<feBlend mode="normal" in="SourceGraphic" in2="effect4_dropShadow_381_687" result="shape"/>
</filter>
<filter id="filter2_dddd_381_687" x="69.8146" y="180.939" width="60.2927" height="31.7331" filterUnits="userSpaceOnUse" color-interpolation-filters="sRGB">
<feFlood flood-opacity="0" result="BackgroundImageFix"/>
<feColorMatrix in="SourceAlpha" type="matrix" values="0 0 0 0 0 0 0 0 0 0 0 0 0 0 0 0 0 0 127 0" result="hardAlpha"/>
<feOffset dy="0.793333"/>
<feGaussianBlur stdDeviation="0.793333"/>
<feColorMatrix type="matrix" values="0 0 0 0 0.286275 0 0 0 0 0.317647 0 0 0 0 0.454902 0 0 0 0.1 0"/>
<feBlend mode="normal" in2="BackgroundImageFix" result="effect1_dropShadow_381_687"/>
<feColorMatrix in="SourceAlpha" type="matrix" values="0 0 0 0 0 0 0 0 0 0 0 0 0 0 0 0 0 0 127 0" result="hardAlpha"/>
<feOffset dy="2.38"/>
<feGaussianBlur stdDeviation="1.19"/>
<feColorMatrix type="matrix" values="0 0 0 0 0.286275 0 0 0 0 0.317647 0 0 0 0 0.454902 0 0 0 0.09 0"/>
<feBlend mode="normal" in2="effect1_dropShadow_381_687" result="effect2_dropShadow_381_687"/>
<feColorMatrix in="SourceAlpha" type="matrix" values="0 0 0 0 0 0 0 0 0 0 0 0 0 0 0 0 0 0 127 0" result="hardAlpha"/>
<feOffset dy="5.55333"/>
<feGaussianBlur stdDeviation="1.58667"/>
<feColorMatrix type="matrix" values="0 0 0 0 0.286275 0 0 0 0 0.317647 0 0 0 0 0.454902 0 0 0 0.05 0"/>
<feBlend mode="normal" in2="effect2_dropShadow_381_687" result="effect3_dropShadow_381_687"/>
<feColorMatrix in="SourceAlpha" type="matrix" values="0 0 0 0 0 0 0 0 0 0 0 0 0 0 0 0 0 0 127 0" result="hardAlpha"/>
<feOffset dy="9.52"/>
<feGaussianBlur stdDeviation="1.98333"/>
<feColorMatrix type="matrix" values="0 0 0 0 0.286275 0 0 0 0 0.317647 0 0 0 0 0.454902 0 0 0 0.01 0"/>
<feBlend mode="normal" in2="effect3_dropShadow_381_687" result="effect4_dropShadow_381_687"/>
<feBlend mode="normal" in="SourceGraphic" in2="effect4_dropShadow_381_687" result="shape"/>
</filter>
<filter id="filter3_dddd_381_687" x="140.42" y="53.2125" width="60.2927" height="31.7331" filterUnits="userSpaceOnUse" color-interpolation-filters="sRGB">
<feFlood flood-opacity="0" result="BackgroundImageFix"/>
<feColorMatrix in="SourceAlpha" type="matrix" values="0 0 0 0 0 0 0 0 0 0 0 0 0 0 0 0 0 0 127 0" result="hardAlpha"/>
<feOffset dy="0.793333"/>
<feGaussianBlur stdDeviation="0.793333"/>
<feColorMatrix type="matrix" values="0 0 0 0 0.286275 0 0 0 0 0.317647 0 0 0 0 0.454902 0 0 0 0.1 0"/>
<feBlend mode="normal" in2="BackgroundImageFix" result="effect1_dropShadow_381_687"/>
<feColorMatrix in="SourceAlpha" type="matrix" values="0 0 0 0 0 0 0 0 0 0 0 0 0 0 0 0 0 0 127 0" result="hardAlpha"/>
<feOffset dy="2.38"/>
<feGaussianBlur stdDeviation="1.19"/>
<feColorMatrix type="matrix" values="0 0 0 0 0.286275 0 0 0 0 0.317647 0 0 0 0 0.454902 0 0 0 0.09 0"/>
<feBlend mode="normal" in2="effect1_dropShadow_381_687" result="effect2_dropShadow_381_687"/>
<feColorMatrix in="SourceAlpha" type="matrix" values="0 0 0 0 0 0 0 0 0 0 0 0 0 0 0 0 0 0 127 0" result="hardAlpha"/>
<feOffset dy="5.55333"/>
<feGaussianBlur stdDeviation="1.58667"/>
<feColorMatrix type="matrix" values="0 0 0 0 0.286275 0 0 0 0 0.317647 0 0 0 0 0.454902 0 0 0 0.05 0"/>
<feBlend mode="normal" in2="effect2_dropShadow_381_687" result="effect3_dropShadow_381_687"/>
<feColorMatrix in="SourceAlpha" type="matrix" values="0 0 0 0 0 0 0 0 0 0 0 0 0 0 0 0 0 0 127 0" result="hardAlpha"/>
<feOffset dy="9.52"/>
<feGaussianBlur stdDeviation="1.98333"/>
<feColorMatrix type="matrix" values="0 0 0 0 0.286275 0 0 0 0 0.317647 0 0 0 0 0.454902 0 0 0 0.01 0"/>
<feBlend mode="normal" in2="effect3_dropShadow_381_687" result="effect4_dropShadow_381_687"/>
<feBlend mode="normal" in="SourceGraphic" in2="effect4_dropShadow_381_687" result="shape"/>
</filter>
<filter id="filter4_dddd_381_687" x="122.174" y="229.871" width="73.0115" height="34.6257" filterUnits="userSpaceOnUse" color-interpolation-filters="sRGB">
<feFlood flood-opacity="0" result="BackgroundImageFix"/>
<feColorMatrix in="SourceAlpha" type="matrix" values="0 0 0 0 0 0 0 0 0 0 0 0 0 0 0 0 0 0 127 0" result="hardAlpha"/>
<feOffset dy="0.793333"/>
<feGaussianBlur stdDeviation="0.793333"/>
<feColorMatrix type="matrix" values="0 0 0 0 0.286275 0 0 0 0 0.317647 0 0 0 0 0.454902 0 0 0 0.1 0"/>
<feBlend mode="normal" in2="BackgroundImageFix" result="effect1_dropShadow_381_687"/>
<feColorMatrix in="SourceAlpha" type="matrix" values="0 0 0 0 0 0 0 0 0 0 0 0 0 0 0 0 0 0 127 0" result="hardAlpha"/>
<feOffset dy="2.38"/>
<feGaussianBlur stdDeviation="1.19"/>
<feColorMatrix type="matrix" values="0 0 0 0 0.286275 0 0 0 0 0.317647 0 0 0 0 0.454902 0 0 0 0.09 0"/>
<feBlend mode="normal" in2="effect1_dropShadow_381_687" result="effect2_dropShadow_381_687"/>
<feColorMatrix in="SourceAlpha" type="matrix" values="0 0 0 0 0 0 0 0 0 0 0 0 0 0 0 0 0 0 127 0" result="hardAlpha"/>
<feOffset dy="5.55333"/>
<feGaussianBlur stdDeviation="1.58667"/>
<feColorMatrix type="matrix" values="0 0 0 0 0.286275 0 0 0 0 0.317647 0 0 0 0 0.454902 0 0 0 0.05 0"/>
<feBlend mode="normal" in2="effect2_dropShadow_381_687" result="effect3_dropShadow_381_687"/>
<feColorMatrix in="SourceAlpha" type="matrix" values="0 0 0 0 0 0 0 0 0 0 0 0 0 0 0 0 0 0 127 0" result="hardAlpha"/>
<feOffset dy="9.52"/>
<feGaussianBlur stdDeviation="1.98333"/>
<feColorMatrix type="matrix" values="0 0 0 0 0.286275 0 0 0 0 0.317647 0 0 0 0 0.454902 0 0 0 0.01 0"/>
<feBlend mode="normal" in2="effect3_dropShadow_381_687" result="effect4_dropShadow_381_687"/>
<feBlend mode="normal" in="SourceGraphic" in2="effect4_dropShadow_381_687" result="shape"/>
</filter>
<filter id="filter5_dddd_381_687" x="141.547" y="27.8267" width="247.52" height="301.467" filterUnits="userSpaceOnUse" color-interpolation-filters="sRGB">
<feFlood flood-opacity="0" result="BackgroundImageFix"/>
<feColorMatrix in="SourceAlpha" type="matrix" values="0 0 0 0 0 0 0 0 0 0 0 0 0 0 0 0 0 0 127 0" result="hardAlpha"/>
<feOffset dy="2.38"/>
<feGaussianBlur stdDeviation="2.77667"/>
<feColorMatrix type="matrix" values="0 0 0 0 0.286275 0 0 0 0 0.317647 0 0 0 0 0.454902 0 0 0 0.1 0"/>
<feBlend mode="normal" in2="BackgroundImageFix" result="effect1_dropShadow_381_687"/>
<feColorMatrix in="SourceAlpha" type="matrix" values="0 0 0 0 0 0 0 0 0 0 0 0 0 0 0 0 0 0 127 0" result="hardAlpha"/>
<feOffset dy="11.1067"/>
<feGaussianBlur stdDeviation="5.55333"/>
<feColorMatrix type="matrix" values="0 0 0 0 0.286275 0 0 0 0 0.317647 0 0 0 0 0.454902 0 0 0 0.09 0"/>
<feBlend mode="normal" in2="effect1_dropShadow_381_687" result="effect2_dropShadow_381_687"/>
<feColorMatrix in="SourceAlpha" type="matrix" values="0 0 0 0 0 0 0 0 0 0 0 0 0 0 0 0 0 0 127 0" result="hardAlpha"/>
<feOffset dy="23.8"/>
<feGaussianBlur stdDeviation="7.14"/>
<feColorMatrix type="matrix" values="0 0 0 0 0.286275 0 0 0 0 0.317647 0 0 0 0 0.454902 0 0 0 0.05 0"/>
<feBlend mode="normal" in2="effect2_dropShadow_381_687" result="effect3_dropShadow_381_687"/>
<feColorMatrix in="SourceAlpha" type="matrix" values="0 0 0 0 0 0 0 0 0 0 0 0 0 0 0 0 0 0 127 0" result="hardAlpha"/>
<feOffset dy="42.84"/>
<feGaussianBlur stdDeviation="8.72667"/>
<feColorMatrix type="matrix" values="0 0 0 0 0.286275 0 0 0 0 0.317647 0 0 0 0 0.454902 0 0 0 0.01 0"/>
<feBlend mode="normal" in2="effect3_dropShadow_381_687" result="effect4_dropShadow_381_687"/>
<feBlend mode="normal" in="SourceGraphic" in2="effect4_dropShadow_381_687" result="shape"/>
</filter>
<filter id="filter6_dddd_381_687" x="172.49" y="180.939" width="60.2927" height="31.7331" filterUnits="userSpaceOnUse" color-interpolation-filters="sRGB">
<feFlood flood-opacity="0" result="BackgroundImageFix"/>
<feColorMatrix in="SourceAlpha" type="matrix" values="0 0 0 0 0 0 0 0 0 0 0 0 0 0 0 0 0 0 127 0" result="hardAlpha"/>
<feOffset dy="0.793333"/>
<feGaussianBlur stdDeviation="0.793333"/>
<feColorMatrix type="matrix" values="0 0 0 0 0.286275 0 0 0 0 0.317647 0 0 0 0 0.454902 0 0 0 0.1 0"/>
<feBlend mode="normal" in2="BackgroundImageFix" result="effect1_dropShadow_381_687"/>
<feColorMatrix in="SourceAlpha" type="matrix" values="0 0 0 0 0 0 0 0 0 0 0 0 0 0 0 0 0 0 127 0" result="hardAlpha"/>
<feOffset dy="2.38"/>
<feGaussianBlur stdDeviation="1.19"/>
<feColorMatrix type="matrix" values="0 0 0 0 0.286275 0 0 0 0 0.317647 0 0 0 0 0.454902 0 0 0 0.09 0"/>
<feBlend mode="normal" in2="effect1_dropShadow_381_687" result="effect2_dropShadow_381_687"/>
<feColorMatrix in="SourceAlpha" type="matrix" values="0 0 0 0 0 0 0 0 0 0 0 0 0 0 0 0 0 0 127 0" result="hardAlpha"/>
<feOffset dy="5.55333"/>
<feGaussianBlur stdDeviation="1.58667"/>
<feColorMatrix type="matrix" values="0 0 0 0 0.286275 0 0 0 0 0.317647 0 0 0 0 0.454902 0 0 0 0.05 0"/>
<feBlend mode="normal" in2="effect2_dropShadow_381_687" result="effect3_dropShadow_381_687"/>
<feColorMatrix in="SourceAlpha" type="matrix" values="0 0 0 0 0 0 0 0 0 0 0 0 0 0 0 0 0 0 127 0" result="hardAlpha"/>
<feOffset dy="9.52"/>
<feGaussianBlur stdDeviation="1.98333"/>
<feColorMatrix type="matrix" values="0 0 0 0 0.286275 0 0 0 0 0.317647 0 0 0 0 0.454902 0 0 0 0.01 0"/>
<feBlend mode="normal" in2="effect3_dropShadow_381_687" result="effect4_dropShadow_381_687"/>
<feBlend mode="normal" in="SourceGraphic" in2="effect4_dropShadow_381_687" result="shape"/>
</filter>
<filter id="filter7_dddd_381_687" x="228.815" y="180.939" width="60.2927" height="31.7331" filterUnits="userSpaceOnUse" color-interpolation-filters="sRGB">
<feFlood flood-opacity="0" result="BackgroundImageFix"/>
<feColorMatrix in="SourceAlpha" type="matrix" values="0 0 0 0 0 0 0 0 0 0 0 0 0 0 0 0 0 0 127 0" result="hardAlpha"/>
<feOffset dy="0.793333"/>
<feGaussianBlur stdDeviation="0.793333"/>
<feColorMatrix type="matrix" values="0 0 0 0 0.286275 0 0 0 0 0.317647 0 0 0 0 0.454902 0 0 0 0.1 0"/>
<feBlend mode="normal" in2="BackgroundImageFix" result="effect1_dropShadow_381_687"/>
<feColorMatrix in="SourceAlpha" type="matrix" values="0 0 0 0 0 0 0 0 0 0 0 0 0 0 0 0 0 0 127 0" result="hardAlpha"/>
<feOffset dy="2.38"/>
<feGaussianBlur stdDeviation="1.19"/>
<feColorMatrix type="matrix" values="0 0 0 0 0.286275 0 0 0 0 0.317647 0 0 0 0 0.454902 0 0 0 0.09 0"/>
<feBlend mode="normal" in2="effect1_dropShadow_381_687" result="effect2_dropShadow_381_687"/>
<feColorMatrix in="SourceAlpha" type="matrix" values="0 0 0 0 0 0 0 0 0 0 0 0 0 0 0 0 0 0 127 0" result="hardAlpha"/>
<feOffset dy="5.55333"/>
<feGaussianBlur stdDeviation="1.58667"/>
<feColorMatrix type="matrix" values="0 0 0 0 0.286275 0 0 0 0 0.317647 0 0 0 0 0.454902 0 0 0 0.05 0"/>
<feBlend mode="normal" in2="effect2_dropShadow_381_687" result="effect3_dropShadow_381_687"/>
<feColorMatrix in="SourceAlpha" type="matrix" values="0 0 0 0 0 0 0 0 0 0 0 0 0 0 0 0 0 0 127 0" result="hardAlpha"/>
<feOffset dy="9.52"/>
<feGaussianBlur stdDeviation="1.98333"/>
<feColorMatrix type="matrix" values="0 0 0 0 0.286275 0 0 0 0 0.317647 0 0 0 0 0.454902 0 0 0 0.01 0"/>
<feBlend mode="normal" in2="effect3_dropShadow_381_687" result="effect4_dropShadow_381_687"/>
<feBlend mode="normal" in="SourceGraphic" in2="effect4_dropShadow_381_687" result="shape"/>
</filter>
<filter id="filter8_dddd_381_687" x="299.42" y="53.2125" width="60.2927" height="31.7331" filterUnits="userSpaceOnUse" color-interpolation-filters="sRGB">
<feFlood flood-opacity="0" result="BackgroundImageFix"/>
<feColorMatrix in="SourceAlpha" type="matrix" values="0 0 0 0 0 0 0 0 0 0 0 0 0 0 0 0 0 0 127 0" result="hardAlpha"/>
<feOffset dy="0.793333"/>
<feGaussianBlur stdDeviation="0.793333"/>
<feColorMatrix type="matrix" values="0 0 0 0 0.286275 0 0 0 0 0.317647 0 0 0 0 0.454902 0 0 0 0.1 0"/>
<feBlend mode="normal" in2="BackgroundImageFix" result="effect1_dropShadow_381_687"/>
<feColorMatrix in="SourceAlpha" type="matrix" values="0 0 0 0 0 0 0 0 0 0 0 0 0 0 0 0 0 0 127 0" result="hardAlpha"/>
<feOffset dy="2.38"/>
<feGaussianBlur stdDeviation="1.19"/>
<feColorMatrix type="matrix" values="0 0 0 0 0.286275 0 0 0 0 0.317647 0 0 0 0 0.454902 0 0 0 0.09 0"/>
<feBlend mode="normal" in2="effect1_dropShadow_381_687" result="effect2_dropShadow_381_687"/>
<feColorMatrix in="SourceAlpha" type="matrix" values="0 0 0 0 0 0 0 0 0 0 0 0 0 0 0 0 0 0 127 0" result="hardAlpha"/>
<feOffset dy="5.55333"/>
<feGaussianBlur stdDeviation="1.58667"/>
<feColorMatrix type="matrix" values="0 0 0 0 0.286275 0 0 0 0 0.317647 0 0 0 0 0.454902 0 0 0 0.05 0"/>
<feBlend mode="normal" in2="effect2_dropShadow_381_687" result="effect3_dropShadow_381_687"/>
<feColorMatrix in="SourceAlpha" type="matrix" values="0 0 0 0 0 0 0 0 0 0 0 0 0 0 0 0 0 0 127 0" result="hardAlpha"/>
<feOffset dy="9.52"/>
<feGaussianBlur stdDeviation="1.98333"/>
<feColorMatrix type="matrix" values="0 0 0 0 0.286275 0 0 0 0 0.317647 0 0 0 0 0.454902 0 0 0 0.01 0"/>
<feBlend mode="normal" in2="effect3_dropShadow_381_687" result="effect4_dropShadow_381_687"/>
<feBlend mode="normal" in="SourceGraphic" in2="effect4_dropShadow_381_687" result="shape"/>
</filter>
<filter id="filter9_dddd_381_687" x="281.174" y="229.871" width="73.0115" height="34.6257" filterUnits="userSpaceOnUse" color-interpolation-filters="sRGB">
<feFlood flood-opacity="0" result="BackgroundImageFix"/>
<feColorMatrix in="SourceAlpha" type="matrix" values="0 0 0 0 0 0 0 0 0 0 0 0 0 0 0 0 0 0 127 0" result="hardAlpha"/>
<feOffset dy="0.793333"/>
<feGaussianBlur stdDeviation="0.793333"/>
<feColorMatrix type="matrix" values="0 0 0 0 0.286275 0 0 0 0 0.317647 0 0 0 0 0.454902 0 0 0 0.1 0"/>
<feBlend mode="normal" in2="BackgroundImageFix" result="effect1_dropShadow_381_687"/>
<feColorMatrix in="SourceAlpha" type="matrix" values="0 0 0 0 0 0 0 0 0 0 0 0 0 0 0 0 0 0 127 0" result="hardAlpha"/>
<feOffset dy="2.38"/>
<feGaussianBlur stdDeviation="1.19"/>
<feColorMatrix type="matrix" values="0 0 0 0 0.286275 0 0 0 0 0.317647 0 0 0 0 0.454902 0 0 0 0.09 0"/>
<feBlend mode="normal" in2="effect1_dropShadow_381_687" result="effect2_dropShadow_381_687"/>
<feColorMatrix in="SourceAlpha" type="matrix" values="0 0 0 0 0 0 0 0 0 0 0 0 0 0 0 0 0 0 127 0" result="hardAlpha"/>
<feOffset dy="5.55333"/>
<feGaussianBlur stdDeviation="1.58667"/>
<feColorMatrix type="matrix" values="0 0 0 0 0.286275 0 0 0 0 0.317647 0 0 0 0 0.454902 0 0 0 0.05 0"/>
<feBlend mode="normal" in2="effect2_dropShadow_381_687" result="effect3_dropShadow_381_687"/>
<feColorMatrix in="SourceAlpha" type="matrix" values="0 0 0 0 0 0 0 0 0 0 0 0 0 0 0 0 0 0 127 0" result="hardAlpha"/>
<feOffset dy="9.52"/>
<feGaussianBlur stdDeviation="1.98333"/>
<feColorMatrix type="matrix" values="0 0 0 0 0.286275 0 0 0 0 0.317647 0 0 0 0 0.454902 0 0 0 0.01 0"/>
<feBlend mode="normal" in2="effect3_dropShadow_381_687" result="effect4_dropShadow_381_687"/>
<feBlend mode="normal" in="SourceGraphic" in2="effect4_dropShadow_381_687" result="shape"/>
</filter>
<filter id="filter10_dddd_381_687" x="30.3086" y="-4" width="312" height="380" filterUnits="userSpaceOnUse" color-interpolation-filters="sRGB">
<feFlood flood-opacity="0" result="BackgroundImageFix"/>
<feColorMatrix in="SourceAlpha" type="matrix" values="0 0 0 0 0 0 0 0 0 0 0 0 0 0 0 0 0 0 127 0" result="hardAlpha"/>
<feOffset dy="3"/>
<feGaussianBlur stdDeviation="3.5"/>
<feColorMatrix type="matrix" values="0 0 0 0 0.286275 0 0 0 0 0.317647 0 0 0 0 0.454902 0 0 0 0.1 0"/>
<feBlend mode="normal" in2="BackgroundImageFix" result="effect1_dropShadow_381_687"/>
<feColorMatrix in="SourceAlpha" type="matrix" values="0 0 0 0 0 0 0 0 0 0 0 0 0 0 0 0 0 0 127 0" result="hardAlpha"/>
<feOffset dy="14"/>
<feGaussianBlur stdDeviation="7"/>
<feColorMatrix type="matrix" values="0 0 0 0 0.286275 0 0 0 0 0.317647 0 0 0 0 0.454902 0 0 0 0.09 0"/>
<feBlend mode="normal" in2="effect1_dropShadow_381_687" result="effect2_dropShadow_381_687"/>
<feColorMatrix in="SourceAlpha" type="matrix" values="0 0 0 0 0 0 0 0 0 0 0 0 0 0 0 0 0 0 127 0" result="hardAlpha"/>
<feOffset dy="30"/>
<feGaussianBlur stdDeviation="9"/>
<feColorMatrix type="matrix" values="0 0 0 0 0.286275 0 0 0 0 0.317647 0 0 0 0 0.454902 0 0 0 0.05 0"/>
<feBlend mode="normal" in2="effect2_dropShadow_381_687" result="effect3_dropShadow_381_687"/>
<feColorMatrix in="SourceAlpha" type="matrix" values="0 0 0 0 0 0 0 0 0 0 0 0 0 0 0 0 0 0 127 0" result="hardAlpha"/>
<feOffset dy="54"/>
<feGaussianBlur stdDeviation="11"/>
<feColorMatrix type="matrix" values="0 0 0 0 0.286275 0 0 0 0 0.317647 0 0 0 0 0.454902 0 0 0 0.01 0"/>
<feBlend mode="normal" in2="effect3_dropShadow_381_687" result="effect4_dropShadow_381_687"/>
<feBlend mode="normal" in="SourceGraphic" in2="effect4_dropShadow_381_687" result="shape"/>
</filter>
<filter id="filter11_dddd_381_687" x="69.3086" y="189" width="76" height="40" filterUnits="userSpaceOnUse" color-interpolation-filters="sRGB">
<feFlood flood-opacity="0" result="BackgroundImageFix"/>
<feColorMatrix in="SourceAlpha" type="matrix" values="0 0 0 0 0 0 0 0 0 0 0 0 0 0 0 0 0 0 127 0" result="hardAlpha"/>
<feOffset dy="1"/>
<feGaussianBlur stdDeviation="1"/>
<feColorMatrix type="matrix" values="0 0 0 0 0.286275 0 0 0 0 0.317647 0 0 0 0 0.454902 0 0 0 0.1 0"/>
<feBlend mode="normal" in2="BackgroundImageFix" result="effect1_dropShadow_381_687"/>
<feColorMatrix in="SourceAlpha" type="matrix" values="0 0 0 0 0 0 0 0 0 0 0 0 0 0 0 0 0 0 127 0" result="hardAlpha"/>
<feOffset dy="3"/>
<feGaussianBlur stdDeviation="1.5"/>
<feColorMatrix type="matrix" values="0 0 0 0 0.286275 0 0 0 0 0.317647 0 0 0 0 0.454902 0 0 0 0.09 0"/>
<feBlend mode="normal" in2="effect1_dropShadow_381_687" result="effect2_dropShadow_381_687"/>
<feColorMatrix in="SourceAlpha" type="matrix" values="0 0 0 0 0 0 0 0 0 0 0 0 0 0 0 0 0 0 127 0" result="hardAlpha"/>
<feOffset dy="7"/>
<feGaussianBlur stdDeviation="2"/>
<feColorMatrix type="matrix" values="0 0 0 0 0.286275 0 0 0 0 0.317647 0 0 0 0 0.454902 0 0 0 0.05 0"/>
<feBlend mode="normal" in2="effect2_dropShadow_381_687" result="effect3_dropShadow_381_687"/>
<feColorMatrix in="SourceAlpha" type="matrix" values="0 0 0 0 0 0 0 0 0 0 0 0 0 0 0 0 0 0 127 0" result="hardAlpha"/>
<feOffset dy="12"/>
<feGaussianBlur stdDeviation="2.5"/>
<feColorMatrix type="matrix" values="0 0 0 0 0.286275 0 0 0 0 0.317647 0 0 0 0 0.454902 0 0 0 0.01 0"/>
<feBlend mode="normal" in2="effect3_dropShadow_381_687" result="effect4_dropShadow_381_687"/>
<feBlend mode="normal" in="SourceGraphic" in2="effect4_dropShadow_381_687" result="shape"/>
</filter>
<filter id="filter12_dddd_381_687" x="140.309" y="189" width="76" height="40" filterUnits="userSpaceOnUse" color-interpolation-filters="sRGB">
<feFlood flood-opacity="0" result="BackgroundImageFix"/>
<feColorMatrix in="SourceAlpha" type="matrix" values="0 0 0 0 0 0 0 0 0 0 0 0 0 0 0 0 0 0 127 0" result="hardAlpha"/>
<feOffset dy="1"/>
<feGaussianBlur stdDeviation="1"/>
<feColorMatrix type="matrix" values="0 0 0 0 0.286275 0 0 0 0 0.317647 0 0 0 0 0.454902 0 0 0 0.1 0"/>
<feBlend mode="normal" in2="BackgroundImageFix" result="effect1_dropShadow_381_687"/>
<feColorMatrix in="SourceAlpha" type="matrix" values="0 0 0 0 0 0 0 0 0 0 0 0 0 0 0 0 0 0 127 0" result="hardAlpha"/>
<feOffset dy="3"/>
<feGaussianBlur stdDeviation="1.5"/>
<feColorMatrix type="matrix" values="0 0 0 0 0.286275 0 0 0 0 0.317647 0 0 0 0 0.454902 0 0 0 0.09 0"/>
<feBlend mode="normal" in2="effect1_dropShadow_381_687" result="effect2_dropShadow_381_687"/>
<feColorMatrix in="SourceAlpha" type="matrix" values="0 0 0 0 0 0 0 0 0 0 0 0 0 0 0 0 0 0 127 0" result="hardAlpha"/>
<feOffset dy="7"/>
<feGaussianBlur stdDeviation="2"/>
<feColorMatrix type="matrix" values="0 0 0 0 0.286275 0 0 0 0 0.317647 0 0 0 0 0.454902 0 0 0 0.05 0"/>
<feBlend mode="normal" in2="effect2_dropShadow_381_687" result="effect3_dropShadow_381_687"/>
<feColorMatrix in="SourceAlpha" type="matrix" values="0 0 0 0 0 0 0 0 0 0 0 0 0 0 0 0 0 0 127 0" result="hardAlpha"/>
<feOffset dy="12"/>
<feGaussianBlur stdDeviation="2.5"/>
<feColorMatrix type="matrix" values="0 0 0 0 0.286275 0 0 0 0 0.317647 0 0 0 0 0.454902 0 0 0 0.01 0"/>
<feBlend mode="normal" in2="effect3_dropShadow_381_687" result="effect4_dropShadow_381_687"/>
<feBlend mode="normal" in="SourceGraphic" in2="effect4_dropShadow_381_687" result="shape"/>
</filter>
<filter id="filter13_dddd_381_687" x="229.309" y="28" width="76" height="40" filterUnits="userSpaceOnUse" color-interpolation-filters="sRGB">
<feFlood flood-opacity="0" result="BackgroundImageFix"/>
<feColorMatrix in="SourceAlpha" type="matrix" values="0 0 0 0 0 0 0 0 0 0 0 0 0 0 0 0 0 0 127 0" result="hardAlpha"/>
<feOffset dy="1"/>
<feGaussianBlur stdDeviation="1"/>
<feColorMatrix type="matrix" values="0 0 0 0 0.286275 0 0 0 0 0.317647 0 0 0 0 0.454902 0 0 0 0.1 0"/>
<feBlend mode="normal" in2="BackgroundImageFix" result="effect1_dropShadow_381_687"/>
<feColorMatrix in="SourceAlpha" type="matrix" values="0 0 0 0 0 0 0 0 0 0 0 0 0 0 0 0 0 0 127 0" result="hardAlpha"/>
<feOffset dy="3"/>
<feGaussianBlur stdDeviation="1.5"/>
<feColorMatrix type="matrix" values="0 0 0 0 0.286275 0 0 0 0 0.317647 0 0 0 0 0.454902 0 0 0 0.09 0"/>
<feBlend mode="normal" in2="effect1_dropShadow_381_687" result="effect2_dropShadow_381_687"/>
<feColorMatrix in="SourceAlpha" type="matrix" values="0 0 0 0 0 0 0 0 0 0 0 0 0 0 0 0 0 0 127 0" result="hardAlpha"/>
<feOffset dy="7"/>
<feGaussianBlur stdDeviation="2"/>
<feColorMatrix type="matrix" values="0 0 0 0 0.286275 0 0 0 0 0.317647 0 0 0 0 0.454902 0 0 0 0.05 0"/>
<feBlend mode="normal" in2="effect2_dropShadow_381_687" result="effect3_dropShadow_381_687"/>
<feColorMatrix in="SourceAlpha" type="matrix" values="0 0 0 0 0 0 0 0 0 0 0 0 0 0 0 0 0 0 127 0" result="hardAlpha"/>
<feOffset dy="12"/>
<feGaussianBlur stdDeviation="2.5"/>
<feColorMatrix type="matrix" values="0 0 0 0 0.286275 0 0 0 0 0.317647 0 0 0 0 0.454902 0 0 0 0.01 0"/>
<feBlend mode="normal" in2="effect3_dropShadow_381_687" result="effect4_dropShadow_381_687"/>
<feBlend mode="normal" in="SourceGraphic" in2="effect4_dropShadow_381_687" result="shape"/>
</filter>
<filter id="filter14_dddd_381_687" x="206.309" y="250.5" width="92" height="44" filterUnits="userSpaceOnUse" color-interpolation-filters="sRGB">
<feFlood flood-opacity="0" result="BackgroundImageFix"/>
<feColorMatrix in="SourceAlpha" type="matrix" values="0 0 0 0 0 0 0 0 0 0 0 0 0 0 0 0 0 0 127 0" result="hardAlpha"/>
<feOffset dy="1"/>
<feGaussianBlur stdDeviation="1"/>
<feColorMatrix type="matrix" values="0 0 0 0 0.286275 0 0 0 0 0.317647 0 0 0 0 0.454902 0 0 0 0.1 0"/>
<feBlend mode="normal" in2="BackgroundImageFix" result="effect1_dropShadow_381_687"/>
<feColorMatrix in="SourceAlpha" type="matrix" values="0 0 0 0 0 0 0 0 0 0 0 0 0 0 0 0 0 0 127 0" result="hardAlpha"/>
<feOffset dy="3"/>
<feGaussianBlur stdDeviation="1.5"/>
<feColorMatrix type="matrix" values="0 0 0 0 0.286275 0 0 0 0 0.317647 0 0 0 0 0.454902 0 0 0 0.09 0"/>
<feBlend mode="normal" in2="effect1_dropShadow_381_687" result="effect2_dropShadow_381_687"/>
<feColorMatrix in="SourceAlpha" type="matrix" values="0 0 0 0 0 0 0 0 0 0 0 0 0 0 0 0 0 0 127 0" result="hardAlpha"/>
<feOffset dy="7"/>
<feGaussianBlur stdDeviation="2"/>
<feColorMatrix type="matrix" values="0 0 0 0 0.286275 0 0 0 0 0.317647 0 0 0 0 0.454902 0 0 0 0.05 0"/>
<feBlend mode="normal" in2="effect2_dropShadow_381_687" result="effect3_dropShadow_381_687"/>
<feColorMatrix in="SourceAlpha" type="matrix" values="0 0 0 0 0 0 0 0 0 0 0 0 0 0 0 0 0 0 127 0" result="hardAlpha"/>
<feOffset dy="12"/>
<feGaussianBlur stdDeviation="2.5"/>
<feColorMatrix type="matrix" values="0 0 0 0 0.286275 0 0 0 0 0.317647 0 0 0 0 0.454902 0 0 0 0.01 0"/>
<feBlend mode="normal" in2="effect3_dropShadow_381_687" result="effect4_dropShadow_381_687"/>
<feBlend mode="normal" in="SourceGraphic" in2="effect4_dropShadow_381_687" result="shape"/>
</filter>
<clipPath id="clip0_381_687">
<rect width="371.613" height="300" fill="white"/>
</clipPath>
</defs>
</svg>
