<svg width="384" height="313" viewBox="0 0 384 313" fill="none" xmlns="http://www.w3.org/2000/svg">
<g filter="url(#filter0_dddd_362_511)">
<rect x="28" y="6" width="328" height="209" rx="14" fill="white"/>
<rect x="43" y="21" width="77" height="77" rx="5" fill="#8DA5FD"/>
<path d="M82.0013 60.0007C87.9844 60.0007 92.8346 55.1504 92.8346 49.1673C92.8346 43.1842 87.9844 38.334 82.0013 38.334C76.0182 38.334 71.168 43.1842 71.168 49.1673C71.168 55.1504 76.0182 60.0007 82.0013 60.0007Z" stroke="white" stroke-width="3.25" stroke-linecap="round" stroke-linejoin="round"/>
<path d="M100.614 81.6667C100.614 73.2817 92.2723 66.5 82.0023 66.5C71.7323 66.5 63.3906 73.2817 63.3906 81.6667" stroke="white" stroke-width="3.25" stroke-linecap="round" stroke-linejoin="round"/>
<path d="M43 126H112.149" stroke="#8DA5FD" stroke-width="7.0202" stroke-linecap="round"/>
<path d="M271 61H340.149" stroke="#8DA5FD" stroke-width="7.0202" stroke-linecap="round"/>
<path d="M43 147.061H182" stroke="#DDDDDD" stroke-width="7.0202" stroke-linecap="round"/>
<path d="M43 168H158" stroke="#DDDDDD" stroke-width="7.0202" stroke-linecap="round"/>
<path d="M73 189.121H212" stroke="#DDDDDD" stroke-width="7.0202" stroke-linecap="round"/>
<rect x="282" y="181" width="15" height="15" rx="3" fill="#DDDDDD"/>
<rect x="43" y="181" width="15" height="15" rx="3" fill="#8DA5FD"/>
<rect x="304" y="181" width="15" height="15" rx="3" fill="#DDDDDD"/>
<rect x="326" y="181" width="15" height="15" rx="3" fill="#DDDDDD"/>
</g>
<defs>
<filter id="filter0_dddd_362_511" x="0" y="0" width="384" height="313" filterUnits="userSpaceOnUse" color-interpolation-filters="sRGB">
<feFlood flood-opacity="0" result="BackgroundImageFix"/>
<feColorMatrix in="SourceAlpha" type="matrix" values="0 0 0 0 0 0 0 0 0 0 0 0 0 0 0 0 0 0 127 0" result="hardAlpha"/>
<feOffset dy="4"/>
<feGaussianBlur stdDeviation="5"/>
<feColorMatrix type="matrix" values="0 0 0 0 0.572549 0 0 0 0 0.592157 0 0 0 0 0.690196 0 0 0 0.1 0"/>
<feBlend mode="normal" in2="BackgroundImageFix" result="effect1_dropShadow_362_511"/>
<feColorMatrix in="SourceAlpha" type="matrix" values="0 0 0 0 0 0 0 0 0 0 0 0 0 0 0 0 0 0 127 0" result="hardAlpha"/>
<feOffset dy="17"/>
<feGaussianBlur stdDeviation="8.5"/>
<feColorMatrix type="matrix" values="0 0 0 0 0.572549 0 0 0 0 0.592157 0 0 0 0 0.690196 0 0 0 0.09 0"/>
<feBlend mode="normal" in2="effect1_dropShadow_362_511" result="effect2_dropShadow_362_511"/>
<feColorMatrix in="SourceAlpha" type="matrix" values="0 0 0 0 0 0 0 0 0 0 0 0 0 0 0 0 0 0 127 0" result="hardAlpha"/>
<feOffset dy="39"/>
<feGaussianBlur stdDeviation="12"/>
<feColorMatrix type="matrix" values="0 0 0 0 0.572549 0 0 0 0 0.592157 0 0 0 0 0.690196 0 0 0 0.05 0"/>
<feBlend mode="normal" in2="effect2_dropShadow_362_511" result="effect3_dropShadow_362_511"/>
<feColorMatrix in="SourceAlpha" type="matrix" values="0 0 0 0 0 0 0 0 0 0 0 0 0 0 0 0 0 0 127 0" result="hardAlpha"/>
<feOffset dy="70"/>
<feGaussianBlur stdDeviation="14"/>
<feColorMatrix type="matrix" values="0 0 0 0 0.572549 0 0 0 0 0.592157 0 0 0 0 0.690196 0 0 0 0.01 0"/>
<feBlend mode="normal" in2="effect3_dropShadow_362_511" result="effect4_dropShadow_362_511"/>
<feBlend mode="normal" in="SourceGraphic" in2="effect4_dropShadow_362_511" result="shape"/>
</filter>
</defs>
</svg>
