<svg width="247" height="295" viewBox="0 0 247 295" fill="none" xmlns="http://www.w3.org/2000/svg">
<g clip-path="url(#clip0_381_764)">
<g filter="url(#filter0_dddd_381_764)">
<rect x="1" width="245" height="80.623" rx="8.61022" fill="white"/>
<g filter="url(#filter1_dddd_381_764)">
<rect x="19.0039" y="18.002" width="44.6166" height="44.6166" rx="3.87971" fill="#4287F1"/>
<path d="M37.8204 38.4135C37.4206 38.2098 36.9755 38.1042 36.5229 38.1042C32.9924 38.3532 32.9924 43.4905 36.5229 43.7395M47.635 42.6833C50.117 40.5182 48.7892 36.1654 45.5227 35.7505C44.3459 28.6819 34.139 31.3675 36.5606 38.1042" stroke="white" stroke-width="1.13158" stroke-miterlimit="10" stroke-linecap="round" stroke-linejoin="round"/>
<path d="M44.2969 36.0827C44.6892 35.8866 45.1192 35.781 45.5567 35.7734" stroke="white" stroke-width="1.13158" stroke-miterlimit="10" stroke-linecap="round" stroke-linejoin="round"/>
<path d="M42.037 49.9355C42.037 50.2927 42.3265 50.5822 42.6836 50.5822C43.0407 50.5822 43.3302 50.2927 43.3302 49.9355L42.037 49.9355ZM43.1408 41.0723C42.8883 40.8198 42.4789 40.8198 42.2264 41.0723L38.1113 45.1873C37.8588 45.4399 37.8588 45.8493 38.1113 46.1018C38.3638 46.3543 38.7733 46.3543 39.0258 46.1018L42.6836 42.444L46.3414 46.1018C46.5939 46.3543 47.0034 46.3543 47.2559 46.1018C47.5084 45.8493 47.5084 45.4399 47.2559 45.1873L43.1408 41.0723ZM42.6836 49.9355L43.3302 49.9355L43.3302 41.5295L42.6836 41.5295L42.037 41.5295L42.037 49.9355L42.6836 49.9355Z" fill="white"/>
</g>
<path d="M83.9727 42.2676L159.222 42.2676" stroke="#DDDDDD" stroke-width="3.0714" stroke-linecap="round"/>
<path d="M83.9727 55.5742H182.256" stroke="#DDDDDD" stroke-width="3.07136" stroke-linecap="round"/>
<path d="M87.1591 21.4551V22.1501H85.3744V28.002H84.5197V22.1501H82.7256V21.4551H87.1591ZM89.066 23.6906C89.2163 23.3963 89.4292 23.1677 89.7047 23.0049C89.9865 22.8421 90.3278 22.7607 90.7286 22.7607V23.6436H90.5031C89.5451 23.6436 89.066 24.1634 89.066 25.2028V28.002H88.2113V22.8546H89.066V23.6906ZM91.3959 25.4095C91.3959 24.8835 91.5024 24.4232 91.7153 24.0287C91.9282 23.628 92.2194 23.318 92.5888 23.0988C92.9645 22.8797 93.381 22.7701 93.8381 22.7701C94.2889 22.7701 94.6803 22.8671 95.0122 23.0613C95.3441 23.2554 95.5914 23.4996 95.7542 23.7939V22.8546H96.6184V28.002H95.7542V27.0439C95.5852 27.3444 95.3316 27.5949 94.9934 27.7953C94.6615 27.9894 94.2733 28.0865 93.8287 28.0865C93.3716 28.0865 92.9583 27.9738 92.5888 27.7483C92.2194 27.5229 91.9282 27.2067 91.7153 26.7997C91.5024 26.3926 91.3959 25.9292 91.3959 25.4095ZM95.7542 25.4189C95.7542 25.0306 95.676 24.6925 95.5194 24.4044C95.3629 24.1164 95.15 23.8972 94.8807 23.7469C94.6177 23.5904 94.3265 23.5121 94.0072 23.5121C93.6878 23.5121 93.3966 23.5873 93.1336 23.7375C92.8706 23.8878 92.6608 24.107 92.5043 24.3951C92.3477 24.6831 92.2695 25.0213 92.2695 25.4095C92.2695 25.804 92.3477 26.1484 92.5043 26.4427C92.6608 26.7308 92.8706 26.9531 93.1336 27.1096C93.3966 27.2599 93.6878 27.3351 94.0072 27.3351C94.3265 27.3351 94.6177 27.2599 94.8807 27.1096C95.15 26.9531 95.3629 26.7308 95.5194 26.4427C95.676 26.1484 95.7542 25.8071 95.7542 25.4189ZM100.571 22.7607C101.197 22.7607 101.704 22.9517 102.092 23.3336C102.481 23.7094 102.675 24.2542 102.675 24.968V28.002H101.829V25.0901C101.829 24.5766 101.701 24.1853 101.444 23.916C101.188 23.6405 100.837 23.5027 100.392 23.5027C99.9415 23.5027 99.5814 23.6436 99.3121 23.9254C99.0491 24.2072 98.9176 24.6174 98.9176 25.1559V28.002H98.0629V22.8546H98.9176V23.5873C99.0867 23.3243 99.3153 23.1207 99.6033 22.9767C99.8976 22.8327 100.22 22.7607 100.571 22.7607ZM105.893 28.0865C105.499 28.0865 105.145 28.0207 104.832 27.8892C104.519 27.7515 104.271 27.5636 104.09 27.3257C103.908 27.0814 103.808 26.8028 103.789 26.4897H104.672C104.697 26.7464 104.816 26.9562 105.029 27.119C105.248 27.2818 105.533 27.3632 105.884 27.3632C106.21 27.3632 106.466 27.2912 106.654 27.1472C106.842 27.0032 106.936 26.8216 106.936 26.6024C106.936 26.377 106.836 26.211 106.635 26.1046C106.435 25.9919 106.125 25.8823 105.705 25.7758C105.323 25.6756 105.01 25.5754 104.766 25.4752C104.528 25.3688 104.322 25.2154 104.146 25.015C103.977 24.8083 103.893 24.5391 103.893 24.2072C103.893 23.9442 103.971 23.7031 104.127 23.4839C104.284 23.2648 104.506 23.0926 104.794 22.9673C105.082 22.8358 105.411 22.7701 105.781 22.7701C106.35 22.7701 106.811 22.9141 107.161 23.2021C107.512 23.4902 107.7 23.8847 107.725 24.3857H106.87C106.851 24.1164 106.742 23.9004 106.541 23.7375C106.347 23.5747 106.084 23.4933 105.752 23.4933C105.446 23.4933 105.201 23.5591 105.02 23.6906C104.838 23.8221 104.747 23.9943 104.747 24.2072C104.747 24.3763 104.801 24.5172 104.907 24.6299C105.02 24.7363 105.158 24.824 105.32 24.8929C105.489 24.9555 105.721 25.0275 106.015 25.1089C106.385 25.2091 106.685 25.3093 106.917 25.4095C107.149 25.5034 107.346 25.6474 107.509 25.8416C107.678 26.0357 107.766 26.2893 107.772 26.6024C107.772 26.8842 107.694 27.1378 107.537 27.3632C107.381 27.5887 107.158 27.7671 106.87 27.8986C106.588 28.0239 106.263 28.0865 105.893 28.0865ZM111.073 23.5591H109.993V28.002H109.138V23.5591H108.471V22.8546H109.138V22.4883C109.138 21.9122 109.285 21.4926 109.58 21.2296C109.88 20.9604 110.359 20.8257 111.017 20.8257V21.5396C110.641 21.5396 110.375 21.6147 110.218 21.765C110.068 21.909 109.993 22.1501 109.993 22.4883V22.8546H111.073V23.5591ZM116.766 25.231C116.766 25.3938 116.757 25.566 116.738 25.7476H112.624C112.655 26.2549 112.827 26.6525 113.141 26.9405C113.46 27.2223 113.845 27.3632 114.296 27.3632C114.665 27.3632 114.972 27.2787 115.216 27.1096C115.467 26.9343 115.642 26.7026 115.742 26.4145H116.663C116.525 26.9092 116.25 27.3131 115.836 27.6262C115.423 27.9331 114.91 28.0865 114.296 28.0865C113.807 28.0865 113.369 27.9769 112.981 27.7577C112.599 27.5386 112.298 27.2286 112.079 26.8278C111.86 26.4208 111.75 25.9512 111.75 25.4189C111.75 24.8866 111.857 24.4201 112.07 24.0193C112.283 23.6186 112.58 23.3117 112.962 23.0988C113.35 22.8797 113.795 22.7701 114.296 22.7701C114.784 22.7701 115.216 22.8765 115.592 23.0894C115.968 23.3023 116.256 23.5966 116.456 23.9724C116.663 24.3418 116.766 24.7614 116.766 25.231ZM115.883 25.0526C115.883 24.7269 115.811 24.4483 115.667 24.2166C115.523 23.9786 115.326 23.8002 115.076 23.6812C114.831 23.5559 114.559 23.4933 114.258 23.4933C113.826 23.4933 113.457 23.6311 113.15 23.9066C112.849 24.1821 112.677 24.5641 112.633 25.0526H115.883ZM118.749 23.6906C118.9 23.3963 119.112 23.1677 119.388 23.0049C119.67 22.8421 120.011 22.7607 120.412 22.7607V23.6436H120.186C119.228 23.6436 118.749 24.1634 118.749 25.2028V28.002H117.895V22.8546H118.749V23.6906ZM122.441 23.5591V26.593C122.441 26.8435 122.494 27.022 122.601 27.1284C122.707 27.2286 122.892 27.2787 123.155 27.2787H123.784V28.002H123.014C122.538 28.002 122.181 27.8924 121.943 27.6732C121.705 27.454 121.586 27.094 121.586 26.593V23.5591H120.919V22.8546H121.586V21.5584H122.441V22.8546H123.784V23.5591H122.441ZM127.005 25.4095C127.005 24.8835 127.111 24.4232 127.324 24.0287C127.537 23.628 127.828 23.318 128.198 23.0988C128.573 22.8797 128.993 22.7701 129.456 22.7701C129.857 22.7701 130.23 22.864 130.574 23.0519C130.919 23.2335 131.182 23.4745 131.363 23.7751V21.0512H132.227V28.002H131.363V27.0345C131.194 27.3413 130.944 27.5949 130.612 27.7953C130.28 27.9894 129.892 28.0865 129.447 28.0865C128.99 28.0865 128.573 27.9738 128.198 27.7483C127.828 27.5229 127.537 27.2067 127.324 26.7997C127.111 26.3926 127.005 25.9292 127.005 25.4095ZM131.363 25.4189C131.363 25.0306 131.285 24.6925 131.128 24.4044C130.972 24.1164 130.759 23.8972 130.49 23.7469C130.227 23.5904 129.935 23.5121 129.616 23.5121C129.297 23.5121 129.006 23.5873 128.743 23.7375C128.48 23.8878 128.27 24.107 128.113 24.3951C127.957 24.6831 127.878 25.0213 127.878 25.4095C127.878 25.804 127.957 26.1484 128.113 26.4427C128.27 26.7308 128.48 26.9531 128.743 27.1096C129.006 27.2599 129.297 27.3351 129.616 27.3351C129.935 27.3351 130.227 27.2599 130.49 27.1096C130.759 26.9531 130.972 26.7308 131.128 26.4427C131.285 26.1484 131.363 25.8071 131.363 25.4189ZM138.368 25.231C138.368 25.3938 138.359 25.566 138.34 25.7476H134.226C134.257 26.2549 134.429 26.6525 134.743 26.9405C135.062 27.2223 135.447 27.3632 135.898 27.3632C136.267 27.3632 136.574 27.2787 136.818 27.1096C137.069 26.9343 137.244 26.7026 137.344 26.4145H138.265C138.127 26.9092 137.852 27.3131 137.438 27.6262C137.025 27.9331 136.512 28.0865 135.898 28.0865C135.409 28.0865 134.971 27.9769 134.583 27.7577C134.201 27.5386 133.9 27.2286 133.681 26.8278C133.462 26.4208 133.352 25.9512 133.352 25.4189C133.352 24.8866 133.459 24.4201 133.672 24.0193C133.885 23.6186 134.182 23.3117 134.564 23.0988C134.952 22.8797 135.397 22.7701 135.898 22.7701C136.386 22.7701 136.818 22.8765 137.194 23.0894C137.57 23.3023 137.858 23.5966 138.058 23.9724C138.265 24.3418 138.368 24.7614 138.368 25.231ZM137.485 25.0526C137.485 24.7269 137.413 24.4483 137.269 24.2166C137.125 23.9786 136.928 23.8002 136.678 23.6812C136.433 23.5559 136.161 23.4933 135.86 23.4933C135.428 23.4933 135.059 23.6311 134.752 23.9066C134.451 24.1821 134.279 24.5641 134.235 25.0526H137.485ZM144.095 23.5591H143.015V28.002H142.16V23.5591H141.493V22.8546H142.16V22.4883C142.16 21.9122 142.308 21.4926 142.602 21.2296C142.902 20.9604 143.381 20.8257 144.039 20.8257V21.5396C143.663 21.5396 143.397 21.6147 143.241 21.765C143.09 21.909 143.015 22.1501 143.015 22.4883V22.8546H144.095V23.5591ZM145.533 22.0186C145.371 22.0186 145.233 21.9623 145.12 21.8496C145.007 21.7368 144.951 21.5991 144.951 21.4363C144.951 21.2735 145.007 21.1357 145.12 21.023C145.233 20.9103 145.371 20.8539 145.533 20.8539C145.69 20.8539 145.821 20.9103 145.928 21.023C146.041 21.1357 146.097 21.2735 146.097 21.4363C146.097 21.5991 146.041 21.7368 145.928 21.8496C145.821 21.9623 145.69 22.0186 145.533 22.0186ZM145.947 22.8546V28.002H145.092V22.8546H145.947ZM147.084 25.4189C147.084 24.8866 147.191 24.4232 147.403 24.0287C147.616 23.628 147.911 23.318 148.286 23.0988C148.668 22.8797 149.104 22.7701 149.592 22.7701C150.225 22.7701 150.744 22.9235 151.151 23.2303C151.565 23.5372 151.837 23.963 151.968 24.5078H151.048C150.96 24.1947 150.788 23.9473 150.531 23.7657C150.281 23.5841 149.968 23.4933 149.592 23.4933C149.104 23.4933 148.709 23.6624 148.409 24.0005C148.108 24.3324 147.958 24.8052 147.958 25.4189C147.958 26.0388 148.108 26.5179 148.409 26.856C148.709 27.1942 149.104 27.3632 149.592 27.3632C149.968 27.3632 150.281 27.2756 150.531 27.1002C150.782 26.9249 150.954 26.6744 151.048 26.3488H151.968C151.831 26.8748 151.555 27.2975 151.142 27.6168C150.729 27.9299 150.212 28.0865 149.592 28.0865C149.104 28.0865 148.668 27.9769 148.286 27.7577C147.911 27.5386 147.616 27.2286 147.403 26.8278C147.191 26.4271 147.084 25.9574 147.084 25.4189ZM155.664 22.7607C156.052 22.7607 156.403 22.8452 156.716 23.0143C157.029 23.1771 157.273 23.4244 157.449 23.7563C157.63 24.0882 157.721 24.4921 157.721 24.968V28.002H156.876V25.0901C156.876 24.5766 156.747 24.1853 156.49 23.916C156.234 23.6405 155.883 23.5027 155.438 23.5027C154.988 23.5027 154.628 23.6436 154.358 23.9254C154.095 24.2072 153.964 24.6174 153.964 25.1559V28.002H153.109V21.0512H153.964V23.5873C154.133 23.3243 154.365 23.1207 154.659 22.9767C154.959 22.8327 155.294 22.7607 155.664 22.7607ZM159.559 22.0186C159.396 22.0186 159.258 21.9623 159.145 21.8496C159.033 21.7368 158.976 21.5991 158.976 21.4363C158.976 21.2735 159.033 21.1357 159.145 21.023C159.258 20.9103 159.396 20.8539 159.559 20.8539C159.715 20.8539 159.847 20.9103 159.953 21.023C160.066 21.1357 160.122 21.2735 160.122 21.4363C160.122 21.5991 160.066 21.7368 159.953 21.8496C159.847 21.9623 159.715 22.0186 159.559 22.0186ZM159.972 22.8546V28.002H159.117V22.8546H159.972ZM166.125 25.231C166.125 25.3938 166.116 25.566 166.097 25.7476H161.983C162.014 26.2549 162.186 26.6525 162.5 26.9405C162.819 27.2223 163.204 27.3632 163.655 27.3632C164.024 27.3632 164.331 27.2787 164.575 27.1096C164.826 26.9343 165.001 26.7026 165.101 26.4145H166.022C165.884 26.9092 165.609 27.3131 165.195 27.6262C164.782 27.9331 164.269 28.0865 163.655 28.0865C163.166 28.0865 162.728 27.9769 162.34 27.7577C161.958 27.5386 161.657 27.2286 161.438 26.8278C161.219 26.4208 161.109 25.9512 161.109 25.4189C161.109 24.8866 161.216 24.4201 161.429 24.0193C161.642 23.6186 161.939 23.3117 162.321 23.0988C162.709 22.8797 163.154 22.7701 163.655 22.7701C164.143 22.7701 164.575 22.8765 164.951 23.0894C165.327 23.3023 165.615 23.5966 165.815 23.9724C166.022 24.3418 166.125 24.7614 166.125 25.231ZM165.242 25.0526C165.242 24.7269 165.17 24.4483 165.026 24.2166C164.882 23.9786 164.685 23.8002 164.434 23.6812C164.19 23.5559 163.918 23.4933 163.617 23.4933C163.185 23.4933 162.816 23.6311 162.509 23.9066C162.208 24.1821 162.036 24.5641 161.992 25.0526H165.242ZM168.108 23.6906C168.259 23.3963 168.471 23.1677 168.747 23.0049C169.029 22.8421 169.37 22.7607 169.771 22.7607V23.6436H169.545C168.587 23.6436 168.108 24.1634 168.108 25.2028V28.002H167.253V22.8546H168.108V23.6906ZM172.58 28.0865C172.185 28.0865 171.831 28.0207 171.518 27.8892C171.205 27.7515 170.958 27.5636 170.776 27.3257C170.595 27.0814 170.494 26.8028 170.476 26.4897H171.359C171.384 26.7464 171.503 26.9562 171.716 27.119C171.935 27.2818 172.22 27.3632 172.57 27.3632C172.896 27.3632 173.153 27.2912 173.341 27.1472C173.528 27.0032 173.622 26.8216 173.622 26.6024C173.622 26.377 173.522 26.211 173.322 26.1046C173.121 25.9919 172.811 25.8823 172.392 25.7758C172.01 25.6756 171.697 25.5754 171.453 25.4752C171.215 25.3688 171.008 25.2154 170.833 25.015C170.664 24.8083 170.579 24.5391 170.579 24.2072C170.579 23.9442 170.657 23.7031 170.814 23.4839C170.97 23.2648 171.193 23.0926 171.481 22.9673C171.769 22.8358 172.098 22.7701 172.467 22.7701C173.037 22.7701 173.497 22.9141 173.848 23.2021C174.198 23.4902 174.386 23.8847 174.411 24.3857H173.557C173.538 24.1164 173.428 23.9004 173.228 23.7375C173.034 23.5747 172.771 23.4933 172.439 23.4933C172.132 23.4933 171.888 23.5591 171.706 23.6906C171.525 23.8221 171.434 23.9943 171.434 24.2072C171.434 24.3763 171.487 24.5172 171.593 24.6299C171.706 24.7363 171.844 24.824 172.007 24.8929C172.176 24.9555 172.408 25.0275 172.702 25.1089C173.071 25.2091 173.372 25.3093 173.604 25.4095C173.835 25.5034 174.033 25.6474 174.195 25.8416C174.364 26.0357 174.452 26.2893 174.458 26.6024C174.458 26.8842 174.38 27.1378 174.223 27.3632C174.067 27.5887 173.845 27.7671 173.557 27.8986C173.275 28.0239 172.949 28.0865 172.58 28.0865Z" fill="black"/>
</g>
<g filter="url(#filter2_dddd_381_764)">
<g clip-path="url(#clip1_381_764)">
<rect y="100.811" width="246.223" height="45.1246" rx="8.82872" fill="white"/>
<g clip-path="url(#clip2_381_764)">
<g filter="url(#filter3_dddd_381_764)">
<rect x="216.383" y="116.092" width="15.5429" height="15.5429" rx="7.77145" fill="url(#paint0_linear_381_764)"/>
<rect x="216.759" y="116.468" width="14.7908" height="14.7908" rx="7.39541" stroke="url(#paint1_linear_381_764)" stroke-width="0.752076"/>
<path d="M223.344 126.12C223.299 126.121 223.254 126.111 223.212 126.094C223.17 126.076 223.132 126.05 223.1 126.017L221.492 124.365C221.427 124.299 221.391 124.209 221.391 124.115C221.391 124.021 221.427 123.931 221.492 123.865C221.556 123.798 221.644 123.761 221.735 123.761C221.827 123.761 221.914 123.798 221.979 123.865L223.344 125.266L226.317 122.213C226.382 122.147 226.47 122.109 226.561 122.109C226.653 122.109 226.74 122.147 226.805 122.213C226.87 122.279 226.906 122.369 226.906 122.463C226.906 122.557 226.87 122.647 226.805 122.714L223.588 126.017C223.556 126.05 223.518 126.076 223.476 126.094C223.434 126.111 223.389 126.121 223.344 126.12Z" fill="#17A25F"/>
</g>
</g>
<rect x="213.372" y="113.083" width="21.5595" height="21.5595" rx="10.7798" stroke="#DDDDDD" stroke-width="1.00277"/>
<path d="M47.0859 115.525L143.221 115.525" stroke="#DDDDDD" stroke-width="3.92387" stroke-linecap="round"/>
<g filter="url(#filter4_dddd_381_764)">
<rect x="5.88672" y="105.715" width="34.3339" height="34.3339" rx="4.90484" fill="white"/>
<rect x="6.13672" y="105.965" width="33.8339" height="33.8339" rx="4.65484" stroke="#DDDDDD" stroke-width="0.5"/>
<path d="M32.5391 121.814V128.455C32.5391 132.881 31.6399 133.988 28.043 133.988H19.0508C15.4539 133.988 14.5547 132.881 14.5547 128.455V117.387C14.5547 112.96 15.4539 111.854 19.0508 111.854H20.3996C21.7485 111.854 22.0452 112.34 22.5578 113.182L23.9066 115.395C24.2483 115.948 24.4461 116.28 25.3453 116.28H28.043C31.6399 116.28 32.5391 117.387 32.5391 121.814Z" fill="#4287F1" stroke="#2B6DD3" stroke-width="1.24508" stroke-miterlimit="10"/>
<path d="M19.6877 127.022H22.1717V127.6H18.8986V127.074L21.3681 123.084H18.9278V122.507H22.1571V123.033L19.6877 127.022ZM23.7427 122.507V127.6H23.0778V122.507H23.7427ZM28.2805 123.998C28.2805 124.421 28.1344 124.775 27.8421 125.057C27.5548 125.335 27.114 125.474 26.5197 125.474H25.5407V127.6H24.8758V122.507H26.5197C27.0945 122.507 27.5304 122.646 27.8275 122.924C28.1295 123.201 28.2805 123.559 28.2805 123.998ZM26.5197 124.926C26.8899 124.926 27.1627 124.845 27.338 124.684C27.5134 124.524 27.601 124.295 27.601 123.998C27.601 123.369 27.2406 123.055 26.5197 123.055H25.5407V124.926H26.5197Z" fill="white"/>
<path d="M19.9492 111.854H28.0422C29.8407 111.854 30.7399 112.96 30.7399 115.174V116.701" stroke="#2B6DD3" stroke-width="1.24508" stroke-miterlimit="10" stroke-linecap="round" stroke-linejoin="round"/>
</g>
<path d="M46.6175 134.626C47.461 133.949 48.1219 133.394 48.6001 132.962C49.0783 132.524 49.4802 132.069 49.8056 131.597C50.1377 131.119 50.3038 130.651 50.3038 130.193C50.3038 129.761 50.1975 129.422 49.985 129.176C49.7791 128.924 49.4436 128.798 48.9787 128.798C48.5271 128.798 48.175 128.941 47.9226 129.226C47.6769 129.505 47.544 129.881 47.5241 130.352H46.6474C46.6739 129.608 46.8998 129.034 47.3249 128.629C47.7499 128.223 48.2979 128.021 48.9687 128.021C49.6529 128.021 50.1942 128.21 50.5927 128.589C50.9979 128.967 51.2004 129.489 51.2004 130.153C51.2004 130.704 51.0344 131.242 50.7023 131.767C50.3768 132.285 50.0049 132.743 49.5864 133.142C49.168 133.534 48.6333 133.992 47.9824 134.517H51.4097V135.274H46.6175V134.626ZM52.4577 131.677C52.4577 130.535 52.6437 129.645 53.0157 129.007C53.3876 128.363 54.0385 128.041 54.9684 128.041C55.8916 128.041 56.5392 128.363 56.9112 129.007C57.2831 129.645 57.4691 130.535 57.4691 131.677C57.4691 132.84 57.2831 133.743 56.9112 134.387C56.5392 135.031 55.8916 135.354 54.9684 135.354C54.0385 135.354 53.3876 135.031 53.0157 134.387C52.6437 133.743 52.4577 132.84 52.4577 131.677ZM56.5724 131.677C56.5724 131.099 56.5326 130.611 56.4529 130.213C56.3798 129.807 56.2237 129.482 55.9846 129.236C55.7521 128.991 55.4134 128.868 54.9684 128.868C54.5167 128.868 54.1714 128.991 53.9322 129.236C53.6998 129.482 53.5437 129.807 53.464 130.213C53.3909 130.611 53.3544 131.099 53.3544 131.677C53.3544 132.275 53.3909 132.776 53.464 133.182C53.5437 133.587 53.6998 133.912 53.9322 134.158C54.1714 134.404 54.5167 134.527 54.9684 134.527C55.4134 134.527 55.7521 134.404 55.9846 134.158C56.2237 133.912 56.3798 133.587 56.4529 133.182C56.5326 132.776 56.5724 132.275 56.5724 131.677ZM68.5632 128.459V135.354H67.6565V130.213L65.3651 135.354H64.7274L62.426 130.203V135.354H61.5194V128.459H62.4957L65.0462 134.158L67.5968 128.459H68.5632ZM73.5778 131.777C73.8302 131.817 74.0594 131.92 74.2653 132.086C74.4778 132.252 74.6438 132.458 74.7634 132.703C74.8896 132.949 74.9527 133.211 74.9527 133.49C74.9527 133.842 74.863 134.161 74.6837 134.447C74.5044 134.726 74.242 134.948 73.8966 135.114C73.5579 135.274 73.156 135.354 72.6911 135.354H70.1007V128.409H72.5915C73.0631 128.409 73.4649 128.489 73.797 128.648C74.1291 128.801 74.3782 129.01 74.5442 129.276C74.7103 129.542 74.7933 129.841 74.7933 130.173C74.7933 130.585 74.6804 130.927 74.4545 131.199C74.2354 131.465 73.9431 131.657 73.5778 131.777ZM71.0074 131.408H72.5317C72.9568 131.408 73.2856 131.309 73.518 131.109C73.7505 130.91 73.8667 130.634 73.8667 130.282C73.8667 129.93 73.7505 129.655 73.518 129.455C73.2856 129.256 72.9501 129.157 72.5118 129.157H71.0074V131.408ZM72.6114 134.606C73.0631 134.606 73.4151 134.5 73.6675 134.287C73.9199 134.075 74.0461 133.779 74.0461 133.401C74.0461 133.016 73.9132 132.713 73.6475 132.494C73.3819 132.268 73.0265 132.155 72.5815 132.155H71.0074V134.606H72.6114Z" fill="#9E9E9E"/>
</g>
</g>
<g filter="url(#filter5_dddd_381_764)">
<rect y="229.506" width="246.22" height="64.7431" rx="8.82861" fill="white"/>
<g clip-path="url(#clip3_381_764)">
<g filter="url(#filter6_dddd_381_764)">
<rect x="216.375" y="244.789" width="15.5427" height="15.5427" rx="7.77135" fill="url(#paint2_linear_381_764)"/>
<rect x="216.751" y="245.165" width="14.7906" height="14.7906" rx="7.39532" stroke="url(#paint3_linear_381_764)" stroke-width="0.752066"/>
<path d="M226.597 249.932L221.516 255.013" stroke="#141414" stroke-width="1.47143" stroke-linecap="round" stroke-linejoin="round"/>
<path d="M226.597 255.013L221.516 249.932" stroke="#141414" stroke-width="1.47143" stroke-linecap="round" stroke-linejoin="round"/>
</g>
</g>
<rect x="213.369" y="241.781" width="21.5592" height="21.5592" rx="10.7796" stroke="#DDDDDD" stroke-width="1.00276"/>
<path d="M47.082 245.203H155.968" stroke="#DDDDDD" stroke-width="3.92382" stroke-linecap="round"/>
<path d="M7.84766 283.459H228.563" stroke="#DDDDDD" stroke-width="3.92382" stroke-linecap="round"/>
<path d="M7.84766 283.459H161.858" stroke="#141414" stroke-width="3.92382" stroke-linecap="round"/>
<g filter="url(#filter7_dddd_381_764)">
<rect x="5.88281" y="235.393" width="34.3335" height="34.3335" rx="4.90478" fill="white"/>
<rect x="6.13281" y="235.643" width="33.8335" height="33.8335" rx="4.65478" stroke="#DDDDDD" stroke-width="0.5"/>
<path d="M32.535 251.49V258.13C32.535 262.557 31.6358 263.664 28.0389 263.664H19.0468C15.45 263.664 14.5508 262.557 14.5508 258.13V247.063C14.5508 242.636 15.45 241.529 19.0468 241.529H20.3956C21.7445 241.529 22.0412 242.016 22.5537 242.857L23.9026 245.071C24.2443 245.624 24.4421 245.956 25.3413 245.956H28.0389C31.6358 245.956 32.535 247.063 32.535 251.49Z" fill="#8681FF" stroke="#7570FD" stroke-width="1.24506" stroke-miterlimit="10"/>
<path d="M18.9579 252.726V254.428H20.8136V254.976H18.9579V256.729H21.0328V257.277H18.293V252.178H21.0328V252.726H18.9579ZM25.4435 253.675C25.4435 254.099 25.2973 254.452 25.0051 254.735C24.7177 255.012 24.2769 255.151 23.6827 255.151H22.7037V257.277H22.0388V252.185H23.6827C24.2574 252.185 24.6934 252.324 24.9905 252.601C25.2925 252.879 25.4435 253.237 25.4435 253.675ZM23.6827 254.603C24.0529 254.603 24.3256 254.523 24.501 254.362C24.6763 254.201 24.764 253.973 24.764 253.675C24.764 253.047 24.4036 252.733 23.6827 252.733H22.7037V254.603H23.6827ZM27.8844 257.328C27.5484 257.328 27.2464 257.27 26.9785 257.153C26.7155 257.031 26.5085 256.866 26.3575 256.656C26.2065 256.442 26.1285 256.196 26.1237 255.918H26.8324C26.8567 256.157 26.9541 256.359 27.1246 256.525C27.3 256.686 27.5532 256.766 27.8844 256.766C28.201 256.766 28.4494 256.688 28.6297 256.532C28.8147 256.371 28.9073 256.167 28.9073 255.918C28.9073 255.724 28.8537 255.565 28.7466 255.444C28.6394 255.322 28.5055 255.229 28.3447 255.166C28.184 255.103 27.9672 255.034 27.6945 254.961C27.3584 254.874 27.0881 254.786 26.8835 254.698C26.6838 254.611 26.5109 254.474 26.3648 254.289C26.2235 254.099 26.1529 253.846 26.1529 253.529C26.1529 253.252 26.2235 253.006 26.3648 252.791C26.506 252.577 26.7033 252.411 26.9566 252.295C27.2147 252.178 27.5094 252.119 27.8406 252.119C28.3179 252.119 28.7076 252.239 29.0096 252.477C29.3164 252.716 29.4893 253.033 29.5283 253.427H28.7977C28.7733 253.232 28.6711 253.062 28.4908 252.916C28.3106 252.765 28.072 252.689 27.7748 252.689C27.4972 252.689 27.2707 252.762 27.0954 252.908C26.92 253.05 26.8324 253.249 26.8324 253.507C26.8324 253.692 26.8835 253.843 26.9858 253.96C27.0929 254.077 27.222 254.167 27.373 254.231C27.5289 254.289 27.7456 254.357 28.0233 254.435C28.3593 254.528 28.6297 254.62 28.8342 254.713C29.0388 254.801 29.2141 254.939 29.3603 255.129C29.5064 255.314 29.5794 255.568 29.5794 255.889C29.5794 256.138 29.5137 256.371 29.3822 256.591C29.2507 256.81 29.0558 256.988 28.7977 257.124C28.5395 257.26 28.2351 257.328 27.8844 257.328Z" fill="white"/>
<path d="M19.9492 241.529H28.0421C29.8405 241.529 30.7397 242.636 30.7397 244.849V246.377" stroke="#7570FD" stroke-width="1.24506" stroke-miterlimit="10" stroke-linecap="round" stroke-linejoin="round"/>
</g>
<path d="M47.4606 257.673V256.846H49.3336V264.049H48.4171V257.673H47.4606ZM55.4838 257.633H51.9869V259.904C52.1396 259.692 52.3654 259.519 52.6643 259.386C52.9632 259.247 53.2853 259.177 53.6307 259.177C54.182 259.177 54.6303 259.293 54.9757 259.526C55.3211 259.752 55.5668 260.047 55.713 260.412C55.8657 260.771 55.9421 261.153 55.9421 261.558C55.9421 262.036 55.8524 262.465 55.6731 262.843C55.4938 263.222 55.2181 263.521 54.8462 263.74C54.4809 263.959 54.0259 264.069 53.4813 264.069C52.7839 264.069 52.2193 263.889 51.7876 263.531C51.3559 263.172 51.0935 262.694 51.0005 262.096H51.8872C51.9736 262.475 52.1562 262.77 52.4352 262.983C52.7141 263.195 53.0662 263.302 53.4912 263.302C54.016 263.302 54.4112 263.146 54.6768 262.833C54.9425 262.515 55.0753 262.096 55.0753 261.578C55.0753 261.06 54.9425 260.661 54.6768 260.383C54.4112 260.097 54.0193 259.954 53.5012 259.954C53.1492 259.954 52.8403 260.04 52.5747 260.213C52.3156 260.379 52.1263 260.608 52.0068 260.901H51.15V256.836H55.4838V257.633ZM57.1469 260.373C57.1469 259.23 57.3329 258.34 57.7048 257.703C58.0768 257.058 58.7277 256.736 59.6575 256.736C60.5808 256.736 61.2284 257.058 61.6003 257.703C61.9722 258.34 62.1582 259.23 62.1582 260.373C62.1582 261.535 61.9722 262.438 61.6003 263.082C61.2284 263.727 60.5808 264.049 59.6575 264.049C58.7277 264.049 58.0768 263.727 57.7048 263.082C57.3329 262.438 57.1469 261.535 57.1469 260.373ZM61.2616 260.373C61.2616 259.795 61.2217 259.307 61.142 258.908C61.0689 258.503 60.9129 258.177 60.6738 257.932C60.4413 257.686 60.1026 257.563 59.6575 257.563C59.2059 257.563 58.8605 257.686 58.6214 257.932C58.3889 258.177 58.2329 258.503 58.1532 258.908C58.0801 259.307 58.0436 259.795 58.0436 260.373C58.0436 260.97 58.0801 261.472 58.1532 261.877C58.2329 262.282 58.3889 262.608 58.6214 262.853C58.8605 263.099 59.2059 263.222 59.6575 263.222C60.1026 263.222 60.4413 263.099 60.6738 262.853C60.9129 262.608 61.0689 262.282 61.142 261.877C61.2217 261.472 61.2616 260.97 61.2616 260.373ZM73.2521 257.155V264.049H72.3455V258.908L70.0541 264.049H69.4165L67.115 258.898V264.049H66.2084V257.155H67.1848L69.7353 262.853L72.2857 257.155H73.2521ZM78.2667 260.472C78.5191 260.512 78.7483 260.615 78.9542 260.781C79.1667 260.947 79.3327 261.153 79.4523 261.399C79.5785 261.644 79.6416 261.907 79.6416 262.186C79.6416 262.538 79.5519 262.857 79.3726 263.142C79.1933 263.421 78.9309 263.644 78.5855 263.81C78.2468 263.969 77.845 264.049 77.38 264.049H74.7897V257.105H77.2804C77.752 257.105 78.1538 257.184 78.4859 257.344C78.818 257.497 79.0671 257.706 79.2331 257.971C79.3992 258.237 79.4822 258.536 79.4822 258.868C79.4822 259.28 79.3693 259.622 79.1435 259.894C78.9243 260.16 78.632 260.353 78.2667 260.472ZM75.6963 260.104H77.2206C77.6457 260.104 77.9745 260.004 78.2069 259.805C78.4394 259.605 78.5556 259.33 78.5556 258.978C78.5556 258.626 78.4394 258.35 78.2069 258.151C77.9745 257.952 77.6391 257.852 77.2007 257.852H75.6963V260.104ZM77.3003 263.302C77.752 263.302 78.104 263.195 78.3564 262.983C78.6088 262.77 78.735 262.475 78.735 262.096C78.735 261.711 78.6021 261.409 78.3365 261.189C78.0708 260.964 77.7154 260.851 77.2704 260.851H75.6963V263.302H77.3003ZM85.9369 264.138C85.4255 264.138 84.9606 264.022 84.5421 263.79C84.1303 263.557 83.8049 263.229 83.5658 262.803C83.3333 262.372 83.2171 261.874 83.2171 261.309C83.2171 260.751 83.3366 260.26 83.5757 259.835C83.8215 259.403 84.1536 259.074 84.572 258.848C84.9905 258.616 85.4587 258.5 85.9768 258.5C86.4949 258.5 86.9631 258.616 87.3815 258.848C87.8 259.074 88.1288 259.4 88.3679 259.825C88.6136 260.25 88.7365 260.744 88.7365 261.309C88.7365 261.874 88.6103 262.372 88.3579 262.803C88.1122 263.229 87.7767 263.557 87.3517 263.79C86.9266 264.022 86.455 264.138 85.9369 264.138ZM85.9369 263.341C86.2624 263.341 86.5679 263.265 86.8535 263.112C87.1391 262.96 87.3683 262.73 87.541 262.425C87.7203 262.119 87.81 261.747 87.81 261.309C87.81 260.871 87.7236 260.499 87.5509 260.193C87.3782 259.888 87.1524 259.662 86.8734 259.516C86.5945 259.363 86.2923 259.287 85.9668 259.287C85.6347 259.287 85.3292 259.363 85.0502 259.516C84.7779 259.662 84.5587 259.888 84.3927 260.193C84.2267 260.499 84.1436 260.871 84.1436 261.309C84.1436 261.754 84.2233 262.129 84.3827 262.435C84.5488 262.74 84.768 262.97 85.0403 263.122C85.3126 263.268 85.6115 263.341 85.9369 263.341ZM92.1502 259.336H91.0045V264.049H90.0979V259.336H89.3905V258.589H90.0979V258.201C90.0979 257.59 90.254 257.145 90.5662 256.866C90.885 256.58 91.3931 256.437 92.0905 256.437V257.194C91.692 257.194 91.4097 257.274 91.2436 257.434C91.0842 257.586 91.0045 257.842 91.0045 258.201V258.589H92.1502V259.336ZM95.6941 258.659C95.7406 258.048 95.9763 257.57 96.4014 257.224C96.8265 256.879 97.3778 256.706 98.0552 256.706C98.5069 256.706 98.8954 256.789 99.2209 256.955C99.553 257.115 99.8021 257.334 99.9681 257.613C100.141 257.892 100.227 258.207 100.227 258.559C100.227 258.971 100.108 259.326 99.8685 259.625C99.636 259.924 99.3305 260.117 98.9519 260.203V260.253C99.3836 260.359 99.7257 260.568 99.9781 260.881C100.23 261.193 100.357 261.601 100.357 262.106C100.357 262.485 100.27 262.827 100.098 263.132C99.9249 263.431 99.6659 263.667 99.3205 263.84C98.9752 264.012 98.56 264.099 98.0752 264.099C97.3711 264.099 96.7933 263.916 96.3416 263.551C95.89 263.179 95.6376 262.654 95.5845 261.977H96.4612C96.5077 262.375 96.6704 262.701 96.9494 262.953C97.2283 263.205 97.6003 263.332 98.0652 263.332C98.5301 263.332 98.8822 263.212 99.1213 262.973C99.367 262.727 99.4899 262.412 99.4899 262.026C99.4899 261.528 99.3239 261.17 98.9918 260.95C98.6597 260.731 98.1582 260.622 97.4874 260.622H97.2582V259.864H97.4973C98.1084 259.858 98.57 259.758 98.8822 259.566C99.1943 259.366 99.3504 259.061 99.3504 258.649C99.3504 258.297 99.2342 258.015 99.0017 257.802C98.7759 257.59 98.4504 257.483 98.0254 257.483C97.6136 257.483 97.2815 257.59 97.0291 257.802C96.7767 258.015 96.6272 258.3 96.5807 258.659H95.6941ZM101.581 260.373C101.581 259.23 101.767 258.34 102.139 257.703C102.511 257.058 103.162 256.736 104.091 256.736C105.015 256.736 105.662 257.058 106.034 257.703C106.406 258.34 106.592 259.23 106.592 260.373C106.592 261.535 106.406 262.438 106.034 263.082C105.662 263.727 105.015 264.049 104.091 264.049C103.162 264.049 102.511 263.727 102.139 263.082C101.767 262.438 101.581 261.535 101.581 260.373ZM105.695 260.373C105.695 259.795 105.656 259.307 105.576 258.908C105.503 258.503 105.347 258.177 105.108 257.932C104.875 257.686 104.536 257.563 104.091 257.563C103.64 257.563 103.294 257.686 103.055 257.932C102.823 258.177 102.667 258.503 102.587 258.908C102.514 259.307 102.477 259.795 102.477 260.373C102.477 260.97 102.514 261.472 102.587 261.877C102.667 262.282 102.823 262.608 103.055 262.853C103.294 263.099 103.64 263.222 104.091 263.222C104.536 263.222 104.875 263.099 105.108 262.853C105.347 262.608 105.503 262.282 105.576 261.877C105.656 261.472 105.695 260.97 105.695 260.373ZM107.837 260.373C107.837 259.23 108.023 258.34 108.395 257.703C108.767 257.058 109.417 256.736 110.347 256.736C111.271 256.736 111.918 257.058 112.29 257.703C112.662 258.34 112.848 259.23 112.848 260.373C112.848 261.535 112.662 262.438 112.29 263.082C111.918 263.727 111.271 264.049 110.347 264.049C109.417 264.049 108.767 263.727 108.395 263.082C108.023 262.438 107.837 261.535 107.837 260.373ZM111.951 260.373C111.951 259.795 111.912 259.307 111.832 258.908C111.759 258.503 111.603 258.177 111.364 257.932C111.131 257.686 110.792 257.563 110.347 257.563C109.896 257.563 109.55 257.686 109.311 257.932C109.079 258.177 108.923 258.503 108.843 258.908C108.77 259.307 108.733 259.795 108.733 260.373C108.733 260.97 108.77 261.472 108.843 261.877C108.923 262.282 109.079 262.608 109.311 262.853C109.55 263.099 109.896 263.222 110.347 263.222C110.792 263.222 111.131 263.099 111.364 262.853C111.603 262.608 111.759 262.282 111.832 261.877C111.912 261.472 111.951 260.97 111.951 260.373ZM123.942 257.155V264.049H123.035V258.908L120.744 264.049H120.106L117.805 258.898V264.049H116.898V257.155H117.875L120.425 262.853L122.976 257.155H123.942ZM128.957 260.472C129.209 260.512 129.438 260.615 129.644 260.781C129.857 260.947 130.023 261.153 130.142 261.399C130.268 261.644 130.331 261.907 130.331 262.186C130.331 262.538 130.242 262.857 130.062 263.142C129.883 263.421 129.621 263.644 129.275 263.81C128.937 263.969 128.535 264.049 128.07 264.049H125.48V257.105H127.97C128.442 257.105 128.844 257.184 129.176 257.344C129.508 257.497 129.757 257.706 129.923 257.971C130.089 258.237 130.172 258.536 130.172 258.868C130.172 259.28 130.059 259.622 129.833 259.894C129.614 260.16 129.322 260.353 128.957 260.472ZM126.386 260.104H127.91C128.336 260.104 128.664 260.004 128.897 259.805C129.129 259.605 129.245 259.33 129.245 258.978C129.245 258.626 129.129 258.35 128.897 258.151C128.664 257.952 128.329 257.852 127.891 257.852H126.386V260.104ZM127.99 263.302C128.442 263.302 128.794 263.195 129.046 262.983C129.299 262.77 129.425 262.475 129.425 262.096C129.425 261.711 129.292 261.409 129.026 261.189C128.761 260.964 128.405 260.851 127.96 260.851H126.386V263.302H127.99Z" fill="#9E9E9E"/>
</g>
<g filter="url(#filter8_dddd_381_764)">
<g clip-path="url(#clip4_381_764)">
<rect y="150.811" width="246.22" height="45.124" rx="8.82861" fill="white"/>
<g clip-path="url(#clip5_381_764)">
<g filter="url(#filter9_dddd_381_764)">
<rect x="216.375" y="166.092" width="15.5427" height="15.5427" rx="7.77135" fill="url(#paint4_linear_381_764)"/>
<rect x="216.751" y="166.468" width="14.7906" height="14.7906" rx="7.39532" stroke="url(#paint5_linear_381_764)" stroke-width="0.752066"/>
<path d="M223.34 176.12C223.295 176.12 223.25 176.111 223.208 176.094C223.166 176.076 223.128 176.05 223.096 176.017L221.488 174.365C221.423 174.299 221.387 174.209 221.387 174.115C221.387 174.021 221.423 173.931 221.488 173.865C221.552 173.798 221.64 173.761 221.731 173.761C221.823 173.761 221.911 173.798 221.975 173.865L223.34 175.266L226.313 172.213C226.378 172.147 226.466 172.109 226.557 172.109C226.649 172.109 226.736 172.147 226.801 172.213C226.866 172.279 226.902 172.369 226.902 172.463C226.902 172.557 226.866 172.647 226.801 172.714L223.584 176.017C223.552 176.05 223.514 176.076 223.472 176.094C223.43 176.111 223.385 176.12 223.34 176.12Z" fill="#17A25F"/>
</g>
</g>
<rect x="213.369" y="163.085" width="21.5592" height="21.5592" rx="10.7796" stroke="#DDDDDD" stroke-width="1.00276"/>
<path d="M47.082 166.508H172.644" stroke="#DDDDDD" stroke-width="3.92382" stroke-linecap="round"/>
<g filter="url(#filter10_dddd_381_764)">
<rect x="5.88281" y="156.697" width="34.3335" height="34.3335" rx="4.90478" fill="white"/>
<rect x="6.13281" y="156.947" width="33.8335" height="33.8335" rx="4.65478" stroke="#DDDDDD" stroke-width="0.5"/>
<path d="M32.535 173.246V179.886C32.535 184.313 31.6358 185.42 28.0389 185.42H19.0468C15.45 185.42 14.5508 184.313 14.5508 179.886V168.819C14.5508 164.392 15.45 163.285 19.0468 163.285H20.3956C21.7445 163.285 22.0412 163.772 22.5537 164.613L23.9026 166.827C24.2443 167.38 24.4421 167.712 25.3413 167.712H28.0389C31.6358 167.712 32.535 168.819 32.535 173.246Z" fill="#FE9F68" stroke="#FFB04E" stroke-width="1.24506" stroke-miterlimit="10"/>
<path d="M18.9579 174.483V176.186H20.8136V176.734H18.9579V178.487H21.0328V179.035H18.293V173.936H21.0328V174.483H18.9579ZM25.4435 175.433C25.4435 175.857 25.2973 176.21 25.0051 176.493C24.7177 176.77 24.2769 176.909 23.6827 176.909H22.7037V179.035H22.0388V173.943H23.6827C24.2574 173.943 24.6934 174.082 24.9905 174.359C25.2925 174.637 25.4435 174.995 25.4435 175.433ZM23.6827 176.361C24.0529 176.361 24.3256 176.281 24.501 176.12C24.6763 175.959 24.764 175.73 24.764 175.433C24.764 174.805 24.4036 174.491 23.6827 174.491H22.7037V176.361H23.6827ZM27.8844 179.086C27.5484 179.086 27.2464 179.028 26.9785 178.911C26.7155 178.789 26.5085 178.624 26.3575 178.414C26.2065 178.2 26.1285 177.954 26.1237 177.676H26.8324C26.8567 177.915 26.9541 178.117 27.1246 178.283C27.3 178.443 27.5532 178.524 27.8844 178.524C28.201 178.524 28.4494 178.446 28.6297 178.29C28.8147 178.129 28.9073 177.925 28.9073 177.676C28.9073 177.481 28.8537 177.323 28.7466 177.201C28.6394 177.08 28.5055 176.987 28.3447 176.924C28.184 176.86 27.9672 176.792 27.6945 176.719C27.3584 176.631 27.0881 176.544 26.8835 176.456C26.6838 176.368 26.5109 176.232 26.3648 176.047C26.2235 175.857 26.1529 175.604 26.1529 175.287C26.1529 175.01 26.2235 174.764 26.3648 174.549C26.506 174.335 26.7033 174.169 26.9566 174.052C27.2147 173.936 27.5094 173.877 27.8406 173.877C28.3179 173.877 28.7076 173.996 29.0096 174.235C29.3164 174.474 29.4893 174.79 29.5283 175.185H28.7977C28.7733 174.99 28.6711 174.82 28.4908 174.673C28.3106 174.522 28.072 174.447 27.7748 174.447C27.4972 174.447 27.2707 174.52 27.0954 174.666C26.92 174.807 26.8324 175.007 26.8324 175.265C26.8324 175.45 26.8835 175.601 26.9858 175.718C27.0929 175.835 27.222 175.925 27.373 175.989C27.5289 176.047 27.7456 176.115 28.0233 176.193C28.3593 176.286 28.6297 176.378 28.8342 176.471C29.0388 176.558 29.2141 176.697 29.3603 176.887C29.5064 177.072 29.5794 177.326 29.5794 177.647C29.5794 177.895 29.5137 178.129 29.3822 178.348C29.2507 178.568 29.0558 178.745 28.7977 178.882C28.5395 179.018 28.2351 179.086 27.8844 179.086Z" fill="white"/>
<path d="M19.9492 163.285H28.0421C29.8405 163.285 30.7397 164.392 30.7397 166.605V168.133" stroke="#FFB04E" stroke-width="1.24506" stroke-miterlimit="10" stroke-linecap="round" stroke-linejoin="round"/>
</g>
<path d="M46.6136 184.628C47.4571 183.951 48.118 183.396 48.5962 182.964C49.0744 182.526 49.4762 182.071 49.8017 181.599C50.1338 181.121 50.2998 180.653 50.2998 180.195C50.2998 179.763 50.1936 179.424 49.981 179.179C49.7751 178.926 49.4397 178.8 48.9748 178.8C48.5231 178.8 48.1711 178.943 47.9187 179.228C47.673 179.507 47.5401 179.883 47.5202 180.354H46.6435C46.67 179.61 46.8959 179.036 47.3209 178.631C47.746 178.225 48.294 178.023 48.9648 178.023C49.6489 178.023 50.1902 178.212 50.5887 178.591C50.9939 178.969 51.1965 179.491 51.1965 180.155C51.1965 180.706 51.0304 181.244 50.6983 181.769C50.3729 182.287 50.0009 182.745 49.5825 183.144C49.1641 183.536 48.6294 183.994 47.9785 184.519H51.4057V185.276H46.6136V184.628ZM52.4537 181.679C52.4537 180.537 52.6397 179.647 53.0117 179.009C53.3836 178.365 54.0345 178.043 54.9644 178.043C55.8876 178.043 56.5352 178.365 56.9071 179.009C57.2791 179.647 57.465 180.537 57.465 181.679C57.465 182.842 57.2791 183.745 56.9071 184.389C56.5352 185.033 55.8876 185.355 54.9644 185.355C54.0345 185.355 53.3836 185.033 53.0117 184.389C52.6397 183.745 52.4537 182.842 52.4537 181.679ZM56.5684 181.679C56.5684 181.101 56.5285 180.613 56.4488 180.215C56.3758 179.809 56.2197 179.484 55.9806 179.238C55.7481 178.993 55.4094 178.87 54.9644 178.87C54.5127 178.87 54.1673 178.993 53.9282 179.238C53.6958 179.484 53.5397 179.809 53.46 180.215C53.3869 180.613 53.3504 181.101 53.3504 181.679C53.3504 182.277 53.3869 182.778 53.46 183.184C53.5397 183.589 53.6958 183.914 53.9282 184.16C54.1673 184.406 54.5127 184.529 54.9644 184.529C55.4094 184.529 55.7481 184.406 55.9806 184.16C56.2197 183.914 56.3758 183.589 56.4488 183.184C56.5285 182.778 56.5684 182.277 56.5684 181.679ZM68.559 178.461V185.355H67.6524V180.215L65.3609 185.355H64.7233L62.4219 180.205V185.355H61.5153V178.461H62.4916L65.0421 184.16L67.5926 178.461H68.559ZM73.5736 181.779C73.8259 181.819 74.0551 181.922 74.261 182.088C74.4735 182.254 74.6396 182.46 74.7591 182.705C74.8853 182.951 74.9484 183.213 74.9484 183.492C74.9484 183.844 74.8588 184.163 74.6794 184.449C74.5001 184.728 74.2377 184.95 73.8924 185.116C73.5536 185.276 73.1518 185.355 72.6869 185.355H70.0965V178.411H72.5872C73.0588 178.411 73.4606 178.491 73.7927 178.65C74.1248 178.803 74.3739 179.012 74.5399 179.278C74.706 179.544 74.789 179.843 74.789 180.175C74.789 180.587 74.6761 180.929 74.4503 181.201C74.2311 181.467 73.9389 181.659 73.5736 181.779ZM71.0031 181.41H72.5275C72.9525 181.41 73.2813 181.311 73.5138 181.111C73.7462 180.912 73.8625 180.636 73.8625 180.284C73.8625 179.932 73.7462 179.657 73.5138 179.457C73.2813 179.258 72.9459 179.159 72.5075 179.159H71.0031V181.41ZM72.6072 184.608C73.0588 184.608 73.4108 184.502 73.6632 184.289C73.9156 184.077 74.0418 183.781 74.0418 183.403C74.0418 183.018 73.909 182.715 73.6433 182.496C73.3776 182.27 73.0223 182.157 72.5773 182.157H71.0031V184.608H72.6072Z" fill="#9E9E9E"/>
</g>
</g>
<rect x="113" y="209.756" width="6.11111" height="6.11111" rx="3.05556" fill="white"/>
<rect x="120.945" y="209.756" width="6.11111" height="6.11111" rx="3.05556" fill="white"/>
<rect x="128.891" y="209.756" width="6.11111" height="6.11111" rx="3.05556" fill="white"/>
</g>
<defs>
<filter id="filter0_dddd_381_764" x="-17.0032" y="-3.13099" width="281.006" height="145.591" filterUnits="userSpaceOnUse" color-interpolation-filters="sRGB">
<feFlood flood-opacity="0" result="BackgroundImageFix"/>
<feColorMatrix in="SourceAlpha" type="matrix" values="0 0 0 0 0 0 0 0 0 0 0 0 0 0 0 0 0 0 127 0" result="hardAlpha"/>
<feOffset dy="3.13099"/>
<feGaussianBlur stdDeviation="3.13099"/>
<feColorMatrix type="matrix" values="0 0 0 0 0.286275 0 0 0 0 0.317647 0 0 0 0 0.454902 0 0 0 0.1 0"/>
<feBlend mode="normal" in2="BackgroundImageFix" result="effect1_dropShadow_381_764"/>
<feColorMatrix in="SourceAlpha" type="matrix" values="0 0 0 0 0 0 0 0 0 0 0 0 0 0 0 0 0 0 127 0" result="hardAlpha"/>
<feOffset dy="10.9585"/>
<feGaussianBlur stdDeviation="5.47923"/>
<feColorMatrix type="matrix" values="0 0 0 0 0.286275 0 0 0 0 0.317647 0 0 0 0 0.454902 0 0 0 0.09 0"/>
<feBlend mode="normal" in2="effect1_dropShadow_381_764" result="effect2_dropShadow_381_764"/>
<feColorMatrix in="SourceAlpha" type="matrix" values="0 0 0 0 0 0 0 0 0 0 0 0 0 0 0 0 0 0 127 0" result="hardAlpha"/>
<feOffset dy="25.0479"/>
<feGaussianBlur stdDeviation="7.4361"/>
<feColorMatrix type="matrix" values="0 0 0 0 0.286275 0 0 0 0 0.317647 0 0 0 0 0.454902 0 0 0 0.05 0"/>
<feBlend mode="normal" in2="effect2_dropShadow_381_764" result="effect3_dropShadow_381_764"/>
<feColorMatrix in="SourceAlpha" type="matrix" values="0 0 0 0 0 0 0 0 0 0 0 0 0 0 0 0 0 0 127 0" result="hardAlpha"/>
<feOffset dy="43.8339"/>
<feGaussianBlur stdDeviation="9.0016"/>
<feColorMatrix type="matrix" values="0 0 0 0 0.286275 0 0 0 0 0.317647 0 0 0 0 0.454902 0 0 0 0.01 0"/>
<feBlend mode="normal" in2="effect3_dropShadow_381_764" result="effect4_dropShadow_381_764"/>
<feBlend mode="normal" in="SourceGraphic" in2="effect4_dropShadow_381_764" result="shape"/>
</filter>
<filter id="filter1_dddd_381_764" x="15.7708" y="17.3553" width="51.0834" height="56.2563" filterUnits="userSpaceOnUse" color-interpolation-filters="sRGB">
<feFlood flood-opacity="0" result="BackgroundImageFix"/>
<feColorMatrix in="SourceAlpha" type="matrix" values="0 0 0 0 0 0 0 0 0 0 0 0 0 0 0 0 0 0 127 0" result="hardAlpha"/>
<feOffset dy="0.646618"/>
<feGaussianBlur stdDeviation="0.646618"/>
<feColorMatrix type="matrix" values="0 0 0 0 0.286275 0 0 0 0 0.317647 0 0 0 0 0.454902 0 0 0 0.1 0"/>
<feBlend mode="normal" in2="BackgroundImageFix" result="effect1_dropShadow_381_764"/>
<feColorMatrix in="SourceAlpha" type="matrix" values="0 0 0 0 0 0 0 0 0 0 0 0 0 0 0 0 0 0 127 0" result="hardAlpha"/>
<feOffset dy="1.93985"/>
<feGaussianBlur stdDeviation="0.969926"/>
<feColorMatrix type="matrix" values="0 0 0 0 0.286275 0 0 0 0 0.317647 0 0 0 0 0.454902 0 0 0 0.09 0"/>
<feBlend mode="normal" in2="effect1_dropShadow_381_764" result="effect2_dropShadow_381_764"/>
<feColorMatrix in="SourceAlpha" type="matrix" values="0 0 0 0 0 0 0 0 0 0 0 0 0 0 0 0 0 0 127 0" result="hardAlpha"/>
<feOffset dy="4.52632"/>
<feGaussianBlur stdDeviation="1.29324"/>
<feColorMatrix type="matrix" values="0 0 0 0 0.286275 0 0 0 0 0.317647 0 0 0 0 0.454902 0 0 0 0.05 0"/>
<feBlend mode="normal" in2="effect2_dropShadow_381_764" result="effect3_dropShadow_381_764"/>
<feColorMatrix in="SourceAlpha" type="matrix" values="0 0 0 0 0 0 0 0 0 0 0 0 0 0 0 0 0 0 127 0" result="hardAlpha"/>
<feOffset dy="7.75941"/>
<feGaussianBlur stdDeviation="1.61654"/>
<feColorMatrix type="matrix" values="0 0 0 0 0.286275 0 0 0 0 0.317647 0 0 0 0 0.454902 0 0 0 0.01 0"/>
<feBlend mode="normal" in2="effect3_dropShadow_381_764" result="effect4_dropShadow_381_764"/>
<feBlend mode="normal" in="SourceGraphic" in2="effect4_dropShadow_381_764" result="shape"/>
</filter>
<filter id="filter2_dddd_381_764" x="-18" y="97.8105" width="282.223" height="110.125" filterUnits="userSpaceOnUse" color-interpolation-filters="sRGB">
<feFlood flood-opacity="0" result="BackgroundImageFix"/>
<feColorMatrix in="SourceAlpha" type="matrix" values="0 0 0 0 0 0 0 0 0 0 0 0 0 0 0 0 0 0 127 0" result="hardAlpha"/>
<feOffset dy="3"/>
<feGaussianBlur stdDeviation="3"/>
<feColorMatrix type="matrix" values="0 0 0 0 0.286275 0 0 0 0 0.317647 0 0 0 0 0.454902 0 0 0 0.1 0"/>
<feBlend mode="normal" in2="BackgroundImageFix" result="effect1_dropShadow_381_764"/>
<feColorMatrix in="SourceAlpha" type="matrix" values="0 0 0 0 0 0 0 0 0 0 0 0 0 0 0 0 0 0 127 0" result="hardAlpha"/>
<feOffset dy="11"/>
<feGaussianBlur stdDeviation="5.5"/>
<feColorMatrix type="matrix" values="0 0 0 0 0.286275 0 0 0 0 0.317647 0 0 0 0 0.454902 0 0 0 0.09 0"/>
<feBlend mode="normal" in2="effect1_dropShadow_381_764" result="effect2_dropShadow_381_764"/>
<feColorMatrix in="SourceAlpha" type="matrix" values="0 0 0 0 0 0 0 0 0 0 0 0 0 0 0 0 0 0 127 0" result="hardAlpha"/>
<feOffset dy="25"/>
<feGaussianBlur stdDeviation="7.5"/>
<feColorMatrix type="matrix" values="0 0 0 0 0.286275 0 0 0 0 0.317647 0 0 0 0 0.454902 0 0 0 0.05 0"/>
<feBlend mode="normal" in2="effect2_dropShadow_381_764" result="effect3_dropShadow_381_764"/>
<feColorMatrix in="SourceAlpha" type="matrix" values="0 0 0 0 0 0 0 0 0 0 0 0 0 0 0 0 0 0 127 0" result="hardAlpha"/>
<feOffset dy="44"/>
<feGaussianBlur stdDeviation="9"/>
<feColorMatrix type="matrix" values="0 0 0 0 0.286275 0 0 0 0 0.317647 0 0 0 0 0.454902 0 0 0 0.01 0"/>
<feBlend mode="normal" in2="effect3_dropShadow_381_764" result="effect4_dropShadow_381_764"/>
<feBlend mode="normal" in="SourceGraphic" in2="effect4_dropShadow_381_764" result="shape"/>
</filter>
<filter id="filter3_dddd_381_764" x="214.377" y="116.092" width="19.554" height="22.061" filterUnits="userSpaceOnUse" color-interpolation-filters="sRGB">
<feFlood flood-opacity="0" result="BackgroundImageFix"/>
<feColorMatrix in="SourceAlpha" type="matrix" values="0 0 0 0 0 0 0 0 0 0 0 0 0 0 0 0 0 0 127 0" result="hardAlpha"/>
<feOffset dy="0.501384"/>
<feGaussianBlur stdDeviation="0.250692"/>
<feColorMatrix type="matrix" values="0 0 0 0 0 0 0 0 0 0 0 0 0 0 0 0 0 0 0.05 0"/>
<feBlend mode="normal" in2="BackgroundImageFix" result="effect1_dropShadow_381_764"/>
<feColorMatrix in="SourceAlpha" type="matrix" values="0 0 0 0 0 0 0 0 0 0 0 0 0 0 0 0 0 0 127 0" result="hardAlpha"/>
<feOffset dy="1.00277"/>
<feGaussianBlur stdDeviation="0.501384"/>
<feColorMatrix type="matrix" values="0 0 0 0 0 0 0 0 0 0 0 0 0 0 0 0 0 0 0.04 0"/>
<feBlend mode="normal" in2="effect1_dropShadow_381_764" result="effect2_dropShadow_381_764"/>
<feColorMatrix in="SourceAlpha" type="matrix" values="0 0 0 0 0 0 0 0 0 0 0 0 0 0 0 0 0 0 127 0" result="hardAlpha"/>
<feOffset dy="2.50692"/>
<feGaussianBlur stdDeviation="0.752076"/>
<feColorMatrix type="matrix" values="0 0 0 0 0 0 0 0 0 0 0 0 0 0 0 0 0 0 0.03 0"/>
<feBlend mode="normal" in2="effect2_dropShadow_381_764" result="effect3_dropShadow_381_764"/>
<feColorMatrix in="SourceAlpha" type="matrix" values="0 0 0 0 0 0 0 0 0 0 0 0 0 0 0 0 0 0 127 0" result="hardAlpha"/>
<feOffset dy="4.51246"/>
<feGaussianBlur stdDeviation="1.00277"/>
<feColorMatrix type="matrix" values="0 0 0 0 0 0 0 0 0 0 0 0 0 0 0 0 0 0 0.01 0"/>
<feBlend mode="normal" in2="effect3_dropShadow_381_764" result="effect4_dropShadow_381_764"/>
<feBlend mode="normal" in="SourceGraphic" in2="effect4_dropShadow_381_764" result="shape"/>
</filter>
<filter id="filter4_dddd_381_764" x="3.88672" y="104.715" width="38.332" height="43.334" filterUnits="userSpaceOnUse" color-interpolation-filters="sRGB">
<feFlood flood-opacity="0" result="BackgroundImageFix"/>
<feColorMatrix in="SourceAlpha" type="matrix" values="0 0 0 0 0 0 0 0 0 0 0 0 0 0 0 0 0 0 127 0" result="hardAlpha"/>
<feOffset/>
<feGaussianBlur stdDeviation="0.5"/>
<feColorMatrix type="matrix" values="0 0 0 0 0.286275 0 0 0 0 0.317647 0 0 0 0 0.454902 0 0 0 0.1 0"/>
<feBlend mode="normal" in2="BackgroundImageFix" result="effect1_dropShadow_381_764"/>
<feColorMatrix in="SourceAlpha" type="matrix" values="0 0 0 0 0 0 0 0 0 0 0 0 0 0 0 0 0 0 127 0" result="hardAlpha"/>
<feOffset dy="2"/>
<feGaussianBlur stdDeviation="1"/>
<feColorMatrix type="matrix" values="0 0 0 0 0.286275 0 0 0 0 0.317647 0 0 0 0 0.454902 0 0 0 0.09 0"/>
<feBlend mode="normal" in2="effect1_dropShadow_381_764" result="effect2_dropShadow_381_764"/>
<feColorMatrix in="SourceAlpha" type="matrix" values="0 0 0 0 0 0 0 0 0 0 0 0 0 0 0 0 0 0 127 0" result="hardAlpha"/>
<feOffset dy="3"/>
<feGaussianBlur stdDeviation="1"/>
<feColorMatrix type="matrix" values="0 0 0 0 0.286275 0 0 0 0 0.317647 0 0 0 0 0.454902 0 0 0 0.05 0"/>
<feBlend mode="normal" in2="effect2_dropShadow_381_764" result="effect3_dropShadow_381_764"/>
<feColorMatrix in="SourceAlpha" type="matrix" values="0 0 0 0 0 0 0 0 0 0 0 0 0 0 0 0 0 0 127 0" result="hardAlpha"/>
<feOffset dy="6"/>
<feGaussianBlur stdDeviation="1"/>
<feColorMatrix type="matrix" values="0 0 0 0 0.286275 0 0 0 0 0.317647 0 0 0 0 0.454902 0 0 0 0.01 0"/>
<feBlend mode="normal" in2="effect3_dropShadow_381_764" result="effect4_dropShadow_381_764"/>
<feBlend mode="normal" in="SourceGraphic" in2="effect4_dropShadow_381_764" result="shape"/>
</filter>
<filter id="filter5_dddd_381_764" x="-18" y="226.506" width="282.219" height="129.742" filterUnits="userSpaceOnUse" color-interpolation-filters="sRGB">
<feFlood flood-opacity="0" result="BackgroundImageFix"/>
<feColorMatrix in="SourceAlpha" type="matrix" values="0 0 0 0 0 0 0 0 0 0 0 0 0 0 0 0 0 0 127 0" result="hardAlpha"/>
<feOffset dy="3"/>
<feGaussianBlur stdDeviation="3"/>
<feColorMatrix type="matrix" values="0 0 0 0 0.286275 0 0 0 0 0.317647 0 0 0 0 0.454902 0 0 0 0.1 0"/>
<feBlend mode="normal" in2="BackgroundImageFix" result="effect1_dropShadow_381_764"/>
<feColorMatrix in="SourceAlpha" type="matrix" values="0 0 0 0 0 0 0 0 0 0 0 0 0 0 0 0 0 0 127 0" result="hardAlpha"/>
<feOffset dy="11"/>
<feGaussianBlur stdDeviation="5.5"/>
<feColorMatrix type="matrix" values="0 0 0 0 0.286275 0 0 0 0 0.317647 0 0 0 0 0.454902 0 0 0 0.09 0"/>
<feBlend mode="normal" in2="effect1_dropShadow_381_764" result="effect2_dropShadow_381_764"/>
<feColorMatrix in="SourceAlpha" type="matrix" values="0 0 0 0 0 0 0 0 0 0 0 0 0 0 0 0 0 0 127 0" result="hardAlpha"/>
<feOffset dy="25"/>
<feGaussianBlur stdDeviation="7.5"/>
<feColorMatrix type="matrix" values="0 0 0 0 0.286275 0 0 0 0 0.317647 0 0 0 0 0.454902 0 0 0 0.05 0"/>
<feBlend mode="normal" in2="effect2_dropShadow_381_764" result="effect3_dropShadow_381_764"/>
<feColorMatrix in="SourceAlpha" type="matrix" values="0 0 0 0 0 0 0 0 0 0 0 0 0 0 0 0 0 0 127 0" result="hardAlpha"/>
<feOffset dy="44"/>
<feGaussianBlur stdDeviation="9"/>
<feColorMatrix type="matrix" values="0 0 0 0 0.286275 0 0 0 0 0.317647 0 0 0 0 0.454902 0 0 0 0.01 0"/>
<feBlend mode="normal" in2="effect3_dropShadow_381_764" result="effect4_dropShadow_381_764"/>
<feBlend mode="normal" in="SourceGraphic" in2="effect4_dropShadow_381_764" result="shape"/>
</filter>
<filter id="filter6_dddd_381_764" x="214.369" y="244.789" width="19.554" height="22.0609" filterUnits="userSpaceOnUse" color-interpolation-filters="sRGB">
<feFlood flood-opacity="0" result="BackgroundImageFix"/>
<feColorMatrix in="SourceAlpha" type="matrix" values="0 0 0 0 0 0 0 0 0 0 0 0 0 0 0 0 0 0 127 0" result="hardAlpha"/>
<feOffset dy="0.501378"/>
<feGaussianBlur stdDeviation="0.250689"/>
<feColorMatrix type="matrix" values="0 0 0 0 0 0 0 0 0 0 0 0 0 0 0 0 0 0 0.05 0"/>
<feBlend mode="normal" in2="BackgroundImageFix" result="effect1_dropShadow_381_764"/>
<feColorMatrix in="SourceAlpha" type="matrix" values="0 0 0 0 0 0 0 0 0 0 0 0 0 0 0 0 0 0 127 0" result="hardAlpha"/>
<feOffset dy="1.00276"/>
<feGaussianBlur stdDeviation="0.501378"/>
<feColorMatrix type="matrix" values="0 0 0 0 0 0 0 0 0 0 0 0 0 0 0 0 0 0 0.04 0"/>
<feBlend mode="normal" in2="effect1_dropShadow_381_764" result="effect2_dropShadow_381_764"/>
<feColorMatrix in="SourceAlpha" type="matrix" values="0 0 0 0 0 0 0 0 0 0 0 0 0 0 0 0 0 0 127 0" result="hardAlpha"/>
<feOffset dy="2.50689"/>
<feGaussianBlur stdDeviation="0.752066"/>
<feColorMatrix type="matrix" values="0 0 0 0 0 0 0 0 0 0 0 0 0 0 0 0 0 0 0.03 0"/>
<feBlend mode="normal" in2="effect2_dropShadow_381_764" result="effect3_dropShadow_381_764"/>
<feColorMatrix in="SourceAlpha" type="matrix" values="0 0 0 0 0 0 0 0 0 0 0 0 0 0 0 0 0 0 127 0" result="hardAlpha"/>
<feOffset dy="4.5124"/>
<feGaussianBlur stdDeviation="1.00276"/>
<feColorMatrix type="matrix" values="0 0 0 0 0 0 0 0 0 0 0 0 0 0 0 0 0 0 0.01 0"/>
<feBlend mode="normal" in2="effect3_dropShadow_381_764" result="effect4_dropShadow_381_764"/>
<feBlend mode="normal" in="SourceGraphic" in2="effect4_dropShadow_381_764" result="shape"/>
</filter>
<filter id="filter7_dddd_381_764" x="3.88281" y="234.393" width="38.332" height="43.334" filterUnits="userSpaceOnUse" color-interpolation-filters="sRGB">
<feFlood flood-opacity="0" result="BackgroundImageFix"/>
<feColorMatrix in="SourceAlpha" type="matrix" values="0 0 0 0 0 0 0 0 0 0 0 0 0 0 0 0 0 0 127 0" result="hardAlpha"/>
<feOffset/>
<feGaussianBlur stdDeviation="0.5"/>
<feColorMatrix type="matrix" values="0 0 0 0 0.286275 0 0 0 0 0.317647 0 0 0 0 0.454902 0 0 0 0.1 0"/>
<feBlend mode="normal" in2="BackgroundImageFix" result="effect1_dropShadow_381_764"/>
<feColorMatrix in="SourceAlpha" type="matrix" values="0 0 0 0 0 0 0 0 0 0 0 0 0 0 0 0 0 0 127 0" result="hardAlpha"/>
<feOffset dy="2"/>
<feGaussianBlur stdDeviation="1"/>
<feColorMatrix type="matrix" values="0 0 0 0 0.286275 0 0 0 0 0.317647 0 0 0 0 0.454902 0 0 0 0.09 0"/>
<feBlend mode="normal" in2="effect1_dropShadow_381_764" result="effect2_dropShadow_381_764"/>
<feColorMatrix in="SourceAlpha" type="matrix" values="0 0 0 0 0 0 0 0 0 0 0 0 0 0 0 0 0 0 127 0" result="hardAlpha"/>
<feOffset dy="3"/>
<feGaussianBlur stdDeviation="1"/>
<feColorMatrix type="matrix" values="0 0 0 0 0.286275 0 0 0 0 0.317647 0 0 0 0 0.454902 0 0 0 0.05 0"/>
<feBlend mode="normal" in2="effect2_dropShadow_381_764" result="effect3_dropShadow_381_764"/>
<feColorMatrix in="SourceAlpha" type="matrix" values="0 0 0 0 0 0 0 0 0 0 0 0 0 0 0 0 0 0 127 0" result="hardAlpha"/>
<feOffset dy="6"/>
<feGaussianBlur stdDeviation="1"/>
<feColorMatrix type="matrix" values="0 0 0 0 0.286275 0 0 0 0 0.317647 0 0 0 0 0.454902 0 0 0 0.01 0"/>
<feBlend mode="normal" in2="effect3_dropShadow_381_764" result="effect4_dropShadow_381_764"/>
<feBlend mode="normal" in="SourceGraphic" in2="effect4_dropShadow_381_764" result="shape"/>
</filter>
<filter id="filter8_dddd_381_764" x="-18" y="147.811" width="282.219" height="110.123" filterUnits="userSpaceOnUse" color-interpolation-filters="sRGB">
<feFlood flood-opacity="0" result="BackgroundImageFix"/>
<feColorMatrix in="SourceAlpha" type="matrix" values="0 0 0 0 0 0 0 0 0 0 0 0 0 0 0 0 0 0 127 0" result="hardAlpha"/>
<feOffset dy="3"/>
<feGaussianBlur stdDeviation="3"/>
<feColorMatrix type="matrix" values="0 0 0 0 0.286275 0 0 0 0 0.317647 0 0 0 0 0.454902 0 0 0 0.1 0"/>
<feBlend mode="normal" in2="BackgroundImageFix" result="effect1_dropShadow_381_764"/>
<feColorMatrix in="SourceAlpha" type="matrix" values="0 0 0 0 0 0 0 0 0 0 0 0 0 0 0 0 0 0 127 0" result="hardAlpha"/>
<feOffset dy="11"/>
<feGaussianBlur stdDeviation="5.5"/>
<feColorMatrix type="matrix" values="0 0 0 0 0.286275 0 0 0 0 0.317647 0 0 0 0 0.454902 0 0 0 0.09 0"/>
<feBlend mode="normal" in2="effect1_dropShadow_381_764" result="effect2_dropShadow_381_764"/>
<feColorMatrix in="SourceAlpha" type="matrix" values="0 0 0 0 0 0 0 0 0 0 0 0 0 0 0 0 0 0 127 0" result="hardAlpha"/>
<feOffset dy="25"/>
<feGaussianBlur stdDeviation="7.5"/>
<feColorMatrix type="matrix" values="0 0 0 0 0.286275 0 0 0 0 0.317647 0 0 0 0 0.454902 0 0 0 0.05 0"/>
<feBlend mode="normal" in2="effect2_dropShadow_381_764" result="effect3_dropShadow_381_764"/>
<feColorMatrix in="SourceAlpha" type="matrix" values="0 0 0 0 0 0 0 0 0 0 0 0 0 0 0 0 0 0 127 0" result="hardAlpha"/>
<feOffset dy="44"/>
<feGaussianBlur stdDeviation="9"/>
<feColorMatrix type="matrix" values="0 0 0 0 0.286275 0 0 0 0 0.317647 0 0 0 0 0.454902 0 0 0 0.01 0"/>
<feBlend mode="normal" in2="effect3_dropShadow_381_764" result="effect4_dropShadow_381_764"/>
<feBlend mode="normal" in="SourceGraphic" in2="effect4_dropShadow_381_764" result="shape"/>
</filter>
<filter id="filter9_dddd_381_764" x="214.369" y="166.092" width="19.554" height="22.0609" filterUnits="userSpaceOnUse" color-interpolation-filters="sRGB">
<feFlood flood-opacity="0" result="BackgroundImageFix"/>
<feColorMatrix in="SourceAlpha" type="matrix" values="0 0 0 0 0 0 0 0 0 0 0 0 0 0 0 0 0 0 127 0" result="hardAlpha"/>
<feOffset dy="0.501378"/>
<feGaussianBlur stdDeviation="0.250689"/>
<feColorMatrix type="matrix" values="0 0 0 0 0 0 0 0 0 0 0 0 0 0 0 0 0 0 0.05 0"/>
<feBlend mode="normal" in2="BackgroundImageFix" result="effect1_dropShadow_381_764"/>
<feColorMatrix in="SourceAlpha" type="matrix" values="0 0 0 0 0 0 0 0 0 0 0 0 0 0 0 0 0 0 127 0" result="hardAlpha"/>
<feOffset dy="1.00276"/>
<feGaussianBlur stdDeviation="0.501378"/>
<feColorMatrix type="matrix" values="0 0 0 0 0 0 0 0 0 0 0 0 0 0 0 0 0 0 0.04 0"/>
<feBlend mode="normal" in2="effect1_dropShadow_381_764" result="effect2_dropShadow_381_764"/>
<feColorMatrix in="SourceAlpha" type="matrix" values="0 0 0 0 0 0 0 0 0 0 0 0 0 0 0 0 0 0 127 0" result="hardAlpha"/>
<feOffset dy="2.50689"/>
<feGaussianBlur stdDeviation="0.752066"/>
<feColorMatrix type="matrix" values="0 0 0 0 0 0 0 0 0 0 0 0 0 0 0 0 0 0 0.03 0"/>
<feBlend mode="normal" in2="effect2_dropShadow_381_764" result="effect3_dropShadow_381_764"/>
<feColorMatrix in="SourceAlpha" type="matrix" values="0 0 0 0 0 0 0 0 0 0 0 0 0 0 0 0 0 0 127 0" result="hardAlpha"/>
<feOffset dy="4.5124"/>
<feGaussianBlur stdDeviation="1.00276"/>
<feColorMatrix type="matrix" values="0 0 0 0 0 0 0 0 0 0 0 0 0 0 0 0 0 0 0.01 0"/>
<feBlend mode="normal" in2="effect3_dropShadow_381_764" result="effect4_dropShadow_381_764"/>
<feBlend mode="normal" in="SourceGraphic" in2="effect4_dropShadow_381_764" result="shape"/>
</filter>
<filter id="filter10_dddd_381_764" x="3.88281" y="155.697" width="38.332" height="43.334" filterUnits="userSpaceOnUse" color-interpolation-filters="sRGB">
<feFlood flood-opacity="0" result="BackgroundImageFix"/>
<feColorMatrix in="SourceAlpha" type="matrix" values="0 0 0 0 0 0 0 0 0 0 0 0 0 0 0 0 0 0 127 0" result="hardAlpha"/>
<feOffset/>
<feGaussianBlur stdDeviation="0.5"/>
<feColorMatrix type="matrix" values="0 0 0 0 0.286275 0 0 0 0 0.317647 0 0 0 0 0.454902 0 0 0 0.1 0"/>
<feBlend mode="normal" in2="BackgroundImageFix" result="effect1_dropShadow_381_764"/>
<feColorMatrix in="SourceAlpha" type="matrix" values="0 0 0 0 0 0 0 0 0 0 0 0 0 0 0 0 0 0 127 0" result="hardAlpha"/>
<feOffset dy="2"/>
<feGaussianBlur stdDeviation="1"/>
<feColorMatrix type="matrix" values="0 0 0 0 0.286275 0 0 0 0 0.317647 0 0 0 0 0.454902 0 0 0 0.09 0"/>
<feBlend mode="normal" in2="effect1_dropShadow_381_764" result="effect2_dropShadow_381_764"/>
<feColorMatrix in="SourceAlpha" type="matrix" values="0 0 0 0 0 0 0 0 0 0 0 0 0 0 0 0 0 0 127 0" result="hardAlpha"/>
<feOffset dy="3"/>
<feGaussianBlur stdDeviation="1"/>
<feColorMatrix type="matrix" values="0 0 0 0 0.286275 0 0 0 0 0.317647 0 0 0 0 0.454902 0 0 0 0.05 0"/>
<feBlend mode="normal" in2="effect2_dropShadow_381_764" result="effect3_dropShadow_381_764"/>
<feColorMatrix in="SourceAlpha" type="matrix" values="0 0 0 0 0 0 0 0 0 0 0 0 0 0 0 0 0 0 127 0" result="hardAlpha"/>
<feOffset dy="6"/>
<feGaussianBlur stdDeviation="1"/>
<feColorMatrix type="matrix" values="0 0 0 0 0.286275 0 0 0 0 0.317647 0 0 0 0 0.454902 0 0 0 0.01 0"/>
<feBlend mode="normal" in2="effect3_dropShadow_381_764" result="effect4_dropShadow_381_764"/>
<feBlend mode="normal" in="SourceGraphic" in2="effect4_dropShadow_381_764" result="shape"/>
</filter>
<linearGradient id="paint0_linear_381_764" x1="224.154" y1="116.092" x2="224.154" y2="131.635" gradientUnits="userSpaceOnUse">
<stop stop-color="white"/>
<stop offset="1" stop-color="#EFEFEF"/>
</linearGradient>
<linearGradient id="paint1_linear_381_764" x1="224.154" y1="116.092" x2="224.154" y2="131.635" gradientUnits="userSpaceOnUse">
<stop stop-color="#DDDDDD"/>
<stop offset="1" stop-color="white"/>
</linearGradient>
<linearGradient id="paint2_linear_381_764" x1="224.146" y1="244.789" x2="224.146" y2="260.332" gradientUnits="userSpaceOnUse">
<stop stop-color="white"/>
<stop offset="1" stop-color="#EFEFEF"/>
</linearGradient>
<linearGradient id="paint3_linear_381_764" x1="224.146" y1="244.789" x2="224.146" y2="260.332" gradientUnits="userSpaceOnUse">
<stop stop-color="#DDDDDD"/>
<stop offset="1" stop-color="white"/>
</linearGradient>
<linearGradient id="paint4_linear_381_764" x1="224.146" y1="166.092" x2="224.146" y2="181.635" gradientUnits="userSpaceOnUse">
<stop stop-color="white"/>
<stop offset="1" stop-color="#EFEFEF"/>
</linearGradient>
<linearGradient id="paint5_linear_381_764" x1="224.146" y1="166.092" x2="224.146" y2="181.635" gradientUnits="userSpaceOnUse">
<stop stop-color="#DDDDDD"/>
<stop offset="1" stop-color="white"/>
</linearGradient>
<clipPath id="clip0_381_764">
<rect width="246.223" height="294.249" fill="white"/>
</clipPath>
<clipPath id="clip1_381_764">
<rect y="100.811" width="246.223" height="45.1246" rx="8.82872" fill="white"/>
</clipPath>
<clipPath id="clip2_381_764">
<rect x="212.871" y="112.582" width="22.5623" height="22.5623" rx="11.2811" fill="white"/>
</clipPath>
<clipPath id="clip3_381_764">
<rect x="212.867" y="241.279" width="22.562" height="22.562" rx="11.281" fill="white"/>
</clipPath>
<clipPath id="clip4_381_764">
<rect y="150.811" width="246.22" height="45.124" rx="8.82861" fill="white"/>
</clipPath>
<clipPath id="clip5_381_764">
<rect x="212.867" y="162.584" width="22.562" height="22.562" rx="11.281" fill="white"/>
</clipPath>
</defs>
</svg>
